SplineFontDB: 3.0
FontName: dungeon_of_doom
FullName: C64 Pro Mono
FamilyName: C64 Pro Mono
Weight: Book
Copyright: (c) 2010-2014, Style. (http://style64.org)
Version: 1.202
ItalicAngle: 0
UnderlinePosition: -384
UnderlineWidth: 256
Ascent: 1792
Descent: 256
InvalidEm: 0
sfntRevision: 0x000133b6
LayerCount: 2
Layer: 0 1 "Back" 1
Layer: 1 1 "Fore" 0
XUID: [1021 191 799138167 31347]
StyleMap: 0x0040
FSType: 0
OS2Version: 3
OS2_WeightWidthSlopeOnly: 0
OS2_UseTypoMetrics: 0
CreationTime: 1283126577
ModificationTime: 1511502253
PfmFamily: 17
TTFWeight: 400
TTFWidth: 5
LineGap: 0
VLineGap: 0
Panose: 2 1 6 9 6 2 2 8 1 1
OS2TypoAscent: 1792
OS2TypoAOffset: 0
OS2TypoDescent: -256
OS2TypoDOffset: 0
OS2TypoLinegap: 0
OS2WinAscent: 1792
OS2WinAOffset: 0
OS2WinDescent: 256
OS2WinDOffset: 0
HheadAscent: 1792
HheadAOffset: 0
HheadDescent: -256
HheadDOffset: 0
OS2SubXSize: 2048
OS2SubYSize: 1024
OS2SubXOff: 0
OS2SubYOff: 256
OS2SupXSize: 1024
OS2SupYSize: 1024
OS2SupXOff: 0
OS2SupYOff: 1024
OS2StrikeYSize: 256
OS2StrikeYPos: 768
OS2CapHeight: 1792
OS2XHeight: 1280
OS2FamilyClass: 2058
OS2Vendor: 'S.64'
OS2CodePages: 00000001.c0000000
OS2UnicodeRanges: 80000083.1000f860.00000000.00000000
DEI: 91125
ShortTable: maxp 16
  1
  0
  314
  66
  7
  66
  4
  0
  0
  0
  0
  0
  0
  0
  2
  2
EndShort

StartChar: .notdef
Encoding: 65536 -1 0
Width: 2048
Flags: W
LayerCount: 2
Fore
SplineSet
256 1536 m 1,0,-1
 1792 1536 l 1,1,-1
 1792 0 l 1,2,-1
 256 0 l 1,3,-1
 256 1536 l 1,0,-1
512 256 m 1,4,-1
 1536 256 l 1,5,-1
 1536 1280 l 1,6,-1
 512 1280 l 1,7,-1
 512 256 l 1,4,-1
EndSplineSet
Validated: 1
EndChar

StartChar: at
Encoding: 64 64 4
AltUni2: 00ef00.ffffffff.0 00ee00.ffffffff.0 00e140.ffffffff.0 00e040.ffffffff.0
Width: 2048
Flags: W
LayerCount: 2
Fore
SplineSet
512 0 m 1,0,-1
 512 256 l 1,1,-1
 256 256 l 1,2,-1
 256 1536 l 1,3,-1
 512 1536 l 1,4,-1
 512 1792 l 1,5,-1
 1536 1792 l 1,6,-1
 1536 1536 l 1,7,-1
 1792 1536 l 1,8,-1
 1792 768 l 1,9,-1
 1024 768 l 1,10,-1
 1024 1280 l 1,11,-1
 1280 1280 l 1,12,-1
 1280 1536 l 1,13,-1
 768 1536 l 1,14,-1
 768 256 l 1,15,-1
 1536 256 l 1,16,-1
 1536 512 l 1,17,-1
 1792 512 l 1,18,-1
 1792 256 l 1,19,-1
 1536 256 l 1,20,-1
 1536 0 l 1,21,-1
 512 0 l 1,0,-1
EndSplineSet
Validated: 5
EndChar

StartChar: A
Encoding: 65 65 5
AltUni2: 00ef41.ffffffff.0 00ee01.ffffffff.0 00e1c1.ffffffff.0 00e161.ffffffff.0 00e041.ffffffff.0
Width: 2048
Flags: W
LayerCount: 2
Fore
SplineSet
256 0 m 1,0,-1
 256 1280 l 1,1,-1
 512 1280 l 1,2,-1
 512 1536 l 1,3,-1
 768 1536 l 1,4,-1
 768 1792 l 1,5,-1
 1280 1792 l 1,6,-1
 1280 1536 l 1,7,-1
 1536 1536 l 1,8,-1
 1536 1280 l 1,9,-1
 1792 1280 l 1,10,-1
 1792 0 l 1,11,-1
 1280 0 l 1,12,-1
 1280 768 l 1,13,-1
 768 768 l 1,14,-1
 768 0 l 1,15,-1
 256 0 l 1,0,-1
768 1024 m 1,16,-1
 1280 1024 l 1,17,-1
 1280 1280 l 1,18,-1
 768 1280 l 1,19,-1
 768 1024 l 1,16,-1
EndSplineSet
Validated: 1
EndChar

StartChar: B
Encoding: 66 66 6
AltUni2: 00ef42.ffffffff.0 00ee02.ffffffff.0 00e1c2.ffffffff.0 00e162.ffffffff.0 00e042.ffffffff.0
Width: 2048
Flags: W
LayerCount: 2
Fore
SplineSet
256 0 m 1,0,-1
 256 1792 l 1,1,-1
 1536 1792 l 1,2,-1
 1536 1536 l 1,3,-1
 1792 1536 l 1,4,-1
 1792 1024 l 1,5,-1
 1536 1024 l 1,6,-1
 1536 768 l 1,7,-1
 1792 768 l 1,8,-1
 1792 256 l 1,9,-1
 1536 256 l 1,10,-1
 1536 0 l 1,11,-1
 256 0 l 1,0,-1
768 256 m 1,12,-1
 1280 256 l 1,13,-1
 1280 768 l 1,14,-1
 768 768 l 1,15,-1
 768 256 l 1,12,-1
768 1024 m 1,16,-1
 1280 1024 l 1,17,-1
 1280 1536 l 1,18,-1
 768 1536 l 1,19,-1
 768 1024 l 1,16,-1
EndSplineSet
Validated: 1
EndChar

StartChar: C
Encoding: 67 67 7
AltUni2: 00ef43.ffffffff.0 00ee03.ffffffff.0 00e1c3.ffffffff.0 00e163.ffffffff.0 00e043.ffffffff.0
Width: 2048
Flags: W
LayerCount: 2
Fore
SplineSet
512 0 m 1,0,-1
 512 256 l 1,1,-1
 256 256 l 1,2,-1
 256 1536 l 1,3,-1
 512 1536 l 1,4,-1
 512 1792 l 1,5,-1
 1536 1792 l 1,6,-1
 1536 1536 l 1,7,-1
 1792 1536 l 1,8,-1
 1792 1280 l 1,9,-1
 1280 1280 l 1,10,-1
 1280 1536 l 1,11,-1
 768 1536 l 1,12,-1
 768 256 l 1,13,-1
 1280 256 l 1,14,-1
 1280 512 l 1,15,-1
 1792 512 l 1,16,-1
 1792 256 l 1,17,-1
 1536 256 l 1,18,-1
 1536 0 l 1,19,-1
 512 0 l 1,0,-1
EndSplineSet
Validated: 1
EndChar

StartChar: D
Encoding: 68 68 8
AltUni2: 00ef44.ffffffff.0 00ee04.ffffffff.0 00e1c4.ffffffff.0 00e164.ffffffff.0 00e044.ffffffff.0
Width: 2048
Flags: W
LayerCount: 2
Fore
SplineSet
256 0 m 1,0,-1
 256 1792 l 1,1,-1
 1280 1792 l 1,2,-1
 1280 1536 l 1,3,-1
 1536 1536 l 1,4,-1
 1536 1280 l 1,5,-1
 1792 1280 l 1,6,-1
 1792 512 l 1,7,-1
 1536 512 l 1,8,-1
 1536 256 l 1,9,-1
 1280 256 l 1,10,-1
 1280 0 l 1,11,-1
 256 0 l 1,0,-1
768 256 m 1,12,-1
 1024 256 l 1,13,-1
 1024 512 l 1,14,-1
 1280 512 l 1,15,-1
 1280 1280 l 1,16,-1
 1024 1280 l 1,17,-1
 1024 1536 l 1,18,-1
 768 1536 l 1,19,-1
 768 256 l 1,12,-1
EndSplineSet
Validated: 1
EndChar

StartChar: E
Encoding: 69 69 9
AltUni2: 00ef45.ffffffff.0 00ee05.ffffffff.0 00e1c5.ffffffff.0 00e165.ffffffff.0 00e045.ffffffff.0
Width: 2048
Flags: W
LayerCount: 2
Fore
SplineSet
1792 1792 m 1,0,-1
 1792 1536 l 1,1,-1
 768 1536 l 1,2,-1
 768 1024 l 1,3,-1
 1280 1024 l 1,4,-1
 1280 768 l 1,5,-1
 768 768 l 1,6,-1
 768 256 l 1,7,-1
 1792 256 l 1,8,-1
 1792 0 l 1,9,-1
 256 0 l 1,10,-1
 256 1792 l 1,11,-1
 1792 1792 l 1,0,-1
EndSplineSet
Validated: 1
EndChar

StartChar: F
Encoding: 70 70 10
AltUni2: 00ef46.ffffffff.0 00ee06.ffffffff.0 00e1c6.ffffffff.0 00e166.ffffffff.0 00e046.ffffffff.0
Width: 2048
Flags: W
LayerCount: 2
Fore
SplineSet
256 0 m 1,0,-1
 256 1792 l 1,1,-1
 1792 1792 l 1,2,-1
 1792 1536 l 1,3,-1
 768 1536 l 1,4,-1
 768 1024 l 1,5,-1
 1280 1024 l 1,6,-1
 1280 768 l 1,7,-1
 768 768 l 1,8,-1
 768 0 l 1,9,-1
 256 0 l 1,0,-1
EndSplineSet
Validated: 1
EndChar

StartChar: G
Encoding: 71 71 11
AltUni2: 00ef47.ffffffff.0 00ee07.ffffffff.0 00e1c7.ffffffff.0 00e167.ffffffff.0 00e047.ffffffff.0
Width: 2048
Flags: W
LayerCount: 2
Fore
SplineSet
512 0 m 1,0,-1
 512 256 l 1,1,-1
 256 256 l 1,2,-1
 256 1536 l 1,3,-1
 512 1536 l 1,4,-1
 512 1792 l 1,5,-1
 1536 1792 l 1,6,-1
 1536 1536 l 1,7,-1
 1792 1536 l 1,8,-1
 1792 1280 l 1,9,-1
 1280 1280 l 1,10,-1
 1280 1536 l 1,11,-1
 768 1536 l 1,12,-1
 768 256 l 1,13,-1
 1280 256 l 1,14,-1
 1280 768 l 1,15,-1
 1024 768 l 1,16,-1
 1024 1024 l 1,17,-1
 1792 1024 l 1,18,-1
 1792 256 l 1,19,-1
 1536 256 l 1,20,-1
 1536 0 l 1,21,-1
 512 0 l 1,0,-1
EndSplineSet
Validated: 1
EndChar

StartChar: H
Encoding: 72 72 12
AltUni2: 00ef48.ffffffff.0 00ee08.ffffffff.0 00e1c8.ffffffff.0 00e168.ffffffff.0 00e048.ffffffff.0
Width: 2048
Flags: W
LayerCount: 2
Fore
SplineSet
256 0 m 1,0,-1
 256 1792 l 1,1,-1
 768 1792 l 1,2,-1
 768 1024 l 1,3,-1
 1280 1024 l 1,4,-1
 1280 1792 l 1,5,-1
 1792 1792 l 1,6,-1
 1792 0 l 1,7,-1
 1280 0 l 1,8,-1
 1280 768 l 1,9,-1
 768 768 l 1,10,-1
 768 0 l 1,11,-1
 256 0 l 1,0,-1
EndSplineSet
Validated: 1
EndChar

StartChar: I
Encoding: 73 73 13
AltUni2: 00ef49.ffffffff.0 00ee09.ffffffff.0 00e1c9.ffffffff.0 00e169.ffffffff.0 00e049.ffffffff.0
Width: 2048
Flags: W
LayerCount: 2
Fore
SplineSet
1536 1792 m 1,0,-1
 1536 1536 l 1,1,-1
 1280 1536 l 1,2,-1
 1280 256 l 1,3,-1
 1536 256 l 1,4,-1
 1536 0 l 1,5,-1
 512 0 l 1,6,-1
 512 256 l 1,7,-1
 768 256 l 1,8,-1
 768 1536 l 1,9,-1
 512 1536 l 1,10,-1
 512 1792 l 1,11,-1
 1536 1792 l 1,0,-1
EndSplineSet
Validated: 1
EndChar

StartChar: J
Encoding: 74 74 14
AltUni2: 00ef4a.ffffffff.0 00ee0a.ffffffff.0 00e1ca.ffffffff.0 00e16a.ffffffff.0 00e04a.ffffffff.0
Width: 2048
Flags: W
LayerCount: 2
Fore
SplineSet
512 0 m 1,0,-1
 512 256 l 1,1,-1
 256 256 l 1,2,-1
 256 512 l 1,3,-1
 768 512 l 1,4,-1
 768 256 l 1,5,-1
 1024 256 l 1,6,-1
 1024 1536 l 1,7,-1
 768 1536 l 1,8,-1
 768 1792 l 1,9,-1
 1792 1792 l 1,10,-1
 1792 1536 l 1,11,-1
 1536 1536 l 1,12,-1
 1536 256 l 1,13,-1
 1280 256 l 1,14,-1
 1280 0 l 1,15,-1
 512 0 l 1,0,-1
EndSplineSet
Validated: 1
EndChar

StartChar: K
Encoding: 75 75 15
AltUni2: 00ef4b.ffffffff.0 00ee0b.ffffffff.0 00e1cb.ffffffff.0 00e16b.ffffffff.0 00e04b.ffffffff.0
Width: 2048
Flags: W
LayerCount: 2
Fore
SplineSet
256 0 m 1,0,-1
 256 1792 l 1,1,-1
 768 1792 l 1,2,-1
 768 1280 l 1,3,-1
 1024 1280 l 1,4,-1
 1024 1536 l 1,5,-1
 1280 1536 l 1,6,-1
 1280 1792 l 1,7,-1
 1792 1792 l 1,8,-1
 1792 1536 l 1,9,-1
 1536 1536 l 1,10,-1
 1536 1280 l 1,11,-1
 1280 1280 l 1,12,-1
 1280 1024 l 1,13,-1
 1024 1024 l 1,14,-1
 1024 768 l 1,15,-1
 1280 768 l 1,16,-1
 1280 512 l 1,17,-1
 1536 512 l 1,18,-1
 1536 256 l 1,19,-1
 1792 256 l 1,20,-1
 1792 0 l 1,21,-1
 1280 0 l 1,22,-1
 1280 256 l 1,23,-1
 1024 256 l 1,24,-1
 1024 512 l 1,25,-1
 768 512 l 1,26,-1
 768 0 l 1,27,-1
 256 0 l 1,0,-1
EndSplineSet
Validated: 1
EndChar

StartChar: L
Encoding: 76 76 16
AltUni2: 00ef4c.ffffffff.0 00ee0c.ffffffff.0 00e1cc.ffffffff.0 00e16c.ffffffff.0 00e04c.ffffffff.0
Width: 2048
Flags: W
LayerCount: 2
Fore
SplineSet
768 1792 m 1,0,-1
 768 256 l 1,1,-1
 1792 256 l 1,2,-1
 1792 0 l 1,3,-1
 256 0 l 1,4,-1
 256 1792 l 1,5,-1
 768 1792 l 1,0,-1
EndSplineSet
Validated: 1
EndChar

StartChar: M
Encoding: 77 77 17
AltUni2: 00ef4d.ffffffff.0 00ee0d.ffffffff.0 00e1cd.ffffffff.0 00e16d.ffffffff.0 00e04d.ffffffff.0
Width: 2048
Flags: W
LayerCount: 2
Fore
SplineSet
256 0 m 1,0,-1
 256 1792 l 1,1,-1
 768 1792 l 1,2,-1
 768 1536 l 1,3,-1
 1024 1536 l 1,4,-1
 1024 1280 l 1,5,-1
 1280 1280 l 1,6,-1
 1280 1536 l 1,7,-1
 1536 1536 l 1,8,-1
 1536 1792 l 1,9,-1
 2048 1792 l 1,10,-1
 2048 0 l 1,11,-1
 1536 0 l 1,12,-1
 1536 1024 l 1,13,-1
 1280 1024 l 1,14,-1
 1280 768 l 1,15,-1
 1024 768 l 1,16,-1
 1024 1024 l 1,17,-1
 768 1024 l 1,18,-1
 768 0 l 1,19,-1
 256 0 l 1,0,-1
EndSplineSet
Validated: 1
EndChar

StartChar: N
Encoding: 78 78 18
AltUni2: 00ef4e.ffffffff.0 00ee0e.ffffffff.0 00e1ce.ffffffff.0 00e16e.ffffffff.0 00e04e.ffffffff.0
Width: 2048
Flags: W
LayerCount: 2
Fore
SplineSet
256 0 m 1,0,-1
 256 1792 l 1,1,-1
 768 1792 l 1,2,-1
 768 1536 l 1,3,-1
 1024 1536 l 1,4,-1
 1024 1280 l 1,5,-1
 1280 1280 l 1,6,-1
 1280 1792 l 1,7,-1
 1792 1792 l 1,8,-1
 1792 0 l 1,9,-1
 1280 0 l 1,10,-1
 1280 512 l 1,11,-1
 1024 512 l 1,12,-1
 1024 768 l 1,13,-1
 768 768 l 1,14,-1
 768 0 l 1,15,-1
 256 0 l 1,0,-1
EndSplineSet
Validated: 1
EndChar

StartChar: O
Encoding: 79 79 19
AltUni2: 00ef4f.ffffffff.0 00ee0f.ffffffff.0 00e1cf.ffffffff.0 00e16f.ffffffff.0 00e04f.ffffffff.0
Width: 2048
Flags: W
LayerCount: 2
Fore
SplineSet
512 0 m 1,0,-1
 512 256 l 1,1,-1
 256 256 l 1,2,-1
 256 1536 l 1,3,-1
 512 1536 l 1,4,-1
 512 1792 l 1,5,-1
 1536 1792 l 1,6,-1
 1536 1536 l 1,7,-1
 1792 1536 l 1,8,-1
 1792 256 l 1,9,-1
 1536 256 l 1,10,-1
 1536 0 l 1,11,-1
 512 0 l 1,0,-1
768 256 m 1,12,-1
 1280 256 l 1,13,-1
 1280 1536 l 1,14,-1
 768 1536 l 1,15,-1
 768 256 l 1,12,-1
EndSplineSet
Validated: 1
EndChar

StartChar: P
Encoding: 80 80 20
AltUni2: 00ef50.ffffffff.0 00ee10.ffffffff.0 00e1d0.ffffffff.0 00e170.ffffffff.0 00e050.ffffffff.0
Width: 2048
Flags: W
LayerCount: 2
Fore
SplineSet
256 0 m 1,0,-1
 256 1792 l 1,1,-1
 1536 1792 l 1,2,-1
 1536 1536 l 1,3,-1
 1792 1536 l 1,4,-1
 1792 1024 l 1,5,-1
 1536 1024 l 1,6,-1
 1536 768 l 1,7,-1
 768 768 l 1,8,-1
 768 0 l 1,9,-1
 256 0 l 1,0,-1
768 1024 m 1,10,-1
 1280 1024 l 1,11,-1
 1280 1536 l 1,12,-1
 768 1536 l 1,13,-1
 768 1024 l 1,10,-1
EndSplineSet
Validated: 1
EndChar

StartChar: Q
Encoding: 81 81 21
AltUni2: 00ef51.ffffffff.0 00ee11.ffffffff.0 00e1d1.ffffffff.0 00e171.ffffffff.0 00e051.ffffffff.0
Width: 2048
Flags: W
LayerCount: 2
Fore
SplineSet
1024 0 m 1,0,-1
 1024 256 l 1,1,-1
 512 256 l 1,2,-1
 512 512 l 1,3,-1
 256 512 l 1,4,-1
 256 1536 l 1,5,-1
 512 1536 l 1,6,-1
 512 1792 l 1,7,-1
 1536 1792 l 1,8,-1
 1536 1536 l 1,9,-1
 1792 1536 l 1,10,-1
 1792 512 l 1,11,-1
 1536 512 l 1,12,-1
 1536 256 l 1,13,-1
 1792 256 l 1,14,-1
 1792 0 l 1,15,-1
 1024 0 l 1,0,-1
768 512 m 1,16,-1
 1280 512 l 1,17,-1
 1280 1536 l 1,18,-1
 768 1536 l 1,19,-1
 768 512 l 1,16,-1
EndSplineSet
Validated: 1
EndChar

StartChar: R
Encoding: 82 82 22
AltUni2: 00ef52.ffffffff.0 00ee12.ffffffff.0 00e1d2.ffffffff.0 00e172.ffffffff.0 00e052.ffffffff.0
Width: 2048
Flags: W
LayerCount: 2
Fore
SplineSet
256 0 m 1,0,-1
 256 1792 l 1,1,-1
 1536 1792 l 1,2,-1
 1536 1536 l 1,3,-1
 1792 1536 l 1,4,-1
 1792 1024 l 1,5,-1
 1536 1024 l 1,6,-1
 1536 768 l 1,7,-1
 1280 768 l 1,8,-1
 1280 512 l 1,9,-1
 1536 512 l 1,10,-1
 1536 256 l 1,11,-1
 1792 256 l 1,12,-1
 1792 0 l 1,13,-1
 1280 0 l 1,14,-1
 1280 256 l 1,15,-1
 1024 256 l 1,16,-1
 1024 512 l 1,17,-1
 768 512 l 1,18,-1
 768 0 l 1,19,-1
 256 0 l 1,0,-1
768 1024 m 1,20,-1
 1280 1024 l 1,21,-1
 1280 1536 l 1,22,-1
 768 1536 l 1,23,-1
 768 1024 l 1,20,-1
EndSplineSet
Validated: 1
EndChar

StartChar: S
Encoding: 83 83 23
AltUni2: 00ef53.ffffffff.0 00ee13.ffffffff.0 00e1d3.ffffffff.0 00e173.ffffffff.0 00e053.ffffffff.0
Width: 2048
Flags: W
LayerCount: 2
Fore
SplineSet
512 0 m 1,0,-1
 512 256 l 1,1,-1
 256 256 l 1,2,-1
 256 512 l 1,3,-1
 768 512 l 1,4,-1
 768 256 l 1,5,-1
 1280 256 l 1,6,-1
 1280 768 l 1,7,-1
 512 768 l 1,8,-1
 512 1024 l 1,9,-1
 256 1024 l 1,10,-1
 256 1536 l 1,11,-1
 512 1536 l 1,12,-1
 512 1792 l 1,13,-1
 1536 1792 l 1,14,-1
 1536 1536 l 1,15,-1
 1792 1536 l 1,16,-1
 1792 1280 l 1,17,-1
 1280 1280 l 1,18,-1
 1280 1536 l 1,19,-1
 768 1536 l 1,20,-1
 768 1024 l 1,21,-1
 1536 1024 l 1,22,-1
 1536 768 l 1,23,-1
 1792 768 l 1,24,-1
 1792 256 l 1,25,-1
 1536 256 l 1,26,-1
 1536 0 l 1,27,-1
 512 0 l 1,0,-1
EndSplineSet
Validated: 1
EndChar

StartChar: T
Encoding: 84 84 24
AltUni2: 00ef54.ffffffff.0 00ee14.ffffffff.0 00e1d4.ffffffff.0 00e174.ffffffff.0 00e054.ffffffff.0
Width: 2048
Flags: W
LayerCount: 2
Fore
SplineSet
768 0 m 1,0,-1
 768 1536 l 1,1,-1
 256 1536 l 1,2,-1
 256 1792 l 1,3,-1
 1792 1792 l 1,4,-1
 1792 1536 l 1,5,-1
 1280 1536 l 1,6,-1
 1280 0 l 1,7,-1
 768 0 l 1,0,-1
EndSplineSet
Validated: 1
EndChar

StartChar: U
Encoding: 85 85 25
AltUni2: 00ef55.ffffffff.0 00ee15.ffffffff.0 00e1d5.ffffffff.0 00e175.ffffffff.0 00e055.ffffffff.0
Width: 2048
Flags: W
LayerCount: 2
Fore
SplineSet
512 0 m 1,0,-1
 512 256 l 1,1,-1
 256 256 l 1,2,-1
 256 1792 l 1,3,-1
 768 1792 l 1,4,-1
 768 256 l 1,5,-1
 1280 256 l 1,6,-1
 1280 1792 l 1,7,-1
 1792 1792 l 1,8,-1
 1792 256 l 1,9,-1
 1536 256 l 1,10,-1
 1536 0 l 1,11,-1
 512 0 l 1,0,-1
EndSplineSet
Validated: 1
EndChar

StartChar: V
Encoding: 86 86 26
AltUni2: 00ef56.ffffffff.0 00ee16.ffffffff.0 00e1d6.ffffffff.0 00e176.ffffffff.0 00e056.ffffffff.0
Width: 2048
Flags: W
LayerCount: 2
Fore
SplineSet
768 0 m 1,0,-1
 768 256 l 1,1,-1
 512 256 l 1,2,-1
 512 512 l 1,3,-1
 256 512 l 1,4,-1
 256 1792 l 1,5,-1
 768 1792 l 1,6,-1
 768 512 l 1,7,-1
 1280 512 l 1,8,-1
 1280 1792 l 1,9,-1
 1792 1792 l 1,10,-1
 1792 512 l 1,11,-1
 1536 512 l 1,12,-1
 1536 256 l 1,13,-1
 1280 256 l 1,14,-1
 1280 0 l 1,15,-1
 768 0 l 1,0,-1
EndSplineSet
Validated: 1
EndChar

StartChar: X
Encoding: 88 88 28
AltUni2: 00ef58.ffffffff.0 00ee18.ffffffff.0 00e1d8.ffffffff.0 00e178.ffffffff.0 00e058.ffffffff.0
Width: 2048
Flags: W
LayerCount: 2
Fore
SplineSet
1792 1792 m 1,0,-1
 1792 1280 l 1,1,-1
 1536 1280 l 1,2,-1
 1536 1024 l 1,3,-1
 1280 1024 l 1,4,-1
 1280 768 l 1,5,-1
 1536 768 l 1,6,-1
 1536 512 l 1,7,-1
 1792 512 l 1,8,-1
 1792 0 l 1,9,-1
 1280 0 l 1,10,-1
 1280 512 l 1,11,-1
 768 512 l 1,12,-1
 768 0 l 1,13,-1
 256 0 l 1,14,-1
 256 512 l 1,15,-1
 512 512 l 1,16,-1
 512 768 l 1,17,-1
 768 768 l 1,18,-1
 768 1024 l 1,19,-1
 512 1024 l 1,20,-1
 512 1280 l 1,21,-1
 256 1280 l 1,22,-1
 256 1792 l 1,23,-1
 768 1792 l 1,24,-1
 768 1280 l 1,25,-1
 1280 1280 l 1,26,-1
 1280 1792 l 1,27,-1
 1792 1792 l 1,0,-1
EndSplineSet
Validated: 1
EndChar

StartChar: Y
Encoding: 89 89 29
AltUni2: 00ef59.ffffffff.0 00ee19.ffffffff.0 00e1d9.ffffffff.0 00e179.ffffffff.0 00e059.ffffffff.0
Width: 2048
Flags: W
LayerCount: 2
Fore
SplineSet
768 0 m 1,0,-1
 768 768 l 1,1,-1
 512 768 l 1,2,-1
 512 1024 l 1,3,-1
 256 1024 l 1,4,-1
 256 1792 l 1,5,-1
 768 1792 l 1,6,-1
 768 1024 l 1,7,-1
 1280 1024 l 1,8,-1
 1280 1792 l 1,9,-1
 1792 1792 l 1,10,-1
 1792 1024 l 1,11,-1
 1536 1024 l 1,12,-1
 1536 768 l 1,13,-1
 1280 768 l 1,14,-1
 1280 0 l 1,15,-1
 768 0 l 1,0,-1
EndSplineSet
Validated: 1
EndChar

StartChar: Z
Encoding: 90 90 30
AltUni2: 00ef5a.ffffffff.0 00ee1a.ffffffff.0 00e1da.ffffffff.0 00e17a.ffffffff.0 00e05a.ffffffff.0
Width: 2048
Flags: W
LayerCount: 2
Fore
SplineSet
256 0 m 1,0,-1
 256 512 l 1,1,-1
 512 512 l 1,2,-1
 512 768 l 1,3,-1
 768 768 l 1,4,-1
 768 1024 l 1,5,-1
 1024 1024 l 1,6,-1
 1024 1280 l 1,7,-1
 1280 1280 l 1,8,-1
 1280 1536 l 1,9,-1
 256 1536 l 1,10,-1
 256 1792 l 1,11,-1
 1792 1792 l 1,12,-1
 1792 1280 l 1,13,-1
 1536 1280 l 1,14,-1
 1536 1024 l 1,15,-1
 1280 1024 l 1,16,-1
 1280 768 l 1,17,-1
 1024 768 l 1,18,-1
 1024 512 l 1,19,-1
 768 512 l 1,20,-1
 768 256 l 1,21,-1
 1792 256 l 1,22,-1
 1792 0 l 1,23,-1
 256 0 l 1,0,-1
EndSplineSet
Validated: 1
EndChar

StartChar: bracketleft
Encoding: 91 91 31
AltUni2: 00ef1b.ffffffff.0 00ee1b.ffffffff.0 00e15b.ffffffff.0 00e05b.ffffffff.0
Width: 2048
Flags: W
LayerCount: 2
Fore
SplineSet
512 0 m 1,0,-1
 512 1792 l 1,1,-1
 1536 1792 l 1,2,-1
 1536 1536 l 1,3,-1
 1024 1536 l 1,4,-1
 1024 256 l 1,5,-1
 1536 256 l 1,6,-1
 1536 0 l 1,7,-1
 512 0 l 1,0,-1
EndSplineSet
Validated: 1
EndChar

StartChar: sterling
Encoding: 163 163 32
AltUni2: 00ef1c.ffffffff.0 00ee1c.ffffffff.0 00e15c.ffffffff.0 00e05c.ffffffff.0
Width: 2048
Flags: W
LayerCount: 2
Fore
SplineSet
0 0 m 1,0,-1
 0 256 l 1,1,-1
 256 256 l 1,2,-1
 256 512 l 1,3,-1
 512 512 l 1,4,-1
 512 768 l 1,5,-1
 256 768 l 1,6,-1
 256 1024 l 1,7,-1
 512 1024 l 1,8,-1
 512 1280 l 1,9,-1
 768 1280 l 1,10,-1
 768 1536 l 1,11,-1
 1024 1536 l 1,12,-1
 1024 1792 l 1,13,-1
 1536 1792 l 1,14,-1
 1536 1536 l 1,15,-1
 1792 1536 l 1,16,-1
 1792 1280 l 1,17,-1
 1536 1280 l 1,18,-1
 1536 1536 l 1,19,-1
 1024 1536 l 1,20,-1
 1024 1024 l 1,21,-1
 1536 1024 l 1,22,-1
 1536 768 l 1,23,-1
 1024 768 l 1,24,-1
 1024 512 l 1,25,-1
 768 512 l 1,26,-1
 768 256 l 1,27,-1
 1536 256 l 1,28,-1
 1536 512 l 1,29,-1
 1792 512 l 1,30,-1
 1792 256 l 1,31,-1
 1536 256 l 1,32,-1
 1536 0 l 1,33,-1
 0 0 l 1,0,-1
EndSplineSet
Validated: 5
EndChar

StartChar: arrowup
Encoding: 8593 8593 34
AltUni2: 00ef1e.ffffffff.0 00ee1e.ffffffff.0 00e15e.ffffffff.0 00e05e.ffffffff.0
Width: 2048
Flags: W
LayerCount: 2
Fore
SplineSet
768 -256 m 1,0,-1
 768 768 l 1,1,-1
 256 768 l 1,2,-1
 256 1024 l 1,3,-1
 512 1024 l 1,4,-1
 512 1280 l 1,5,-1
 768 1280 l 1,6,-1
 768 1536 l 1,7,-1
 1280 1536 l 1,8,-1
 1280 1280 l 1,9,-1
 1536 1280 l 1,10,-1
 1536 1024 l 1,11,-1
 1792 1024 l 1,12,-1
 1792 768 l 1,13,-1
 1280 768 l 1,14,-1
 1280 -256 l 1,15,-1
 768 -256 l 1,0,-1
EndSplineSet
Validated: 1
EndChar

StartChar: exclam
Encoding: 33 33 36
AltUni2: 00ef21.ffffffff.0 00ee21.ffffffff.0 00e121.ffffffff.0 00e021.ffffffff.0
Width: 2048
Flags: W
LayerCount: 2
Fore
SplineSet
768 768 m 1,0,-1
 768 1792 l 1,1,-1
 1280 1792 l 1,2,-1
 1280 768 l 1,3,-1
 768 768 l 1,0,-1
768 0 m 1,4,-1
 768 256 l 1,5,-1
 1280 256 l 1,6,-1
 1280 0 l 1,7,-1
 768 0 l 1,4,-1
EndSplineSet
Validated: 1
EndChar

StartChar: quotedbl
Encoding: 34 34 37
AltUni2: 00ef22.ffffffff.0 00ee22.ffffffff.0 00e122.ffffffff.0 00e022.ffffffff.0 00201d.ffffffff.0 00201c.ffffffff.0 000095.ffffffff.0 000094.ffffffff.0
Width: 2048
Flags: W
LayerCount: 2
Fore
SplineSet
256 1024 m 1,0,-1
 256 1792 l 1,1,-1
 768 1792 l 1,2,-1
 768 1024 l 1,3,-1
 256 1024 l 1,0,-1
1280 1024 m 1,4,-1
 1280 1792 l 1,5,-1
 1792 1792 l 1,6,-1
 1792 1024 l 1,7,-1
 1280 1024 l 1,4,-1
EndSplineSet
Validated: 1
EndChar

StartChar: numbersign
Encoding: 35 35 38
AltUni2: 00ef23.ffffffff.0 00ee23.ffffffff.0 00e123.ffffffff.0 00e023.ffffffff.0
Width: 2048
Flags: W
LayerCount: 2
Fore
SplineSet
256 0 m 1,0,-1
 256 512 l 1,1,-1
 0 512 l 1,2,-1
 0 768 l 1,3,-1
 256 768 l 1,4,-1
 256 1024 l 1,5,-1
 0 1024 l 1,6,-1
 0 1280 l 1,7,-1
 256 1280 l 1,8,-1
 256 1792 l 1,9,-1
 768 1792 l 1,10,-1
 768 1280 l 1,11,-1
 1280 1280 l 1,12,-1
 1280 1792 l 1,13,-1
 1792 1792 l 1,14,-1
 1792 1280 l 1,15,-1
 2048 1280 l 1,16,-1
 2048 1024 l 1,17,-1
 1792 1024 l 1,18,-1
 1792 768 l 1,19,-1
 2048 768 l 1,20,-1
 2048 512 l 1,21,-1
 1792 512 l 1,22,-1
 1792 0 l 1,23,-1
 1280 0 l 1,24,-1
 1280 512 l 1,25,-1
 768 512 l 1,26,-1
 768 0 l 1,27,-1
 256 0 l 1,0,-1
768 768 m 1,28,-1
 1280 768 l 1,29,-1
 1280 1024 l 1,30,-1
 768 1024 l 1,31,-1
 768 768 l 1,28,-1
EndSplineSet
Validated: 1
EndChar

StartChar: dollar
Encoding: 36 36 39
AltUni2: 00ef24.ffffffff.0 00ee24.ffffffff.0 00e124.ffffffff.0 00e024.ffffffff.0
Width: 2048
Flags: W
LayerCount: 2
Fore
SplineSet
256 256 m 1,0,-1
 256 512 l 1,1,-1
 1280 512 l 1,2,-1
 1280 768 l 1,3,-1
 512 768 l 1,4,-1
 512 1024 l 1,5,-1
 256 1024 l 1,6,-1
 256 1280 l 1,7,-1
 512 1280 l 1,8,-1
 512 1536 l 1,9,-1
 768 1536 l 1,10,-1
 768 1792 l 1,11,-1
 1280 1792 l 1,12,-1
 1280 1536 l 1,13,-1
 1792 1536 l 1,14,-1
 1792 1280 l 1,15,-1
 768 1280 l 1,16,-1
 768 1024 l 1,17,-1
 1536 1024 l 1,18,-1
 1536 768 l 1,19,-1
 1792 768 l 1,20,-1
 1792 512 l 1,21,-1
 1536 512 l 1,22,-1
 1536 256 l 1,23,-1
 1280 256 l 1,24,-1
 1280 0 l 1,25,-1
 768 0 l 1,26,-1
 768 256 l 1,27,-1
 256 256 l 1,0,-1
EndSplineSet
Validated: 1
EndChar

StartChar: percent
Encoding: 37 37 40
AltUni2: 00ef25.ffffffff.0 00ee25.ffffffff.0 00e125.ffffffff.0 00e025.ffffffff.0
Width: 2048
Flags: W
LayerCount: 2
Fore
SplineSet
256 0 m 1,0,-1
 256 512 l 1,1,-1
 512 512 l 1,2,-1
 512 768 l 1,3,-1
 768 768 l 1,4,-1
 768 1024 l 1,5,-1
 1024 1024 l 1,6,-1
 1024 1280 l 1,7,-1
 1280 1280 l 1,8,-1
 1280 1536 l 1,9,-1
 1536 1536 l 1,10,-1
 1536 1792 l 1,11,-1
 1792 1792 l 1,12,-1
 1792 1280 l 1,13,-1
 1536 1280 l 1,14,-1
 1536 1024 l 1,15,-1
 1280 1024 l 1,16,-1
 1280 768 l 1,17,-1
 1024 768 l 1,18,-1
 1024 512 l 1,19,-1
 768 512 l 1,20,-1
 768 256 l 1,21,-1
 512 256 l 1,22,-1
 512 0 l 1,23,-1
 256 0 l 1,0,-1
256 1280 m 1,24,-1
 256 1792 l 1,25,-1
 768 1792 l 1,26,-1
 768 1280 l 1,27,-1
 256 1280 l 1,24,-1
1280 0 m 1,28,-1
 1280 512 l 1,29,-1
 1792 512 l 1,30,-1
 1792 0 l 1,31,-1
 1280 0 l 1,28,-1
EndSplineSet
Validated: 1
EndChar

StartChar: ampersand
Encoding: 38 38 41
AltUni2: 00ef26.ffffffff.0 00ee26.ffffffff.0 00e126.ffffffff.0 00e026.ffffffff.0
Width: 2048
Flags: W
LayerCount: 2
Fore
SplineSet
512 0 m 1,0,-1
 512 256 l 1,1,-1
 256 256 l 1,2,-1
 256 768 l 1,3,-1
 512 768 l 1,4,-1
 512 1280 l 1,5,-1
 256 1280 l 1,6,-1
 256 1536 l 1,7,-1
 512 1536 l 1,8,-1
 512 1792 l 1,9,-1
 1536 1792 l 1,10,-1
 1536 1536 l 1,11,-1
 1792 1536 l 1,12,-1
 1792 1280 l 1,13,-1
 1536 1280 l 1,14,-1
 1536 1024 l 1,15,-1
 1280 1024 l 1,16,-1
 1280 768 l 1,17,-1
 768 768 l 1,18,-1
 768 256 l 1,19,-1
 1280 256 l 1,20,-1
 1280 768 l 1,21,-1
 2048 768 l 1,22,-1
 2048 512 l 1,23,-1
 1792 512 l 1,24,-1
 1792 256 l 1,25,-1
 2048 256 l 1,26,-1
 2048 0 l 1,27,-1
 512 0 l 1,0,-1
768 1280 m 1,28,-1
 1280 1280 l 1,29,-1
 1280 1536 l 1,30,-1
 768 1536 l 1,31,-1
 768 1280 l 1,28,-1
EndSplineSet
Validated: 5
EndChar

StartChar: quotesingle
Encoding: 39 39 42
AltUni2: 00ef27.ffffffff.0 00ee27.ffffffff.0 00e127.ffffffff.0 00e027.ffffffff.0 002019.ffffffff.0 002018.ffffffff.0 000092.ffffffff.0 000091.ffffffff.0
Width: 2048
Flags: W
LayerCount: 2
Fore
SplineSet
768 1024 m 1,0,-1
 768 1280 l 1,1,-1
 1024 1280 l 1,2,-1
 1024 1536 l 1,3,-1
 1280 1536 l 1,4,-1
 1280 1792 l 1,5,-1
 1792 1792 l 1,6,-1
 1792 1536 l 1,7,-1
 1536 1536 l 1,8,-1
 1536 1280 l 1,9,-1
 1280 1280 l 1,10,-1
 1280 1024 l 1,11,-1
 768 1024 l 1,0,-1
EndSplineSet
Validated: 1
EndChar

StartChar: parenleft
Encoding: 40 40 43
AltUni2: 00ef28.ffffffff.0 00ee28.ffffffff.0 00e128.ffffffff.0 00e028.ffffffff.0
Width: 2048
Flags: W
LayerCount: 2
Fore
SplineSet
1024 0 m 1,0,-1
 1024 256 l 1,1,-1
 768 256 l 1,2,-1
 768 512 l 1,3,-1
 512 512 l 1,4,-1
 512 1280 l 1,5,-1
 768 1280 l 1,6,-1
 768 1536 l 1,7,-1
 1024 1536 l 1,8,-1
 1024 1792 l 1,9,-1
 1536 1792 l 1,10,-1
 1536 1536 l 1,11,-1
 1280 1536 l 1,12,-1
 1280 1280 l 1,13,-1
 1024 1280 l 1,14,-1
 1024 512 l 1,15,-1
 1280 512 l 1,16,-1
 1280 256 l 1,17,-1
 1536 256 l 1,18,-1
 1536 0 l 1,19,-1
 1024 0 l 1,0,-1
EndSplineSet
Validated: 1
EndChar

StartChar: asterisk
Encoding: 42 42 45
AltUni2: 00ef2a.ffffffff.0 00ee2a.ffffffff.0 00e12a.ffffffff.0 00e02a.ffffffff.0
Width: 2048
Flags: W
LayerCount: 2
Fore
SplineSet
256 256 m 1,0,-1
 256 512 l 1,1,-1
 512 512 l 1,2,-1
 512 768 l 1,3,-1
 0 768 l 1,4,-1
 0 1024 l 1,5,-1
 512 1024 l 1,6,-1
 512 1280 l 1,7,-1
 256 1280 l 1,8,-1
 256 1536 l 1,9,-1
 768 1536 l 1,10,-1
 768 1280 l 1,11,-1
 1280 1280 l 1,12,-1
 1280 1536 l 1,13,-1
 1792 1536 l 1,14,-1
 1792 1280 l 1,15,-1
 1536 1280 l 1,16,-1
 1536 1024 l 1,17,-1
 2048 1024 l 1,18,-1
 2048 768 l 1,19,-1
 1536 768 l 1,20,-1
 1536 512 l 1,21,-1
 1792 512 l 1,22,-1
 1792 256 l 1,23,-1
 1280 256 l 1,24,-1
 1280 512 l 1,25,-1
 768 512 l 1,26,-1
 768 256 l 1,27,-1
 256 256 l 1,0,-1
EndSplineSet
Validated: 1
EndChar

StartChar: plus
Encoding: 43 43 46
AltUni2: 00ef2b.ffffffff.0 00ee2b.ffffffff.0 00e12b.ffffffff.0 00e02b.ffffffff.0
Width: 2048
Flags: W
LayerCount: 2
Fore
SplineSet
768 256 m 1,0,-1
 768 768 l 1,1,-1
 256 768 l 1,2,-1
 256 1024 l 1,3,-1
 768 1024 l 1,4,-1
 768 1536 l 1,5,-1
 1280 1536 l 1,6,-1
 1280 1024 l 1,7,-1
 1792 1024 l 1,8,-1
 1792 768 l 1,9,-1
 1280 768 l 1,10,-1
 1280 256 l 1,11,-1
 768 256 l 1,0,-1
EndSplineSet
Validated: 1
EndChar

StartChar: comma
Encoding: 44 44 47
AltUni2: 00ef2c.ffffffff.0 00ee2c.ffffffff.0 00e12c.ffffffff.0 00e02c.ffffffff.0
Width: 2048
Flags: W
LayerCount: 2
Fore
SplineSet
512 -256 m 1,0,-1
 512 0 l 1,1,-1
 768 0 l 1,2,-1
 768 512 l 1,3,-1
 1280 512 l 1,4,-1
 1280 0 l 1,5,-1
 1024 0 l 1,6,-1
 1024 -256 l 1,7,-1
 512 -256 l 1,0,-1
EndSplineSet
Validated: 1
EndChar

StartChar: hyphen
Encoding: 45 45 48
AltUni2: 00ef2d.ffffffff.0 00ee2d.ffffffff.0 00e12d.ffffffff.0 00e02d.ffffffff.0 002011.ffffffff.0 002010.ffffffff.0
Width: 2048
Flags: W
LayerCount: 2
Fore
SplineSet
256 768 m 1,0,-1
 256 1024 l 1,1,-1
 1792 1024 l 1,2,-1
 1792 768 l 1,3,-1
 256 768 l 1,0,-1
EndSplineSet
Validated: 1
EndChar

StartChar: period
Encoding: 46 46 49
AltUni2: 00ef2e.ffffffff.0 00ee2e.ffffffff.0 00e12e.ffffffff.0 00e02e.ffffffff.0
Width: 2048
Flags: W
LayerCount: 2
Fore
SplineSet
768 0 m 1,0,-1
 768 512 l 1,1,-1
 1280 512 l 1,2,-1
 1280 0 l 1,3,-1
 768 0 l 1,0,-1
EndSplineSet
Validated: 1
EndChar

StartChar: slash
Encoding: 47 47 50
AltUni2: 00ef2f.ffffffff.0 00ee2f.ffffffff.0 00e12f.ffffffff.0 00e02f.ffffffff.0
Width: 2048
Flags: W
LayerCount: 2
Fore
SplineSet
256 0 m 1,0,-1
 256 256 l 1,1,-1
 512 256 l 1,2,-1
 512 512 l 1,3,-1
 768 512 l 1,4,-1
 768 768 l 1,5,-1
 1024 768 l 1,6,-1
 1024 1024 l 1,7,-1
 1280 1024 l 1,8,-1
 1280 1280 l 1,9,-1
 1536 1280 l 1,10,-1
 1536 1536 l 1,11,-1
 2048 1536 l 1,12,-1
 2048 1280 l 1,13,-1
 1792 1280 l 1,14,-1
 1792 1024 l 1,15,-1
 1536 1024 l 1,16,-1
 1536 768 l 1,17,-1
 1280 768 l 1,18,-1
 1280 512 l 1,19,-1
 1024 512 l 1,20,-1
 1024 256 l 1,21,-1
 768 256 l 1,22,-1
 768 0 l 1,23,-1
 256 0 l 1,0,-1
EndSplineSet
Validated: 1
EndChar

StartChar: zero
Encoding: 48 48 51
AltUni2: 00ef30.ffffffff.0 00ee30.ffffffff.0 00e130.ffffffff.0 00e030.ffffffff.0
Width: 2048
Flags: W
LayerCount: 2
Fore
SplineSet
512 0 m 1,0,-1
 512 256 l 1,1,-1
 256 256 l 1,2,-1
 256 1536 l 1,3,-1
 512 1536 l 1,4,-1
 512 1792 l 1,5,-1
 1536 1792 l 1,6,-1
 1536 1536 l 1,7,-1
 1792 1536 l 1,8,-1
 1792 256 l 1,9,-1
 1536 256 l 1,10,-1
 1536 0 l 1,11,-1
 512 0 l 1,0,-1
768 256 m 1,12,-1
 1280 256 l 1,13,-1
 1280 1024 l 1,14,-1
 1024 1024 l 1,15,-1
 1024 1280 l 1,16,-1
 1280 1280 l 1,17,-1
 1280 1536 l 1,18,-1
 768 1536 l 1,19,-1
 768 1024 l 1,20,-1
 1024 1024 l 1,21,-1
 1024 768 l 1,22,-1
 768 768 l 1,23,-1
 768 256 l 1,12,-1
EndSplineSet
Validated: 5
EndChar

StartChar: one
Encoding: 49 49 52
AltUni2: 00ef31.ffffffff.0 00ee31.ffffffff.0 00e131.ffffffff.0 00e031.ffffffff.0
Width: 2048
Flags: W
LayerCount: 2
Fore
SplineSet
256 0 m 1,0,-1
 256 256 l 1,1,-1
 768 256 l 1,2,-1
 768 1024 l 1,3,-1
 512 1024 l 1,4,-1
 512 1280 l 1,5,-1
 768 1280 l 1,6,-1
 768 1792 l 1,7,-1
 1280 1792 l 1,8,-1
 1280 256 l 1,9,-1
 1792 256 l 1,10,-1
 1792 0 l 1,11,-1
 256 0 l 1,0,-1
EndSplineSet
Validated: 1
EndChar

StartChar: two
Encoding: 50 50 53
AltUni2: 00ef32.ffffffff.0 00ee32.ffffffff.0 00e132.ffffffff.0 00e032.ffffffff.0
Width: 2048
Flags: W
LayerCount: 2
Fore
SplineSet
256 0 m 1,0,-1
 256 512 l 1,1,-1
 512 512 l 1,2,-1
 512 768 l 1,3,-1
 1024 768 l 1,4,-1
 1024 1024 l 1,5,-1
 1280 1024 l 1,6,-1
 1280 1536 l 1,7,-1
 768 1536 l 1,8,-1
 768 1280 l 1,9,-1
 256 1280 l 1,10,-1
 256 1536 l 1,11,-1
 512 1536 l 1,12,-1
 512 1792 l 1,13,-1
 1536 1792 l 1,14,-1
 1536 1536 l 1,15,-1
 1792 1536 l 1,16,-1
 1792 1024 l 1,17,-1
 1536 1024 l 1,18,-1
 1536 768 l 1,19,-1
 1024 768 l 1,20,-1
 1024 512 l 1,21,-1
 768 513 l 1,22,-1
 768 256 l 1,23,-1
 1792 256 l 1,24,-1
 1792 0 l 1,25,-1
 256 0 l 1,0,-1
EndSplineSet
Validated: 5
EndChar

StartChar: three
Encoding: 51 51 54
AltUni2: 00ef33.ffffffff.0 00ee33.ffffffff.0 00e133.ffffffff.0 00e033.ffffffff.0
Width: 2048
Flags: W
LayerCount: 2
Fore
SplineSet
512 0 m 1,0,-1
 512 256 l 1,1,-1
 256 256 l 1,2,-1
 256 512 l 1,3,-1
 768 512 l 1,4,-1
 768 256 l 1,5,-1
 1280 256 l 1,6,-1
 1280 768 l 1,7,-1
 768 768 l 1,8,-1
 768 1024 l 1,9,-1
 1280 1024 l 1,10,-1
 1280 1536 l 1,11,-1
 768 1536 l 1,12,-1
 768 1280 l 1,13,-1
 256 1280 l 1,14,-1
 256 1536 l 1,15,-1
 512 1536 l 1,16,-1
 512 1792 l 1,17,-1
 1536 1792 l 1,18,-1
 1536 1536 l 1,19,-1
 1792 1536 l 1,20,-1
 1792 1024 l 1,21,-1
 1536 1024 l 1,22,-1
 1536 768 l 1,23,-1
 1792 768 l 1,24,-1
 1792 256 l 1,25,-1
 1536 256 l 1,26,-1
 1536 0 l 1,27,-1
 512 0 l 1,0,-1
EndSplineSet
Validated: 1
EndChar

StartChar: four
Encoding: 52 52 55
AltUni2: 00ef34.ffffffff.0 00ee34.ffffffff.0 00e134.ffffffff.0 00e034.ffffffff.0
Width: 2048
Flags: W
LayerCount: 2
Fore
SplineSet
1280 0 m 1,0,-1
 1280 512 l 1,1,-1
 256 512 l 1,2,-1
 256 1024 l 1,3,-1
 768 1024 l 1,4,-1
 768 768 l 1,5,-1
 1280 768 l 1,6,-1
 1280 1024 l 1,7,-1
 768 1024 l 1,8,-1
 768 1280 l 1,9,-1
 1024 1280 l 1,10,-1
 1024 1536 l 1,11,-1
 1280 1536 l 1,12,-1
 1280 1792 l 1,13,-1
 1792 1792 l 1,14,-1
 1792 768 l 1,15,-1
 2048 768 l 1,16,-1
 2048 512 l 1,17,-1
 1792 512 l 1,18,-1
 1792 0 l 1,19,-1
 1280 0 l 1,0,-1
EndSplineSet
Validated: 5
EndChar

StartChar: five
Encoding: 53 53 56
AltUni2: 00ef35.ffffffff.0 00ee35.ffffffff.0 00e135.ffffffff.0 00e035.ffffffff.0
Width: 2048
Flags: W
LayerCount: 2
Fore
SplineSet
512 0 m 1,0,-1
 512 256 l 1,1,-1
 256 256 l 1,2,-1
 256 512 l 1,3,-1
 768 512 l 1,4,-1
 768 256 l 1,5,-1
 1280 256 l 1,6,-1
 1280 1024 l 1,7,-1
 256 1024 l 1,8,-1
 256 1792 l 1,9,-1
 1792 1792 l 1,10,-1
 1792 1536 l 1,11,-1
 768 1536 l 1,12,-1
 768 1280 l 1,13,-1
 1536 1280 l 1,14,-1
 1536 1024 l 1,15,-1
 1792 1024 l 1,16,-1
 1792 256 l 1,17,-1
 1536 256 l 1,18,-1
 1536 0 l 1,19,-1
 512 0 l 1,0,-1
EndSplineSet
Validated: 1
EndChar

StartChar: six
Encoding: 54 54 57
AltUni2: 00ef36.ffffffff.0 00ee36.ffffffff.0 00e136.ffffffff.0 00e036.ffffffff.0
Width: 2048
Flags: W
LayerCount: 2
Fore
SplineSet
768 256 m 1,0,-1
 1280 256 l 1,1,-1
 1280 768 l 1,2,-1
 768 768 l 1,3,-1
 768 256 l 1,0,-1
512 0 m 1,4,-1
 512 256 l 1,5,-1
 256 256 l 1,6,-1
 256 1536 l 1,7,-1
 512 1536 l 1,8,-1
 512 1792 l 1,9,-1
 1536 1792 l 1,10,-1
 1536 1536 l 1,11,-1
 1792 1536 l 1,12,-1
 1792 1280 l 1,13,-1
 1280 1280 l 1,14,-1
 1280 1536 l 1,15,-1
 768 1536 l 1,16,-1
 768 1024 l 1,17,-1
 1536 1024 l 1,18,-1
 1536 768 l 1,19,-1
 1792 768 l 1,20,-1
 1792 256 l 1,21,-1
 1536 256 l 1,22,-1
 1536 0 l 1,23,-1
 512 0 l 1,4,-1
EndSplineSet
Validated: 1
EndChar

StartChar: seven
Encoding: 55 55 58
AltUni2: 00ef37.ffffffff.0 00ee37.ffffffff.0 00e137.ffffffff.0 00e037.ffffffff.0
Width: 2048
Flags: W
LayerCount: 2
Fore
SplineSet
768 0 m 1,0,-1
 768 1024 l 1,1,-1
 1024 1024 l 1,2,-1
 1024 1280 l 1,3,-1
 1280 1280 l 1,4,-1
 1280 1536 l 1,5,-1
 768 1536 l 1,6,-1
 768 1280 l 1,7,-1
 256 1280 l 1,8,-1
 256 1792 l 1,9,-1
 1792 1792 l 1,10,-1
 1792 1280 l 1,11,-1
 1536 1280 l 1,12,-1
 1536 1024 l 1,13,-1
 1280 1024 l 1,14,-1
 1280 0 l 1,15,-1
 768 0 l 1,0,-1
EndSplineSet
Validated: 1
EndChar

StartChar: eight
Encoding: 56 56 59
AltUni2: 00ef38.ffffffff.0 00ee38.ffffffff.0 00e138.ffffffff.0 00e038.ffffffff.0
Width: 2048
Flags: W
LayerCount: 2
Fore
SplineSet
512 0 m 1,0,-1
 512 256 l 1,1,-1
 256 256 l 1,2,-1
 256 768 l 1,3,-1
 512 768 l 1,4,-1
 512 1024 l 1,5,-1
 256 1024 l 1,6,-1
 256 1536 l 1,7,-1
 512 1536 l 1,8,-1
 512 1792 l 1,9,-1
 1536 1792 l 1,10,-1
 1536 1536 l 1,11,-1
 1792 1536 l 1,12,-1
 1792 1024 l 1,13,-1
 1536 1024 l 1,14,-1
 1536 768 l 1,15,-1
 1792 768 l 1,16,-1
 1792 256 l 1,17,-1
 1536 256 l 1,18,-1
 1536 0 l 1,19,-1
 512 0 l 1,0,-1
768 1024 m 1,20,-1
 1280 1024 l 1,21,-1
 1280 1536 l 1,22,-1
 768 1536 l 1,23,-1
 768 1024 l 1,20,-1
768 256 m 1,24,-1
 1280 256 l 1,25,-1
 1280 768 l 1,26,-1
 768 768 l 1,27,-1
 768 256 l 1,24,-1
EndSplineSet
Validated: 1
EndChar

StartChar: nine
Encoding: 57 57 60
AltUni2: 00ef39.ffffffff.0 00ee39.ffffffff.0 00e139.ffffffff.0 00e039.ffffffff.0
Width: 2048
Flags: W
LayerCount: 2
Fore
SplineSet
512 0 m 1,0,-1
 512 256 l 1,1,-1
 256 256 l 1,2,-1
 256 512 l 1,3,-1
 768 512 l 1,4,-1
 768 256 l 1,5,-1
 1280 256 l 1,6,-1
 1280 768 l 1,7,-1
 512 768 l 1,8,-1
 512 1024 l 1,9,-1
 256 1024 l 1,10,-1
 256 1536 l 1,11,-1
 512 1536 l 1,12,-1
 512 1792 l 1,13,-1
 1536 1792 l 1,14,-1
 1536 1536 l 1,15,-1
 1792 1536 l 1,16,-1
 1792 256 l 1,17,-1
 1536 256 l 1,18,-1
 1536 0 l 1,19,-1
 512 0 l 1,0,-1
768 1024 m 1,20,-1
 1280 1024 l 1,21,-1
 1280 1536 l 1,22,-1
 768 1536 l 1,23,-1
 768 1024 l 1,20,-1
EndSplineSet
Validated: 1
EndChar

StartChar: colon
Encoding: 58 58 61
AltUni2: 00ef3a.ffffffff.0 00ee3a.ffffffff.0 00e13a.ffffffff.0 00e03a.ffffffff.0
Width: 2048
Flags: W
LayerCount: 2
Fore
SplineSet
768 256 m 1,0,-1
 768 512 l 1,1,-1
 1280 512 l 1,2,-1
 1280 256 l 1,3,-1
 768 256 l 1,0,-1
768 1024 m 1,4,-1
 768 1280 l 1,5,-1
 1280 1280 l 1,6,-1
 1280 1024 l 1,7,-1
 768 1024 l 1,4,-1
EndSplineSet
Validated: 1
EndChar

StartChar: semicolon
Encoding: 59 59 62
AltUni2: 00ef3b.ffffffff.0 00ee3b.ffffffff.0 00e13b.ffffffff.0 00e03b.ffffffff.0
Width: 2048
Flags: W
LayerCount: 2
Fore
SplineSet
512 -256 m 1,0,-1
 512 0 l 1,1,-1
 768 0 l 1,2,-1
 768 512 l 1,3,-1
 1280 512 l 1,4,-1
 1280 0 l 1,5,-1
 1024 0 l 1,6,-1
 1024 -256 l 1,7,-1
 512 -256 l 1,0,-1
768 1024 m 1,8,-1
 768 1280 l 1,9,-1
 1280 1280 l 1,10,-1
 1280 1024 l 1,11,-1
 768 1024 l 1,8,-1
EndSplineSet
Validated: 1
EndChar

StartChar: less
Encoding: 60 60 63
AltUni2: 00ef3c.ffffffff.0 00ee3c.ffffffff.0 00e13c.ffffffff.0 00e03c.ffffffff.0 003008.ffffffff.0 0027e8.ffffffff.0 002329.ffffffff.0
Width: 2048
Flags: W
LayerCount: 2
Fore
SplineSet
1024 0 m 1,0,-1
 1024 256 l 1,1,-1
 768 256 l 1,2,-1
 768 512 l 1,3,-1
 512 512 l 1,4,-1
 512 768 l 1,5,-1
 256 768 l 1,6,-1
 256 1024 l 1,7,-1
 512 1024 l 1,8,-1
 512 1280 l 1,9,-1
 768 1280 l 1,10,-1
 768 1536 l 1,11,-1
 1024 1536 l 1,12,-1
 1024 1792 l 1,13,-1
 1792 1792 l 1,14,-1
 1792 1536 l 1,15,-1
 1280 1536 l 1,16,-1
 1280 1280 l 1,17,-1
 1024 1280 l 1,18,-1
 1024 1024 l 1,19,-1
 768 1024 l 1,20,-1
 768 768 l 1,21,-1
 1024 768 l 1,22,-1
 1024 512 l 1,23,-1
 1280 512 l 1,24,-1
 1280 256 l 1,25,-1
 1792 256 l 1,26,-1
 1792 0 l 1,27,-1
 1024 0 l 1,0,-1
EndSplineSet
Validated: 1
EndChar

StartChar: question
Encoding: 63 63 66
AltUni2: 00ef3f.ffffffff.0 00ee3f.ffffffff.0 00e13f.ffffffff.0 00e03f.ffffffff.0
Width: 2048
Flags: W
LayerCount: 2
Fore
SplineSet
768 512 m 1,0,-1
 768 768 l 1,1,-1
 1024 768 l 1,2,-1
 1024 1024 l 1,3,-1
 1280 1024 l 1,4,-1
 1280 1536 l 1,5,-1
 768 1536 l 1,6,-1
 768 1280 l 1,7,-1
 256 1280 l 1,8,-1
 256 1536 l 1,9,-1
 512 1536 l 1,10,-1
 512 1792 l 1,11,-1
 1536 1792 l 1,12,-1
 1536 1536 l 1,13,-1
 1792 1536 l 1,14,-1
 1792 1024 l 1,15,-1
 1536 1024 l 1,16,-1
 1536 768 l 1,17,-1
 1280 768 l 1,18,-1
 1280 512 l 1,19,-1
 768 512 l 1,0,-1
768 0 m 1,20,-1
 768 256 l 1,21,-1
 1280 256 l 1,22,-1
 1280 0 l 1,23,-1
 768 0 l 1,20,-1
EndSplineSet
Validated: 1
EndChar

StartChar: SF100000
Encoding: 9472 9472 67
AltUni2: 00ef40.ffffffff.0 00ee43.ffffffff.0 00ee40.ffffffff.0 00e1c0.ffffffff.0 00e160.ffffffff.0 00e0c3.ffffffff.0 00e0c0.ffffffff.0 00e063.ffffffff.0 00e060.ffffffff.0 002501.ffffffff.0
Width: 2048
Flags: W
LayerCount: 2
Fore
SplineSet
0 512 m 1,0,-1
 0 1024 l 1,1,-1
 2048 1024 l 1,2,-1
 2048 512 l 1,3,-1
 0 512 l 1,0,-1
EndSplineSet
Validated: 1
EndChar

StartChar: spade
Encoding: 9824 9824 68
AltUni2: 00ee41.ffffffff.0 00e0c1.ffffffff.0 00e061.ffffffff.0
Width: 2048
Flags: W
LayerCount: 2
Fore
SplineSet
512 0 m 1,0,-1
 512 256 l 1,1,-1
 768 256 l 1,2,-1
 768 512 l 1,3,-1
 256 512 l 1,4,-1
 256 1024 l 1,5,-1
 512 1024 l 1,6,-1
 512 1280 l 1,7,-1
 768 1280 l 1,8,-1
 768 1536 l 1,9,-1
 1024 1536 l 1,10,-1
 1024 1792 l 1,11,-1
 1280 1792 l 1,12,-1
 1280 1536 l 1,13,-1
 1536 1536 l 1,14,-1
 1536 1280 l 1,15,-1
 1792 1280 l 1,16,-1
 1792 1024 l 1,17,-1
 2048 1024 l 1,18,-1
 2048 512 l 1,19,-1
 1536 512 l 1,20,-1
 1536 256 l 1,21,-1
 1792 256 l 1,22,-1
 1792 0 l 1,23,-1
 512 0 l 1,0,-1
EndSplineSet
Validated: 1
EndChar

StartChar: bar
Encoding: 124 124 69
AltUni2: 00ef5d.ffffffff.0 00ee5d.ffffffff.0 00ee42.ffffffff.0 00e1dd.ffffffff.0 00e17d.ffffffff.0 00e0dd.ffffffff.0 00e0c2.ffffffff.0 00e07d.ffffffff.0 00e062.ffffffff.0 002503.ffffffff.0 002502.ffffffff.0
Width: 2048
Flags: W
LayerCount: 2
Fore
SplineSet
768 -256 m 1,0,-1
 768 1792 l 1,1,-1
 1280 1792 l 1,2,-1
 1280 -256 l 1,3,-1
 768 -256 l 1,0,-1
EndSplineSet
Validated: 1
EndChar

StartChar: uni256E
Encoding: 9582 9582 75
AltUni2: 00ee49.ffffffff.0 00e0c9.ffffffff.0 00e069.ffffffff.0
Width: 2048
Flags: W
LayerCount: 2
Fore
SplineSet
768 -256 m 1,0,-1
 768 256 l 1,1,-1
 512 256 l 1,2,-1
 512 512 l 1,3,-1
 0 512 l 1,4,-1
 0 1024 l 1,5,-1
 768 1024 l 1,6,-1
 768 768 l 1,7,-1
 1024 768 l 1,8,-1
 1024 512 l 1,9,-1
 1280 512 l 1,10,-1
 1280 -256 l 1,11,-1
 768 -256 l 1,0,-1
EndSplineSet
Validated: 1
EndChar

StartChar: uniEE4C
Encoding: 57452 57452 78
AltUni2: 00ee4c.ffffffff.0 00e0cc.ffffffff.0
Width: 2048
Flags: W
LayerCount: 2
Fore
SplineSet
0 -256 m 1,0,-1
 0 1792 l 1,1,-1
 512 1792 l 1,2,-1
 512 256 l 1,3,-1
 2048 256 l 1,4,-1
 2048 -256 l 1,5,-1
 0 -256 l 1,0,-1
EndSplineSet
Validated: 1
EndChar

StartChar: uni2572
Encoding: 9586 9586 79
AltUni2: 00ee4d.ffffffff.0 00e0cd.ffffffff.0 00e06d.ffffffff.0
Width: 2048
Flags: W
LayerCount: 2
Fore
SplineSet
1536 -256 m 1,0,-1
 1536 0 l 1,1,-1
 1280 0 l 1,2,-1
 1280 256 l 1,3,-1
 1024 256 l 1,4,-1
 1024 512 l 1,5,-1
 768 512 l 1,6,-1
 768 768 l 1,7,-1
 512 768 l 1,8,-1
 512 1024 l 1,9,-1
 256 1024 l 1,10,-1
 256 1280 l 1,11,-1
 0 1280 l 1,12,-1
 0 1792 l 1,13,-1
 512 1792 l 1,14,-1
 512 1536 l 1,15,-1
 768 1536 l 1,16,-1
 768 1280 l 1,17,-1
 1024 1280 l 1,18,-1
 1024 1024 l 1,19,-1
 1280 1024 l 1,20,-1
 1280 768 l 1,21,-1
 1536 768 l 1,22,-1
 1536 512 l 1,23,-1
 1792 512 l 1,24,-1
 1792 256 l 1,25,-1
 2048 256 l 1,26,-1
 2048 -256 l 1,27,-1
 1536 -256 l 1,0,-1
EndSplineSet
Validated: 1
EndChar

StartChar: periodcentered
Encoding: 183 183 83
AltUni2: 00ee51.ffffffff.0 00e0d1.ffffffff.0 00e071.ffffffff.0 0025cf.ffffffff.0 002219.ffffffff.0 002022.ffffffff.0
Width: 2048
Flags: W
LayerCount: 2
Fore
SplineSet
512 0 m 1,0,-1
 512 256 l 1,1,-1
 256 256 l 1,2,-1
 256 1280 l 1,3,-1
 512 1280 l 1,4,-1
 512 1536 l 1,5,-1
 1536 1536 l 1,6,-1
 1536 1280 l 1,7,-1
 1792 1280 l 1,8,-1
 1792 256 l 1,9,-1
 1536 256 l 1,10,-1
 1536 0 l 1,11,-1
 512 0 l 1,0,-1
EndSplineSet
Validated: 1
EndChar

StartChar: heart
Encoding: 9829 9829 85
AltUni2: 00ee53.ffffffff.0 00e0d3.ffffffff.0 00e073.ffffffff.0 002764.ffffffff.0
Width: 2048
Flags: W
LayerCount: 2
Fore
SplineSet
1024 0 m 1,0,-1
 1024 256 l 1,1,-1
 768 256 l 1,2,-1
 768 512 l 1,3,-1
 512 512 l 1,4,-1
 512 768 l 1,5,-1
 256 768 l 1,6,-1
 256 1536 l 1,7,-1
 512 1536 l 1,8,-1
 512 1792 l 1,9,-1
 1024 1792 l 1,10,-1
 1024 1536 l 1,11,-1
 1280 1536 l 1,12,-1
 1280 1792 l 1,13,-1
 1792 1792 l 1,14,-1
 1792 1536 l 1,15,-1
 2048 1536 l 1,16,-1
 2048 768 l 1,17,-1
 1792 768 l 1,18,-1
 1792 512 l 1,19,-1
 1536 512 l 1,20,-1
 1536 256 l 1,21,-1
 1280 256 l 1,22,-1
 1280 0 l 1,23,-1
 1024 0 l 1,0,-1
EndSplineSet
Validated: 1
EndChar

StartChar: uni2573
Encoding: 9587 9587 88
AltUni2: 00ee56.ffffffff.0 00e0d6.ffffffff.0 00e076.ffffffff.0
Width: 2048
Flags: W
LayerCount: 2
Fore
SplineSet
0 -256 m 1,0,-1
 0 256 l 1,1,-1
 256 256 l 1,2,-1
 256 512 l 1,3,-1
 512 512 l 1,4,-1
 512 1024 l 1,5,-1
 256 1024 l 1,6,-1
 256 1280 l 1,7,-1
 0 1280 l 1,8,-1
 0 1792 l 1,9,-1
 512 1792 l 1,10,-1
 512 1536 l 1,11,-1
 768 1536 l 1,12,-1
 768 1280 l 1,13,-1
 1280 1280 l 1,14,-1
 1280 1536 l 1,15,-1
 1536 1536 l 1,16,-1
 1536 1792 l 1,17,-1
 2048 1792 l 1,18,-1
 2048 1280 l 1,19,-1
 1792 1280 l 1,20,-1
 1792 1024 l 1,21,-1
 1536 1024 l 1,22,-1
 1536 512 l 1,23,-1
 1792 512 l 1,24,-1
 1792 256 l 1,25,-1
 2048 256 l 1,26,-1
 2048 -256 l 1,27,-1
 1536 -256 l 1,28,-1
 1536 0 l 1,29,-1
 1280 0 l 1,30,-1
 1280 256 l 1,31,-1
 768 256 l 1,32,-1
 768 0 l 1,33,-1
 512 0 l 1,34,-1
 512 -256 l 1,35,-1
 0 -256 l 1,0,-1
EndSplineSet
Validated: 1
EndChar

StartChar: circle
Encoding: 9675 9675 89
AltUni2: 00ee57.ffffffff.0 00e0d7.ffffffff.0 00e077.ffffffff.0 0025ef.ffffffff.0 0025e6.ffffffff.0
Width: 2048
Flags: W
LayerCount: 2
Fore
SplineSet
512 0 m 1,0,-1
 512 256 l 1,1,-1
 256 256 l 1,2,-1
 256 1280 l 1,3,-1
 512 1280 l 1,4,-1
 512 1536 l 1,5,-1
 1536 1536 l 1,6,-1
 1536 1280 l 1,7,-1
 1792 1280 l 1,8,-1
 1792 256 l 1,9,-1
 1536 256 l 1,10,-1
 1536 0 l 1,11,-1
 512 0 l 1,0,-1
768 512 m 1,12,-1
 1280 512 l 1,13,-1
 1280 1024 l 1,14,-1
 768 1024 l 1,15,-1
 768 512 l 1,12,-1
EndSplineSet
Validated: 1
EndChar

StartChar: club
Encoding: 9827 9827 90
AltUni2: 00ee58.ffffffff.0 00e0d8.ffffffff.0 00e078.ffffffff.0
Width: 2048
Flags: W
LayerCount: 2
Fore
SplineSet
512 0 m 1,0,-1
 512 256 l 1,1,-1
 768 256 l 1,2,-1
 768 768 l 1,3,-1
 256 768 l 1,4,-1
 256 1280 l 1,5,-1
 768 1280 l 1,6,-1
 768 1792 l 1,7,-1
 1280 1792 l 1,8,-1
 1280 1280 l 1,9,-1
 768 1280 l 1,10,-1
 768 768 l 1,11,-1
 1280 768 l 1,12,-1
 1280 1280 l 1,13,-1
 1792 1280 l 1,14,-1
 1792 768 l 1,15,-1
 1280 768 l 1,16,-1
 1280 256 l 1,17,-1
 1536 256 l 1,18,-1
 1536 0 l 1,19,-1
 512 0 l 1,0,-1
EndSplineSet
Validated: 5
EndChar

StartChar: uni25C6
Encoding: 9670 9670 92
AltUni2: 00ee5a.ffffffff.0 00e0da.ffffffff.0 00e07a.ffffffff.0 002666.ffffffff.0
Width: 2048
Flags: W
LayerCount: 2
Fore
SplineSet
1024 0 m 1,0,-1
 1024 256 l 1,1,-1
 768 256 l 1,2,-1
 768 512 l 1,3,-1
 512 512 l 1,4,-1
 512 768 l 1,5,-1
 256 768 l 1,6,-1
 256 1024 l 1,7,-1
 512 1024 l 1,8,-1
 512 1280 l 1,9,-1
 768 1280 l 1,10,-1
 768 1536 l 1,11,-1
 1024 1536 l 1,12,-1
 1024 1792 l 1,13,-1
 1280 1792 l 1,14,-1
 1280 1536 l 1,15,-1
 1536 1536 l 1,16,-1
 1536 1280 l 1,17,-1
 1792 1280 l 1,18,-1
 1792 1024 l 1,19,-1
 2048 1024 l 1,20,-1
 2048 768 l 1,21,-1
 1792 768 l 1,22,-1
 1792 512 l 1,23,-1
 1536 512 l 1,24,-1
 1536 256 l 1,25,-1
 1280 256 l 1,26,-1
 1280 0 l 1,27,-1
 1024 0 l 1,0,-1
EndSplineSet
Validated: 1
EndChar

StartChar: SF050000
Encoding: 9532 9532 93
AltUni2: 00ef5b.ffffffff.0 00ee5b.ffffffff.0 00e1db.ffffffff.0 00e17b.ffffffff.0 00e0db.ffffffff.0 00e07b.ffffffff.0 00254b.ffffffff.0
Width: 2048
Flags: W
LayerCount: 2
Fore
SplineSet
768 -256 m 1,0,-1
 768 512 l 1,1,-1
 0 512 l 1,2,-1
 0 1024 l 1,3,-1
 768 1024 l 1,4,-1
 768 1792 l 1,5,-1
 1280 1792 l 1,6,-1
 1280 1024 l 1,7,-1
 2048 1024 l 1,8,-1
 2048 512 l 1,9,-1
 1280 512 l 1,10,-1
 1280 -256 l 1,11,-1
 768 -256 l 1,0,-1
EndSplineSet
Validated: 1
EndChar

StartChar: uniE17C
Encoding: 57468 57468 94
AltUni2: 00ef5c.ffffffff.0 00ee5c.ffffffff.0 00e1dc.ffffffff.0 00e17c.ffffffff.0 00e0dc.ffffffff.0
Width: 2048
Flags: W
LayerCount: 2
Fore
SplineSet
512 -256 m 1,0,-1
 512 256 l 1,1,-1
 0 256 l 1,2,-1
 0 768 l 1,3,-1
 512 768 l 1,4,-1
 512 1280 l 1,5,-1
 0 1280 l 1,6,-1
 0 1792 l 1,7,-1
 512 1792 l 1,8,-1
 512 1280 l 1,9,-1
 1024 1280 l 1,10,-1
 1024 768 l 1,11,-1
 512 768 l 1,12,-1
 512 256 l 1,13,-1
 1024 256 l 1,14,-1
 1024 -256 l 1,15,-1
 512 -256 l 1,0,-1
EndSplineSet
Validated: 5
EndChar

StartChar: pi
Encoding: 960 960 95
AltUni2: 00ee5e.ffffffff.0 00e0ff.ffffffff.0 00e0de.ffffffff.0 00e07e.ffffffff.0
Width: 2048
Flags: W
LayerCount: 2
Fore
SplineSet
512 0 m 1,0,-1
 512 512 l 1,1,-1
 256 512 l 1,2,-1
 256 768 l 1,3,-1
 512 768 l 1,4,-1
 512 1024 l 1,5,-1
 1536 1024 l 1,6,-1
 1536 1280 l 1,7,-1
 2048 1280 l 1,8,-1
 2048 1024 l 1,9,-1
 1792 1024 l 1,10,-1
 1792 0 l 1,11,-1
 1280 0 l 1,12,-1
 1280 768 l 1,13,-1
 1024 768 l 1,14,-1
 1024 0 l 1,15,-1
 512 0 l 1,0,-1
EndSplineSet
Validated: 1
EndChar

StartChar: uni25E5
Encoding: 9701 9701 96
AltUni2: 00ee5f.ffffffff.0 00e0df.ffffffff.0 00e07f.ffffffff.0
Width: 2048
Flags: W
LayerCount: 2
Fore
SplineSet
1792 -256 m 1,0,-1
 1792 0 l 1,1,-1
 1536 0 l 1,2,-1
 1536 256 l 1,3,-1
 1280 256 l 1,4,-1
 1280 512 l 1,5,-1
 1024 512 l 1,6,-1
 1024 768 l 1,7,-1
 768 768 l 1,8,-1
 768 1024 l 1,9,-1
 512 1024 l 1,10,-1
 512 1280 l 1,11,-1
 256 1280 l 1,12,-1
 256 1536 l 1,13,-1
 0 1536 l 1,14,-1
 0 1792 l 1,15,-1
 2048 1792 l 1,16,-1
 2048 -256 l 1,17,-1
 1792 -256 l 1,0,-1
EndSplineSet
Validated: 1
EndChar

StartChar: lfblock
Encoding: 9612 9612 97
AltUni2: 00ef61.ffffffff.0 00ee61.ffffffff.0 00e1e1.ffffffff.0 00e1a1.ffffffff.0 00e0e1.ffffffff.0 00e0a1.ffffffff.0
Width: 2048
Flags: W
LayerCount: 2
Fore
SplineSet
0 -256 m 1,0,-1
 0 1792 l 1,1,-1
 1024 1792 l 1,2,-1
 1024 -256 l 1,3,-1
 0 -256 l 1,0,-1
EndSplineSet
Validated: 1
EndChar

StartChar: dnblock
Encoding: 9604 9604 98
AltUni2: 00ef62.ffffffff.0 00ee62.ffffffff.0 00e1e2.ffffffff.0 00e1a2.ffffffff.0 00e0e2.ffffffff.0 00e0a2.ffffffff.0
Width: 2048
Flags: W
LayerCount: 2
Fore
SplineSet
0 -256 m 1,0,-1
 0 768 l 1,1,-1
 2048 768 l 1,2,-1
 2048 -256 l 1,3,-1
 0 -256 l 1,0,-1
EndSplineSet
Validated: 1
EndChar

StartChar: uni2594
Encoding: 9620 9620 99
AltUni2: 00ef63.ffffffff.0 00ee63.ffffffff.0 00e1e3.ffffffff.0 00e1a3.ffffffff.0 00e0e3.ffffffff.0 00e0a3.ffffffff.0
Width: 2048
Flags: W
LayerCount: 2
Fore
SplineSet
0 1536 m 1,0,-1
 0 1792 l 1,1,-1
 2048 1792 l 1,2,-1
 2048 1536 l 1,3,-1
 0 1536 l 1,0,-1
EndSplineSet
Validated: 1
EndChar

StartChar: SF080000
Encoding: 9500 9500 106
AltUni2: 00ef6b.ffffffff.0 00ee6b.ffffffff.0 00e1eb.ffffffff.0 00e1ab.ffffffff.0 00e0eb.ffffffff.0 00e0ab.ffffffff.0 002523.ffffffff.0
Width: 2048
Flags: W
LayerCount: 2
Fore
SplineSet
768 -256 m 1,0,-1
 768 1792 l 1,1,-1
 1280 1792 l 1,2,-1
 1280 1024 l 1,3,-1
 2048 1024 l 1,4,-1
 2048 512 l 1,5,-1
 1280 512 l 1,6,-1
 1280 -256 l 1,7,-1
 768 -256 l 1,0,-1
EndSplineSet
Validated: 1
EndChar

StartChar: uni2597
Encoding: 9623 9623 107
AltUni2: 00ef6c.ffffffff.0 00ee6c.ffffffff.0 00e1ec.ffffffff.0 00e1ac.ffffffff.0 00e0ec.ffffffff.0 00e0ac.ffffffff.0
Width: 2048
Flags: W
LayerCount: 2
Fore
SplineSet
1024 -256 m 1,0,-1
 1024 768 l 1,1,-1
 2048 768 l 1,2,-1
 2048 -256 l 1,3,-1
 1024 -256 l 1,0,-1
EndSplineSet
Validated: 1
EndChar

StartChar: SF020000
Encoding: 9492 9492 108
AltUni2: 00ef6d.ffffffff.0 00ee6d.ffffffff.0 00e1ed.ffffffff.0 00e1ad.ffffffff.0 00e0ed.ffffffff.0 00e0ad.ffffffff.0 002517.ffffffff.0
Width: 2048
Flags: W
LayerCount: 2
Fore
SplineSet
768 512 m 1,0,-1
 768 1792 l 1,1,-1
 1280 1792 l 1,2,-1
 1280 1024 l 1,3,-1
 2048 1024 l 1,4,-1
 2048 512 l 1,5,-1
 768 512 l 1,0,-1
EndSplineSet
Validated: 1
EndChar

StartChar: uni258D
Encoding: 9613 9613 115
AltUni2: 00ef75.ffffffff.0 00ee75.ffffffff.0 00e1f5.ffffffff.0 00e1b5.ffffffff.0 00e0f5.ffffffff.0 00e0b5.ffffffff.0
Width: 2048
Flags: W
LayerCount: 2
Fore
SplineSet
0 -256 m 1,0,-1
 0 1792 l 1,1,-1
 768 1792 l 1,2,-1
 768 -256 l 1,3,-1
 0 -256 l 1,0,-1
EndSplineSet
Validated: 1
EndChar

StartChar: uniEE78
Encoding: 57528 57528 118
AltUni2: 00ef78.ffffffff.0 00ee78.ffffffff.0 00e1f8.ffffffff.0 00e1b8.ffffffff.0 00e0f8.ffffffff.0
Width: 2048
Flags: W
LayerCount: 2
Fore
SplineSet
0 1024 m 1,0,-1
 0 1792 l 1,1,-1
 2048 1792 l 1,2,-1
 2048 1024 l 1,3,-1
 0 1024 l 1,0,-1
EndSplineSet
Validated: 1
EndChar

StartChar: uni2583
Encoding: 9603 9603 119
AltUni2: 00ef79.ffffffff.0 00ee79.ffffffff.0 00e1f9.ffffffff.0 00e1b9.ffffffff.0 00e0f9.ffffffff.0 00e0b9.ffffffff.0
Width: 2048
Flags: W
LayerCount: 2
Fore
SplineSet
0 -256 m 1,0,-1
 0 512 l 1,1,-1
 2048 512 l 1,2,-1
 2048 -256 l 1,3,-1
 0 -256 l 1,0,-1
EndSplineSet
Validated: 1
EndChar

StartChar: uniEE80
Encoding: 57920 57920 126
AltUni2: 00ef80.ffffffff.0 00ee80.ffffffff.0 00e340.ffffffff.0
Width: 2048
Flags: W
LayerCount: 2
Fore
SplineSet
0 -256 m 1,0,-1
 0 1792 l 1,1,-1
 512 1792 l 1,2,-1
 512 1536 l 1,3,-1
 256 1536 l 1,4,-1
 256 256 l 1,5,-1
 512 256 l 1,6,-1
 512 0 l 1,7,-1
 1536 0 l 1,8,-1
 1536 256 l 1,9,-1
 1792 256 l 1,10,-1
 1792 512 l 1,11,-1
 1280 512 l 1,12,-1
 1280 256 l 1,13,-1
 768 256 l 1,14,-1
 768 1536 l 1,15,-1
 1280 1536 l 1,16,-1
 1280 1280 l 1,17,-1
 1024 1280 l 1,18,-1
 1024 768 l 1,19,-1
 1792 768 l 1,20,-1
 1792 1536 l 1,21,-1
 1536 1536 l 1,22,-1
 1536 1792 l 1,23,-1
 2048 1792 l 1,24,-1
 2048 -256 l 1,25,-1
 0 -256 l 1,0,-1
EndSplineSet
Validated: 1
EndChar

StartChar: uniEE81
Encoding: 57921 57921 127
AltUni2: 00efc1.ffffffff.0 00ee81.ffffffff.0 00e3c1.ffffffff.0 00e361.ffffffff.0
Width: 2048
Flags: W
LayerCount: 2
Fore
SplineSet
0 -256 m 1,0,-1
 0 1792 l 1,1,-1
 768 1792 l 1,2,-1
 768 1536 l 1,3,-1
 512 1536 l 1,4,-1
 512 1280 l 1,5,-1
 256 1280 l 1,6,-1
 256 0 l 1,7,-1
 768 0 l 1,8,-1
 768 768 l 1,9,-1
 1280 768 l 1,10,-1
 1280 0 l 1,11,-1
 1792 0 l 1,12,-1
 1792 1280 l 1,13,-1
 1536 1280 l 1,14,-1
 1536 1536 l 1,15,-1
 1280 1536 l 1,16,-1
 1280 1792 l 1,17,-1
 2048 1792 l 1,18,-1
 2048 -256 l 1,19,-1
 0 -256 l 1,0,-1
768 1024 m 1,20,-1
 768 1280 l 1,21,-1
 1280 1280 l 1,22,-1
 1280 1024 l 1,23,-1
 768 1024 l 1,20,-1
EndSplineSet
Validated: 1
EndChar

StartChar: uniEE82
Encoding: 57922 57922 128
AltUni2: 00efc2.ffffffff.0 00ee82.ffffffff.0 00e3c2.ffffffff.0 00e362.ffffffff.0
Width: 2048
Flags: W
LayerCount: 2
Fore
SplineSet
768 256 m 1,0,-1
 768 768 l 1,1,-1
 1280 768 l 1,2,-1
 1280 256 l 1,3,-1
 768 256 l 1,0,-1
0 -256 m 1,4,-1
 0 1792 l 1,5,-1
 256 1792 l 1,6,-1
 256 0 l 1,7,-1
 1536 0 l 1,8,-1
 1536 256 l 1,9,-1
 1792 256 l 1,10,-1
 1792 768 l 1,11,-1
 1536 768 l 1,12,-1
 1536 1024 l 1,13,-1
 1792 1024 l 1,14,-1
 1792 1536 l 1,15,-1
 1536 1536 l 1,16,-1
 1536 1792 l 1,17,-1
 2048 1792 l 1,18,-1
 2048 -256 l 1,19,-1
 0 -256 l 1,4,-1
768 1024 m 1,20,-1
 768 1536 l 1,21,-1
 1280 1536 l 1,22,-1
 1280 1024 l 1,23,-1
 768 1024 l 1,20,-1
EndSplineSet
Validated: 1
EndChar

StartChar: uniEE83
Encoding: 57923 57923 129
AltUni2: 00efc3.ffffffff.0 00ee83.ffffffff.0 00e3c3.ffffffff.0 00e363.ffffffff.0
Width: 2048
Flags: W
LayerCount: 2
Fore
SplineSet
0 -256 m 1,0,-1
 0 1792 l 1,1,-1
 512 1792 l 1,2,-1
 512 1536 l 1,3,-1
 256 1536 l 1,4,-1
 256 256 l 1,5,-1
 512 256 l 1,6,-1
 512 0 l 1,7,-1
 1536 0 l 1,8,-1
 1536 256 l 1,9,-1
 1792 256 l 1,10,-1
 1792 512 l 1,11,-1
 1280 512 l 1,12,-1
 1280 256 l 1,13,-1
 768 256 l 1,14,-1
 768 1536 l 1,15,-1
 1280 1536 l 1,16,-1
 1280 1280 l 1,17,-1
 1792 1280 l 1,18,-1
 1792 1536 l 1,19,-1
 1536 1536 l 1,20,-1
 1536 1792 l 1,21,-1
 2048 1792 l 1,22,-1
 2048 -256 l 1,23,-1
 0 -256 l 1,0,-1
EndSplineSet
Validated: 1
EndChar

StartChar: uniEE84
Encoding: 57924 57924 130
AltUni2: 00efc4.ffffffff.0 00ee84.ffffffff.0 00e3c4.ffffffff.0 00e364.ffffffff.0
Width: 2048
Flags: W
LayerCount: 2
Fore
SplineSet
0 -256 m 1,0,-1
 0 1792 l 1,1,-1
 256 1792 l 1,2,-1
 256 0 l 1,3,-1
 1280 0 l 1,4,-1
 1280 256 l 1,5,-1
 1536 256 l 1,6,-1
 1536 512 l 1,7,-1
 1792 512 l 1,8,-1
 1792 1280 l 1,9,-1
 1536 1280 l 1,10,-1
 1536 1536 l 1,11,-1
 1280 1536 l 1,12,-1
 1280 1792 l 1,13,-1
 2048 1792 l 1,14,-1
 2048 -256 l 1,15,-1
 0 -256 l 1,0,-1
768 256 m 1,16,-1
 768 1536 l 1,17,-1
 1024 1536 l 1,18,-1
 1024 1280 l 1,19,-1
 1280 1280 l 1,20,-1
 1280 512 l 1,21,-1
 1024 512 l 1,22,-1
 1024 256 l 1,23,-1
 768 256 l 1,16,-1
EndSplineSet
Validated: 1
EndChar

StartChar: uniEE85
Encoding: 57925 57925 131
AltUni2: 00efc5.ffffffff.0 00ee85.ffffffff.0 00e3c5.ffffffff.0 00e365.ffffffff.0
Width: 2048
Flags: W
LayerCount: 2
Fore
SplineSet
2048 1792 m 1,0,-1
 2048 -256 l 1,1,-1
 0 -256 l 1,2,-1
 0 1792 l 1,3,-1
 256 1792 l 1,4,-1
 256 0 l 1,5,-1
 1792 0 l 1,6,-1
 1792 256 l 1,7,-1
 768 256 l 1,8,-1
 768 768 l 1,9,-1
 1280 768 l 1,10,-1
 1280 1024 l 1,11,-1
 768 1024 l 1,12,-1
 768 1536 l 1,13,-1
 1792 1536 l 1,14,-1
 1792 1792 l 1,15,-1
 2048 1792 l 1,0,-1
EndSplineSet
Validated: 1
EndChar

StartChar: uniEE86
Encoding: 57926 57926 132
AltUni2: 00efc6.ffffffff.0 00ee86.ffffffff.0 00e3c6.ffffffff.0 00e366.ffffffff.0
Width: 2048
Flags: W
LayerCount: 2
Fore
SplineSet
0 -256 m 1,0,-1
 0 1792 l 1,1,-1
 256 1792 l 1,2,-1
 256 0 l 1,3,-1
 768 0 l 1,4,-1
 768 768 l 1,5,-1
 1280 768 l 1,6,-1
 1280 1024 l 1,7,-1
 768 1024 l 1,8,-1
 768 1536 l 1,9,-1
 1792 1536 l 1,10,-1
 1792 1792 l 1,11,-1
 2048 1792 l 1,12,-1
 2048 -256 l 1,13,-1
 0 -256 l 1,0,-1
EndSplineSet
Validated: 1
EndChar

StartChar: uniEE87
Encoding: 57927 57927 133
AltUni2: 00efc7.ffffffff.0 00ee87.ffffffff.0 00e3c7.ffffffff.0 00e367.ffffffff.0
Width: 2048
Flags: W
LayerCount: 2
Fore
SplineSet
0 -256 m 1,0,-1
 0 1792 l 1,1,-1
 512 1792 l 1,2,-1
 512 1536 l 1,3,-1
 256 1536 l 1,4,-1
 256 256 l 1,5,-1
 512 256 l 1,6,-1
 512 0 l 1,7,-1
 1536 0 l 1,8,-1
 1536 256 l 1,9,-1
 1792 256 l 1,10,-1
 1792 1024 l 1,11,-1
 1024 1024 l 1,12,-1
 1024 768 l 1,13,-1
 1280 768 l 1,14,-1
 1280 256 l 1,15,-1
 768 256 l 1,16,-1
 768 1536 l 1,17,-1
 1280 1536 l 1,18,-1
 1280 1280 l 1,19,-1
 1792 1280 l 1,20,-1
 1792 1536 l 1,21,-1
 1536 1536 l 1,22,-1
 1536 1792 l 1,23,-1
 2048 1792 l 1,24,-1
 2048 -256 l 1,25,-1
 0 -256 l 1,0,-1
EndSplineSet
Validated: 1
EndChar

StartChar: uniEE88
Encoding: 57928 57928 134
AltUni2: 00efc8.ffffffff.0 00ee88.ffffffff.0 00e3c8.ffffffff.0 00e368.ffffffff.0
Width: 2048
Flags: W
LayerCount: 2
Fore
SplineSet
0 -256 m 1,0,-1
 0 1792 l 1,1,-1
 256 1792 l 1,2,-1
 256 0 l 1,3,-1
 768 0 l 1,4,-1
 768 768 l 1,5,-1
 1280 768 l 1,6,-1
 1280 0 l 1,7,-1
 1792 0 l 1,8,-1
 1792 1792 l 1,9,-1
 2048 1792 l 1,10,-1
 2048 -256 l 1,11,-1
 0 -256 l 1,0,-1
768 1024 m 1,12,-1
 768 1792 l 1,13,-1
 1280 1792 l 1,14,-1
 1280 1024 l 1,15,-1
 768 1024 l 1,12,-1
EndSplineSet
Validated: 1
EndChar

StartChar: uniEE89
Encoding: 57929 57929 135
AltUni2: 00efc9.ffffffff.0 00ee89.ffffffff.0 00e3c9.ffffffff.0 00e369.ffffffff.0
Width: 2048
Flags: W
LayerCount: 2
Fore
SplineSet
2048 1792 m 1,0,-1
 2048 -256 l 1,1,-1
 0 -256 l 1,2,-1
 0 1792 l 1,3,-1
 512 1792 l 1,4,-1
 512 1536 l 1,5,-1
 768 1536 l 1,6,-1
 768 256 l 1,7,-1
 512 256 l 1,8,-1
 512 0 l 1,9,-1
 1536 0 l 1,10,-1
 1536 256 l 1,11,-1
 1280 256 l 1,12,-1
 1280 1536 l 1,13,-1
 1536 1536 l 1,14,-1
 1536 1792 l 1,15,-1
 2048 1792 l 1,0,-1
EndSplineSet
Validated: 1
EndChar

StartChar: uniEE8A
Encoding: 57930 57930 136
AltUni2: 00efca.ffffffff.0 00ee8a.ffffffff.0 00e3ca.ffffffff.0 00e36a.ffffffff.0
Width: 2048
Flags: W
LayerCount: 2
Fore
SplineSet
0 -256 m 1,0,-1
 0 1792 l 1,1,-1
 768 1792 l 1,2,-1
 768 1536 l 1,3,-1
 1024 1536 l 1,4,-1
 1024 256 l 1,5,-1
 768 256 l 1,6,-1
 768 512 l 1,7,-1
 256 512 l 1,8,-1
 256 256 l 1,9,-1
 512 256 l 1,10,-1
 512 0 l 1,11,-1
 1280 0 l 1,12,-1
 1280 256 l 1,13,-1
 1536 256 l 1,14,-1
 1536 1536 l 1,15,-1
 1792 1536 l 1,16,-1
 1792 1792 l 1,17,-1
 2048 1792 l 1,18,-1
 2048 -256 l 1,19,-1
 0 -256 l 1,0,-1
EndSplineSet
Validated: 1
EndChar

StartChar: uniEE8B
Encoding: 57931 57931 137
AltUni2: 00efcb.ffffffff.0 00ee8b.ffffffff.0 00e3cb.ffffffff.0 00e36b.ffffffff.0
Width: 2048
Flags: W
LayerCount: 2
Fore
SplineSet
0 -256 m 1,0,-1
 0 1792 l 1,1,-1
 256 1792 l 1,2,-1
 256 0 l 1,3,-1
 768 0 l 1,4,-1
 768 512 l 1,5,-1
 1024 512 l 1,6,-1
 1024 256 l 1,7,-1
 1280 256 l 1,8,-1
 1280 0 l 1,9,-1
 1792 0 l 1,10,-1
 1792 256 l 1,11,-1
 1536 256 l 1,12,-1
 1536 512 l 1,13,-1
 1280 512 l 1,14,-1
 1280 768 l 1,15,-1
 1024 768 l 1,16,-1
 1024 1024 l 1,17,-1
 1280 1024 l 1,18,-1
 1280 1280 l 1,19,-1
 1536 1280 l 1,20,-1
 1536 1536 l 1,21,-1
 1792 1536 l 1,22,-1
 1792 1792 l 1,23,-1
 2048 1792 l 1,24,-1
 2048 -256 l 1,25,-1
 0 -256 l 1,0,-1
768 1280 m 1,26,-1
 768 1792 l 1,27,-1
 1280 1792 l 1,28,-1
 1280 1536 l 1,29,-1
 1024 1536 l 1,30,-1
 1024 1280 l 1,31,-1
 768 1280 l 1,26,-1
EndSplineSet
Validated: 1
EndChar

StartChar: uniEE8C
Encoding: 57932 57932 138
AltUni2: 00efcc.ffffffff.0 00ee8c.ffffffff.0 00e3cc.ffffffff.0 00e36c.ffffffff.0
Width: 2048
Flags: W
LayerCount: 2
Fore
SplineSet
2048 1792 m 1,0,-1
 2048 -256 l 1,1,-1
 0 -256 l 1,2,-1
 0 1792 l 1,3,-1
 256 1792 l 1,4,-1
 256 0 l 1,5,-1
 1792 0 l 1,6,-1
 1792 256 l 1,7,-1
 768 256 l 1,8,-1
 768 1792 l 1,9,-1
 2048 1792 l 1,0,-1
EndSplineSet
Validated: 1
EndChar

StartChar: uniEE8D
Encoding: 57933 57933 139
AltUni2: 00efcd.ffffffff.0 00ee8d.ffffffff.0 00e3cd.ffffffff.0 00e36d.ffffffff.0
Width: 2048
Flags: W
LayerCount: 2
Fore
SplineSet
0 -256 m 1,0,-1
 0 1792 l 1,1,-1
 256 1792 l 1,2,-1
 256 0 l 1,3,-1
 768 0 l 1,4,-1
 768 1024 l 1,5,-1
 1024 1024 l 1,6,-1
 1024 768 l 1,7,-1
 1280 768 l 1,8,-1
 1280 1024 l 1,9,-1
 1536 1024 l 1,10,-1
 1536 0 l 1,11,-1
 2048 0 l 1,12,-1
 2048 -256 l 1,13,-1
 0 -256 l 1,0,-1
1024 1280 m 1,14,-1
 1024 1536 l 1,15,-1
 768 1536 l 1,16,-1
 768 1792 l 1,17,-1
 1536 1792 l 1,18,-1
 1536 1536 l 1,19,-1
 1280 1536 l 1,20,-1
 1280 1280 l 1,21,-1
 1024 1280 l 1,14,-1
EndSplineSet
Validated: 1
EndChar

StartChar: uniEE8E
Encoding: 57934 57934 140
AltUni2: 00efce.ffffffff.0 00ee8e.ffffffff.0 00e3ce.ffffffff.0 00e36e.ffffffff.0
Width: 2048
Flags: W
LayerCount: 2
Fore
SplineSet
0 -256 m 1,0,-1
 0 1792 l 1,1,-1
 256 1792 l 1,2,-1
 256 0 l 1,3,-1
 768 0 l 1,4,-1
 768 768 l 1,5,-1
 1024 768 l 1,6,-1
 1024 512 l 1,7,-1
 1280 512 l 1,8,-1
 1280 0 l 1,9,-1
 1792 0 l 1,10,-1
 1792 1792 l 1,11,-1
 2048 1792 l 1,12,-1
 2048 -256 l 1,13,-1
 0 -256 l 1,0,-1
1024 1280 m 1,14,-1
 1024 1536 l 1,15,-1
 768 1536 l 1,16,-1
 768 1792 l 1,17,-1
 1280 1792 l 1,18,-1
 1280 1280 l 1,19,-1
 1024 1280 l 1,14,-1
EndSplineSet
Validated: 1
EndChar

StartChar: uniEE8F
Encoding: 57935 57935 141
AltUni2: 00efcf.ffffffff.0 00ee8f.ffffffff.0 00e3cf.ffffffff.0 00e36f.ffffffff.0
Width: 2048
Flags: W
LayerCount: 2
Fore
SplineSet
0 -256 m 1,0,-1
 0 1792 l 1,1,-1
 512 1792 l 1,2,-1
 512 1536 l 1,3,-1
 256 1536 l 1,4,-1
 256 256 l 1,5,-1
 512 256 l 1,6,-1
 512 0 l 1,7,-1
 1536 0 l 1,8,-1
 1536 256 l 1,9,-1
 1792 256 l 1,10,-1
 1792 1536 l 1,11,-1
 1536 1536 l 1,12,-1
 1536 1792 l 1,13,-1
 2048 1792 l 1,14,-1
 2048 -256 l 1,15,-1
 0 -256 l 1,0,-1
768 256 m 1,16,-1
 768 1536 l 1,17,-1
 1280 1536 l 1,18,-1
 1280 256 l 1,19,-1
 768 256 l 1,16,-1
EndSplineSet
Validated: 1
EndChar

StartChar: uniEE90
Encoding: 57936 57936 142
AltUni2: 00efd0.ffffffff.0 00ee90.ffffffff.0 00e3d0.ffffffff.0 00e370.ffffffff.0
Width: 2048
Flags: W
LayerCount: 2
Fore
SplineSet
0 -256 m 1,0,-1
 0 1792 l 1,1,-1
 256 1792 l 1,2,-1
 256 0 l 1,3,-1
 768 0 l 1,4,-1
 768 768 l 1,5,-1
 1536 768 l 1,6,-1
 1536 1024 l 1,7,-1
 1792 1024 l 1,8,-1
 1792 1536 l 1,9,-1
 1536 1536 l 1,10,-1
 1536 1792 l 1,11,-1
 2048 1792 l 1,12,-1
 2048 -256 l 1,13,-1
 0 -256 l 1,0,-1
768 1024 m 1,14,-1
 768 1536 l 1,15,-1
 1280 1536 l 1,16,-1
 1280 1024 l 1,17,-1
 768 1024 l 1,14,-1
EndSplineSet
Validated: 1
EndChar

StartChar: uniEE91
Encoding: 57937 57937 143
AltUni2: 00efd1.ffffffff.0 00ee91.ffffffff.0 00e3d1.ffffffff.0 00e371.ffffffff.0
Width: 2048
Flags: W
LayerCount: 2
Fore
SplineSet
0 -256 m 1,0,-1
 0 1792 l 1,1,-1
 512 1792 l 1,2,-1
 512 1536 l 1,3,-1
 256 1536 l 1,4,-1
 256 512 l 1,5,-1
 512 512 l 1,6,-1
 512 256 l 1,7,-1
 1024 256 l 1,8,-1
 1024 0 l 1,9,-1
 1792 0 l 1,10,-1
 1792 256 l 1,11,-1
 1536 256 l 1,12,-1
 1536 512 l 1,13,-1
 1792 512 l 1,14,-1
 1792 1536 l 1,15,-1
 1536 1536 l 1,16,-1
 1536 1792 l 1,17,-1
 2048 1792 l 1,18,-1
 2048 -256 l 1,19,-1
 0 -256 l 1,0,-1
768 512 m 1,20,-1
 768 1536 l 1,21,-1
 1280 1536 l 1,22,-1
 1280 512 l 1,23,-1
 768 512 l 1,20,-1
EndSplineSet
Validated: 1
EndChar

StartChar: uniEE92
Encoding: 57938 57938 144
AltUni2: 00efd2.ffffffff.0 00ee92.ffffffff.0 00e3d2.ffffffff.0 00e372.ffffffff.0
Width: 2048
Flags: W
LayerCount: 2
Fore
SplineSet
0 -256 m 1,0,-1
 0 1792 l 1,1,-1
 256 1792 l 1,2,-1
 256 0 l 1,3,-1
 768 0 l 1,4,-1
 768 512 l 1,5,-1
 1024 512 l 1,6,-1
 1024 256 l 1,7,-1
 1280 256 l 1,8,-1
 1280 0 l 1,9,-1
 1792 0 l 1,10,-1
 1792 256 l 1,11,-1
 1536 256 l 1,12,-1
 1536 512 l 1,13,-1
 1280 512 l 1,14,-1
 1280 768 l 1,15,-1
 1536 768 l 1,16,-1
 1536 1024 l 1,17,-1
 1792 1024 l 1,18,-1
 1792 1536 l 1,19,-1
 1536 1536 l 1,20,-1
 1536 1792 l 1,21,-1
 2048 1792 l 1,22,-1
 2048 -256 l 1,23,-1
 0 -256 l 1,0,-1
768 1024 m 1,24,-1
 768 1536 l 1,25,-1
 1280 1536 l 1,26,-1
 1280 1024 l 1,27,-1
 768 1024 l 1,24,-1
EndSplineSet
Validated: 1
EndChar

StartChar: uniEE93
Encoding: 57939 57939 145
AltUni2: 00efd3.ffffffff.0 00ee93.ffffffff.0 00e3d3.ffffffff.0 00e373.ffffffff.0
Width: 2048
Flags: W
LayerCount: 2
Fore
SplineSet
0 -256 m 1,0,-1
 0 1792 l 1,1,-1
 512 1792 l 1,2,-1
 512 1536 l 1,3,-1
 256 1536 l 1,4,-1
 256 1024 l 1,5,-1
 512 1024 l 1,6,-1
 512 768 l 1,7,-1
 1280 768 l 1,8,-1
 1280 256 l 1,9,-1
 768 256 l 1,10,-1
 768 512 l 1,11,-1
 256 512 l 1,12,-1
 256 256 l 1,13,-1
 512 256 l 1,14,-1
 512 0 l 1,15,-1
 1536 0 l 1,16,-1
 1536 256 l 1,17,-1
 1792 256 l 1,18,-1
 1792 768 l 1,19,-1
 1536 768 l 1,20,-1
 1536 1024 l 1,21,-1
 768 1024 l 1,22,-1
 768 1536 l 1,23,-1
 1280 1536 l 1,24,-1
 1280 1280 l 1,25,-1
 1792 1280 l 1,26,-1
 1792 1536 l 1,27,-1
 1536 1536 l 1,28,-1
 1536 1792 l 1,29,-1
 2048 1792 l 1,30,-1
 2048 -256 l 1,31,-1
 0 -256 l 1,0,-1
EndSplineSet
Validated: 1
EndChar

StartChar: uniEE94
Encoding: 57940 57940 146
AltUni2: 00efd4.ffffffff.0 00ee94.ffffffff.0 00e3d4.ffffffff.0 00e374.ffffffff.0
Width: 2048
Flags: W
LayerCount: 2
Fore
SplineSet
0 -256 m 1,0,-1
 0 1792 l 1,1,-1
 256 1792 l 1,2,-1
 256 1536 l 1,3,-1
 768 1536 l 1,4,-1
 768 0 l 1,5,-1
 1280 0 l 1,6,-1
 1280 1536 l 1,7,-1
 1792 1536 l 1,8,-1
 1792 1792 l 1,9,-1
 2048 1792 l 1,10,-1
 2048 -256 l 1,11,-1
 0 -256 l 1,0,-1
EndSplineSet
Validated: 1
EndChar

StartChar: uniEE95
Encoding: 57941 57941 147
AltUni2: 00efd5.ffffffff.0 00ee95.ffffffff.0 00e3d5.ffffffff.0 00e375.ffffffff.0
Width: 2048
Flags: W
LayerCount: 2
Fore
SplineSet
0 -256 m 1,0,-1
 0 1792 l 1,1,-1
 256 1792 l 1,2,-1
 256 256 l 1,3,-1
 512 256 l 1,4,-1
 512 0 l 1,5,-1
 1536 0 l 1,6,-1
 1536 256 l 1,7,-1
 1792 256 l 1,8,-1
 1792 1792 l 1,9,-1
 2048 1792 l 1,10,-1
 2048 -256 l 1,11,-1
 0 -256 l 1,0,-1
768 256 m 1,12,-1
 768 1792 l 1,13,-1
 1280 1792 l 1,14,-1
 1280 256 l 1,15,-1
 768 256 l 1,12,-1
EndSplineSet
Validated: 1
EndChar

StartChar: uniEE96
Encoding: 57942 57942 148
AltUni2: 00efd6.ffffffff.0 00ee96.ffffffff.0 00e3d6.ffffffff.0 00e376.ffffffff.0
Width: 2048
Flags: W
LayerCount: 2
Fore
SplineSet
0 -256 m 1,0,-1
 0 1792 l 1,1,-1
 256 1792 l 1,2,-1
 256 512 l 1,3,-1
 512 512 l 1,4,-1
 512 256 l 1,5,-1
 768 256 l 1,6,-1
 768 0 l 1,7,-1
 1280 0 l 1,8,-1
 1280 256 l 1,9,-1
 1536 256 l 1,10,-1
 1536 512 l 1,11,-1
 1792 512 l 1,12,-1
 1792 1792 l 1,13,-1
 2048 1792 l 1,14,-1
 2048 -256 l 1,15,-1
 0 -256 l 1,0,-1
768 512 m 1,16,-1
 768 1792 l 1,17,-1
 1280 1792 l 1,18,-1
 1280 512 l 1,19,-1
 768 512 l 1,16,-1
EndSplineSet
Validated: 1
EndChar

StartChar: uniEE97
Encoding: 57943 57943 149
AltUni2: 00efd7.ffffffff.0 00ee97.ffffffff.0 00e3d7.ffffffff.0 00e377.ffffffff.0
Width: 2048
Flags: W
LayerCount: 2
Fore
SplineSet
256 1792 m 1,0,-1
 256 0 l 1,1,-1
 768 0 l 1,2,-1
 768 256 l 1,3,-1
 1024 256 l 1,4,-1
 1024 512 l 1,5,-1
 1280 512 l 1,6,-1
 1280 256 l 1,7,-1
 1536 256 l 1,8,-1
 1536 0 l 1,9,-1
 2048 0 l 1,10,-1
 2048 -256 l 1,11,-1
 0 -256 l 1,12,-1
 0 1792 l 1,13,-1
 256 1792 l 1,0,-1
1536 1792 m 1,14,-1
 1536 768 l 1,15,-1
 1280 768 l 1,16,-1
 1280 1024 l 1,17,-1
 1024 1024 l 1,18,-1
 1024 768 l 1,19,-1
 768 768 l 1,20,-1
 768 1792 l 1,21,-1
 1536 1792 l 1,14,-1
EndSplineSet
Validated: 1
EndChar

StartChar: uniEE98
Encoding: 57944 57944 150
AltUni2: 00efd8.ffffffff.0 00ee98.ffffffff.0 00e3d8.ffffffff.0 00e378.ffffffff.0
Width: 2048
Flags: W
LayerCount: 2
Fore
SplineSet
2048 1792 m 1,0,-1
 2048 -256 l 1,1,-1
 0 -256 l 1,2,-1
 0 1792 l 1,3,-1
 256 1792 l 1,4,-1
 256 1280 l 1,5,-1
 512 1280 l 1,6,-1
 512 1024 l 1,7,-1
 768 1024 l 1,8,-1
 768 768 l 1,9,-1
 512 768 l 1,10,-1
 512 512 l 1,11,-1
 256 512 l 1,12,-1
 256 0 l 1,13,-1
 768 0 l 1,14,-1
 768 512 l 1,15,-1
 1280 512 l 1,16,-1
 1280 0 l 1,17,-1
 1792 0 l 1,18,-1
 1792 512 l 1,19,-1
 1536 512 l 1,20,-1
 1536 768 l 1,21,-1
 1280 768 l 1,22,-1
 1280 1024 l 1,23,-1
 1536 1024 l 1,24,-1
 1536 1280 l 1,25,-1
 1792 1280 l 1,26,-1
 1792 1792 l 1,27,-1
 2048 1792 l 1,0,-1
1280 1792 m 1,28,-1
 1280 1280 l 1,29,-1
 768 1280 l 1,30,-1
 768 1792 l 1,31,-1
 1280 1792 l 1,28,-1
EndSplineSet
Validated: 1
EndChar

StartChar: uniEE99
Encoding: 57945 57945 151
AltUni2: 00efd9.ffffffff.0 00ee99.ffffffff.0 00e3d9.ffffffff.0 00e379.ffffffff.0
Width: 2048
Flags: W
LayerCount: 2
Fore
SplineSet
0 -256 m 1,0,-1
 0 1792 l 1,1,-1
 256 1792 l 1,2,-1
 256 1024 l 1,3,-1
 512 1024 l 1,4,-1
 512 768 l 1,5,-1
 768 768 l 1,6,-1
 768 0 l 1,7,-1
 1280 0 l 1,8,-1
 1280 768 l 1,9,-1
 1536 768 l 1,10,-1
 1536 1024 l 1,11,-1
 1792 1024 l 1,12,-1
 1792 1792 l 1,13,-1
 2048 1792 l 1,14,-1
 2048 -256 l 1,15,-1
 0 -256 l 1,0,-1
768 1024 m 1,16,-1
 768 1792 l 1,17,-1
 1280 1792 l 1,18,-1
 1280 1024 l 1,19,-1
 768 1024 l 1,16,-1
EndSplineSet
Validated: 1
EndChar

StartChar: uniEE9A
Encoding: 57946 57946 152
AltUni2: 00efda.ffffffff.0 00ee9a.ffffffff.0 00e3da.ffffffff.0 00e37a.ffffffff.0
Width: 2048
Flags: W
LayerCount: 2
Fore
SplineSet
0 -256 m 1,0,-1
 0 1792 l 1,1,-1
 256 1792 l 1,2,-1
 256 1536 l 1,3,-1
 1280 1536 l 1,4,-1
 1280 1280 l 1,5,-1
 1024 1280 l 1,6,-1
 1024 1024 l 1,7,-1
 768 1024 l 1,8,-1
 768 768 l 1,9,-1
 512 768 l 1,10,-1
 512 512 l 1,11,-1
 256 512 l 1,12,-1
 256 0 l 1,13,-1
 1792 0 l 1,14,-1
 1792 256 l 1,15,-1
 768 256 l 1,16,-1
 768 512 l 1,17,-1
 1024 512 l 1,18,-1
 1024 768 l 1,19,-1
 1280 768 l 1,20,-1
 1280 1024 l 1,21,-1
 1536 1024 l 1,22,-1
 1536 1280 l 1,23,-1
 1792 1280 l 1,24,-1
 1792 1792 l 1,25,-1
 2048 1792 l 1,26,-1
 2048 -256 l 1,27,-1
 0 -256 l 1,0,-1
EndSplineSet
Validated: 1
EndChar

StartChar: uniEE9B
Encoding: 57947 57947 153
AltUni2: 00ef9b.ffffffff.0 00ee9b.ffffffff.0 00e35b.ffffffff.0
Width: 2048
Flags: W
LayerCount: 2
Fore
SplineSet
0 -256 m 1,0,-1
 0 1792 l 1,1,-1
 512 1792 l 1,2,-1
 512 0 l 1,3,-1
 1536 0 l 1,4,-1
 1536 256 l 1,5,-1
 1024 256 l 1,6,-1
 1024 1536 l 1,7,-1
 1536 1536 l 1,8,-1
 1536 1792 l 1,9,-1
 2048 1792 l 1,10,-1
 2048 -256 l 1,11,-1
 0 -256 l 1,0,-1
EndSplineSet
Validated: 1
EndChar

StartChar: uniEE9C
Encoding: 57948 57948 154
AltUni2: 00ef9c.ffffffff.0 00ee9c.ffffffff.0 00e35c.ffffffff.0
Width: 2048
Flags: W
LayerCount: 2
Fore
SplineSet
0 -256 m 1,0,-1
 0 0 l 1,1,-1
 1536 0 l 1,2,-1
 1536 256 l 1,3,-1
 1792 256 l 1,4,-1
 1792 512 l 1,5,-1
 1536 512 l 1,6,-1
 1536 256 l 1,7,-1
 768 256 l 1,8,-1
 768 512 l 1,9,-1
 1024 512 l 1,10,-1
 1024 768 l 1,11,-1
 1536 768 l 1,12,-1
 1536 1024 l 1,13,-1
 1024 1024 l 1,14,-1
 1024 1536 l 1,15,-1
 768 1536 l 1,16,-1
 768 1280 l 1,17,-1
 512 1280 l 1,18,-1
 512 1024 l 1,19,-1
 256 1024 l 1,20,-1
 256 768 l 1,21,-1
 512 768 l 1,22,-1
 512 512 l 1,23,-1
 256 512 l 1,24,-1
 256 256 l 1,25,-1
 0 256 l 1,26,-1
 0 1792 l 1,27,-1
 1024 1792 l 1,28,-1
 1024 1536 l 1,29,-1
 1536 1536 l 1,30,-1
 1536 1280 l 1,31,-1
 1792 1280 l 1,32,-1
 1792 1536 l 1,33,-1
 1536 1536 l 1,34,-1
 1536 1792 l 1,35,-1
 2048 1792 l 1,36,-1
 2048 -256 l 1,37,-1
 0 -256 l 1,0,-1
EndSplineSet
Validated: 5
EndChar

StartChar: uniEE9E
Encoding: 57950 57950 156
AltUni2: 00ef9e.ffffffff.0 00ee9e.ffffffff.0 00e35e.ffffffff.0
Width: 2048
Flags: W
LayerCount: 2
Fore
SplineSet
0 -256 m 1,0,-1
 0 1792 l 1,1,-1
 2048 1792 l 1,2,-1
 2048 -256 l 1,3,-1
 1280 -256 l 1,4,-1
 1280 768 l 1,5,-1
 1792 768 l 1,6,-1
 1792 1024 l 1,7,-1
 1536 1024 l 1,8,-1
 1536 1280 l 1,9,-1
 1280 1280 l 1,10,-1
 1280 1536 l 1,11,-1
 768 1536 l 1,12,-1
 768 1280 l 1,13,-1
 512 1280 l 1,14,-1
 512 1024 l 1,15,-1
 256 1024 l 1,16,-1
 256 768 l 1,17,-1
 768 768 l 1,18,-1
 768 -256 l 1,19,-1
 0 -256 l 1,0,-1
EndSplineSet
Validated: 1
EndChar

StartChar: uniEEA0
Encoding: 9608 9608 158
AltUni2: 00efe0.ffffffff.0 00efa0.ffffffff.0 00eee0.ffffffff.0 00eea0.ffffffff.0 00e3e0.ffffffff.0 00e3a0.ffffffff.0 00e320.ffffffff.0 00e2e0.ffffffff.0 00e2a0.ffffffff.0 00e220.ffffffff.0
Width: 2048
Flags: W
LayerCount: 2
Fore
SplineSet
0 -256 m 1,0,-1
 0 1792 l 1,1,-1
 2048 1792 l 1,2,-1
 2048 -256 l 1,3,-1
 0 -256 l 1,0,-1
EndSplineSet
Validated: 1
EndChar

StartChar: uniEEA1
Encoding: 57889 57889 159
AltUni2: 00efa1.ffffffff.0 00eea1.ffffffff.0 00e321.ffffffff.0
Width: 2048
Flags: W
LayerCount: 2
Fore
SplineSet
0 -256 m 1,0,-1
 0 1792 l 1,1,-1
 768 1792 l 1,2,-1
 768 768 l 1,3,-1
 1280 768 l 1,4,-1
 1280 1792 l 1,5,-1
 2048 1792 l 1,6,-1
 2048 -256 l 1,7,-1
 0 -256 l 1,0,-1
768 0 m 1,8,-1
 1280 0 l 1,9,-1
 1280 256 l 1,10,-1
 768 256 l 1,11,-1
 768 0 l 1,8,-1
EndSplineSet
Validated: 1
EndChar

StartChar: uniEEA2
Encoding: 57890 57890 160
AltUni2: 00efa2.ffffffff.0 00eea2.ffffffff.0 00e322.ffffffff.0
Width: 2048
Flags: W
LayerCount: 2
Fore
SplineSet
0 -256 m 1,0,-1
 0 1792 l 1,1,-1
 256 1792 l 1,2,-1
 256 1024 l 1,3,-1
 768 1024 l 1,4,-1
 768 1792 l 1,5,-1
 1280 1792 l 1,6,-1
 1280 1024 l 1,7,-1
 1792 1024 l 1,8,-1
 1792 1792 l 1,9,-1
 2048 1792 l 1,10,-1
 2048 -256 l 1,11,-1
 0 -256 l 1,0,-1
EndSplineSet
Validated: 1
EndChar

StartChar: uniEEA3
Encoding: 57891 57891 161
AltUni2: 00efa3.ffffffff.0 00eea3.ffffffff.0 00e323.ffffffff.0
Width: 2048
Flags: W
LayerCount: 2
Fore
SplineSet
0 1280 m 1,0,-1
 0 1792 l 1,1,-1
 256 1792 l 1,2,-1
 256 1280 l 1,3,-1
 0 1280 l 1,0,-1
0 -256 m 1,4,-1
 0 512 l 1,5,-1
 256 512 l 1,6,-1
 256 0 l 1,7,-1
 768 0 l 1,8,-1
 768 512 l 1,9,-1
 1280 512 l 1,10,-1
 1280 0 l 1,11,-1
 1792 0 l 1,12,-1
 1792 512 l 1,13,-1
 2048 512 l 1,14,-1
 2048 -256 l 1,15,-1
 0 -256 l 1,4,-1
768 1280 m 1,16,-1
 768 1792 l 1,17,-1
 1280 1792 l 1,18,-1
 1280 1280 l 1,19,-1
 768 1280 l 1,16,-1
0 768 m 1,20,-1
 0 1024 l 1,21,-1
 256 1024 l 1,22,-1
 256 768 l 1,23,-1
 0 768 l 1,20,-1
768 768 m 1,24,-1
 768 1024 l 1,25,-1
 1280 1024 l 1,26,-1
 1280 768 l 1,27,-1
 768 768 l 1,24,-1
1792 1280 m 1,28,-1
 1792 1792 l 1,29,-1
 2048 1792 l 1,30,-1
 2048 1280 l 1,31,-1
 1792 1280 l 1,28,-1
1792 768 m 1,32,-1
 1792 1024 l 1,33,-1
 2048 1024 l 1,34,-1
 2048 768 l 1,35,-1
 1792 768 l 1,32,-1
EndSplineSet
Validated: 1
EndChar

StartChar: uniEEA4
Encoding: 57892 57892 162
AltUni2: 00efa4.ffffffff.0 00eea4.ffffffff.0 00e324.ffffffff.0
Width: 2048
Flags: W
LayerCount: 2
Fore
SplineSet
0 -256 m 1,0,-1
 0 1792 l 1,1,-1
 768 1792 l 1,2,-1
 768 1536 l 1,3,-1
 512 1536 l 1,4,-1
 512 1280 l 1,5,-1
 256 1280 l 1,6,-1
 256 1024 l 1,7,-1
 512 1024 l 1,8,-1
 512 768 l 1,9,-1
 1280 768 l 1,10,-1
 1280 512 l 1,11,-1
 256 512 l 1,12,-1
 256 256 l 1,13,-1
 768 256 l 1,14,-1
 768 0 l 1,15,-1
 1280 0 l 1,16,-1
 1280 256 l 1,17,-1
 1536 256 l 1,18,-1
 1536 512 l 1,19,-1
 1792 512 l 1,20,-1
 1792 768 l 1,21,-1
 1536 768 l 1,22,-1
 1536 1024 l 1,23,-1
 768 1024 l 1,24,-1
 768 1280 l 1,25,-1
 1792 1280 l 1,26,-1
 1792 1536 l 1,27,-1
 1280 1536 l 1,28,-1
 1280 1792 l 1,29,-1
 2048 1792 l 1,30,-1
 2048 -256 l 1,31,-1
 0 -256 l 1,0,-1
EndSplineSet
Validated: 1
EndChar

StartChar: uniEEA5
Encoding: 57893 57893 163
AltUni2: 00efa5.ffffffff.0 00eea5.ffffffff.0 00e325.ffffffff.0
Width: 2048
Flags: W
LayerCount: 2
Fore
SplineSet
0 -256 m 1,0,-1
 0 1792 l 1,1,-1
 256 1792 l 1,2,-1
 256 1280 l 1,3,-1
 768 1280 l 1,4,-1
 768 1792 l 1,5,-1
 1536 1792 l 1,6,-1
 1536 1536 l 1,7,-1
 1280 1536 l 1,8,-1
 1280 1280 l 1,9,-1
 1024 1280 l 1,10,-1
 1024 1024 l 1,11,-1
 768 1024 l 1,12,-1
 768 768 l 1,13,-1
 512 768 l 1,14,-1
 512 512 l 1,15,-1
 256 512 l 1,16,-1
 256 0 l 1,17,-1
 512 0 l 1,18,-1
 512 256 l 1,19,-1
 768 256 l 1,20,-1
 768 512 l 1,21,-1
 1024 512 l 1,22,-1
 1024 768 l 1,23,-1
 1280 768 l 1,24,-1
 1280 1024 l 1,25,-1
 1536 1024 l 1,26,-1
 1536 1280 l 1,27,-1
 1792 1280 l 1,28,-1
 1792 1792 l 1,29,-1
 2048 1792 l 1,30,-1
 2048 -256 l 1,31,-1
 0 -256 l 1,0,-1
1280 0 m 1,32,-1
 1792 0 l 1,33,-1
 1792 512 l 1,34,-1
 1280 512 l 1,35,-1
 1280 0 l 1,32,-1
EndSplineSet
Validated: 1
EndChar

StartChar: uniEEA6
Encoding: 57894 57894 164
AltUni2: 00efa6.ffffffff.0 00eea6.ffffffff.0 00e326.ffffffff.0
Width: 2048
Flags: W
LayerCount: 2
Fore
SplineSet
768 256 m 1,0,-1
 768 768 l 1,1,-1
 1280 768 l 1,2,-1
 1280 1024 l 1,3,-1
 1536 1024 l 1,4,-1
 1536 1280 l 1,5,-1
 1792 1280 l 1,6,-1
 1792 1536 l 1,7,-1
 1536 1536 l 1,8,-1
 1536 1792 l 1,9,-1
 2048 1792 l 1,10,-1
 2048 768 l 1,11,-1
 1280 768 l 1,12,-1
 1280 256 l 1,13,-1
 768 256 l 1,0,-1
1792 256 m 1,14,-1
 1792 512 l 1,15,-1
 2048 512 l 1,16,-1
 2048 256 l 1,17,-1
 1792 256 l 1,14,-1
0 -256 m 1,18,-1
 0 1792 l 1,19,-1
 512 1792 l 1,20,-1
 512 1536 l 1,21,-1
 256 1536 l 1,22,-1
 256 1280 l 1,23,-1
 512 1280 l 1,24,-1
 512 768 l 1,25,-1
 256 768 l 1,26,-1
 256 256 l 1,27,-1
 512 256 l 1,28,-1
 512 0 l 1,29,-1
 2048 0 l 1,30,-1
 2048 -256 l 1,31,-1
 0 -256 l 1,18,-1
768 1280 m 1,32,-1
 768 1536 l 1,33,-1
 1280 1536 l 1,34,-1
 1280 1280 l 1,35,-1
 768 1280 l 1,32,-1
EndSplineSet
Validated: 5
EndChar

StartChar: uniEEA7
Encoding: 57895 57895 165
AltUni2: 00efa7.ffffffff.0 00eea7.ffffffff.0 00e327.ffffffff.0
Width: 2048
Flags: W
LayerCount: 2
Fore
SplineSet
0 -256 m 1,0,-1
 0 1792 l 1,1,-1
 1280 1792 l 1,2,-1
 1280 1536 l 1,3,-1
 1024 1536 l 1,4,-1
 1024 1280 l 1,5,-1
 768 1280 l 1,6,-1
 768 1024 l 1,7,-1
 1280 1024 l 1,8,-1
 1280 1280 l 1,9,-1
 1536 1280 l 1,10,-1
 1536 1536 l 1,11,-1
 1792 1536 l 1,12,-1
 1792 1792 l 1,13,-1
 2048 1792 l 1,14,-1
 2048 -256 l 1,15,-1
 0 -256 l 1,0,-1
EndSplineSet
Validated: 1
EndChar

StartChar: uniEEA8
Encoding: 57896 57896 166
AltUni2: 00efa8.ffffffff.0 00eea8.ffffffff.0 00e328.ffffffff.0
Width: 2048
Flags: W
LayerCount: 2
Fore
SplineSet
0 -256 m 1,0,-1
 0 1792 l 1,1,-1
 1024 1792 l 1,2,-1
 1024 1536 l 1,3,-1
 768 1536 l 1,4,-1
 768 1280 l 1,5,-1
 512 1280 l 1,6,-1
 512 512 l 1,7,-1
 768 512 l 1,8,-1
 768 256 l 1,9,-1
 1024 256 l 1,10,-1
 1024 0 l 1,11,-1
 1536 0 l 1,12,-1
 1536 256 l 1,13,-1
 1280 256 l 1,14,-1
 1280 512 l 1,15,-1
 1024 512 l 1,16,-1
 1024 1280 l 1,17,-1
 1280 1280 l 1,18,-1
 1280 1536 l 1,19,-1
 1536 1536 l 1,20,-1
 1536 1792 l 1,21,-1
 2048 1792 l 1,22,-1
 2048 -256 l 1,23,-1
 0 -256 l 1,0,-1
EndSplineSet
Validated: 1
EndChar

StartChar: uniEEAA
Encoding: 57898 57898 168
AltUni2: 00efaa.ffffffff.0 00eeaa.ffffffff.0 00e32a.ffffffff.0
Width: 2048
Flags: W
LayerCount: 2
Fore
SplineSet
0 1024 m 1,0,-1
 0 1792 l 1,1,-1
 2048 1792 l 1,2,-1
 2048 1024 l 1,3,-1
 1536 1024 l 1,4,-1
 1536 1280 l 1,5,-1
 1792 1280 l 1,6,-1
 1792 1536 l 1,7,-1
 1280 1536 l 1,8,-1
 1280 1280 l 1,9,-1
 768 1280 l 1,10,-1
 768 1536 l 1,11,-1
 256 1536 l 1,12,-1
 256 1280 l 1,13,-1
 512 1280 l 1,14,-1
 512 1024 l 1,15,-1
 0 1024 l 1,0,-1
0 -256 m 1,16,-1
 0 768 l 1,17,-1
 512 768 l 1,18,-1
 512 512 l 1,19,-1
 256 512 l 1,20,-1
 256 256 l 1,21,-1
 768 256 l 1,22,-1
 768 512 l 1,23,-1
 1280 512 l 1,24,-1
 1280 256 l 1,25,-1
 1792 256 l 1,26,-1
 1792 512 l 1,27,-1
 1536 512 l 1,28,-1
 1536 768 l 1,29,-1
 2048 768 l 1,30,-1
 2048 -256 l 1,31,-1
 0 -256 l 1,16,-1
EndSplineSet
Validated: 1
EndChar

StartChar: uniEEAB
Encoding: 57899 57899 169
AltUni2: 00efab.ffffffff.0 00eeab.ffffffff.0 00e32b.ffffffff.0
Width: 2048
Flags: W
LayerCount: 2
Fore
SplineSet
768 256 m 1,0,-1
 1280 256 l 1,1,-1
 1280 768 l 1,2,-1
 1792 768 l 1,3,-1
 1792 1024 l 1,4,-1
 1280 1024 l 1,5,-1
 1280 1536 l 1,6,-1
 768 1536 l 1,7,-1
 768 1024 l 1,8,-1
 256 1024 l 1,9,-1
 256 768 l 1,10,-1
 768 768 l 1,11,-1
 768 256 l 1,0,-1
0 -256 m 1,12,-1
 0 1792 l 1,13,-1
 2048 1792 l 1,14,-1
 2048 -256 l 1,15,-1
 0 -256 l 1,12,-1
EndSplineSet
Validated: 1
EndChar

StartChar: uniEEAC
Encoding: 57900 57900 170
AltUni2: 00efac.ffffffff.0 00eeac.ffffffff.0 00e32c.ffffffff.0
Width: 2048
Flags: W
LayerCount: 2
Fore
SplineSet
0 -256 m 1,0,-1
 0 1792 l 1,1,-1
 2048 1792 l 1,2,-1
 2048 -256 l 1,3,-1
 1024 -256 l 1,4,-1
 1024 0 l 1,5,-1
 1280 0 l 1,6,-1
 1280 512 l 1,7,-1
 768 512 l 1,8,-1
 768 0 l 1,9,-1
 512 0 l 1,10,-1
 512 -256 l 1,11,-1
 0 -256 l 1,0,-1
EndSplineSet
Validated: 1
EndChar

StartChar: uniEEAD
Encoding: 57901 57901 171
AltUni2: 00efad.ffffffff.0 00eead.ffffffff.0 00e32d.ffffffff.0
Width: 2048
Flags: W
LayerCount: 2
Fore
SplineSet
0 -256 m 1,0,-1
 0 1792 l 1,1,-1
 2048 1792 l 1,2,-1
 2048 -256 l 1,3,-1
 0 -256 l 1,0,-1
256 768 m 1,4,-1
 1792 768 l 1,5,-1
 1792 1024 l 1,6,-1
 256 1024 l 1,7,-1
 256 768 l 1,4,-1
EndSplineSet
Validated: 1
EndChar

StartChar: uniEEAE
Encoding: 57902 57902 172
AltUni2: 00efae.ffffffff.0 00eeae.ffffffff.0 00e32e.ffffffff.0
Width: 2048
Flags: W
LayerCount: 2
Fore
SplineSet
0 -256 m 1,0,-1
 0 1792 l 1,1,-1
 2048 1792 l 1,2,-1
 2048 -256 l 1,3,-1
 0 -256 l 1,0,-1
768 0 m 1,4,-1
 1280 0 l 1,5,-1
 1280 512 l 1,6,-1
 768 512 l 1,7,-1
 768 0 l 1,4,-1
EndSplineSet
Validated: 1
EndChar

StartChar: uniEEAF
Encoding: 57903 57903 173
AltUni2: 00efaf.ffffffff.0 00eeaf.ffffffff.0 00e32f.ffffffff.0
Width: 2048
Flags: W
LayerCount: 2
Fore
SplineSet
0 -256 m 1,0,-1
 0 1792 l 1,1,-1
 2048 1792 l 1,2,-1
 2048 1536 l 1,3,-1
 1536 1536 l 1,4,-1
 1536 1280 l 1,5,-1
 1280 1280 l 1,6,-1
 1280 1024 l 1,7,-1
 1024 1024 l 1,8,-1
 1024 768 l 1,9,-1
 768 768 l 1,10,-1
 768 512 l 1,11,-1
 512 512 l 1,12,-1
 512 256 l 1,13,-1
 256 256 l 1,14,-1
 256 0 l 1,15,-1
 768 0 l 1,16,-1
 768 256 l 1,17,-1
 1024 256 l 1,18,-1
 1024 512 l 1,19,-1
 1280 512 l 1,20,-1
 1280 768 l 1,21,-1
 1536 768 l 1,22,-1
 1536 1024 l 1,23,-1
 1792 1024 l 1,24,-1
 1792 1280 l 1,25,-1
 2048 1280 l 1,26,-1
 2048 -256 l 1,27,-1
 0 -256 l 1,0,-1
EndSplineSet
Validated: 1
EndChar

StartChar: uniEEB0
Encoding: 57904 57904 174
AltUni2: 00efb0.ffffffff.0 00eeb0.ffffffff.0 00e330.ffffffff.0
Width: 2048
Flags: W
LayerCount: 2
Fore
SplineSet
0 -256 m 1,0,-1
 0 1792 l 1,1,-1
 512 1792 l 1,2,-1
 512 1536 l 1,3,-1
 256 1536 l 1,4,-1
 256 256 l 1,5,-1
 512 256 l 1,6,-1
 512 0 l 1,7,-1
 1536 0 l 1,8,-1
 1536 256 l 1,9,-1
 1792 256 l 1,10,-1
 1792 1536 l 1,11,-1
 1536 1536 l 1,12,-1
 1536 1792 l 1,13,-1
 2048 1792 l 1,14,-1
 2048 -256 l 1,15,-1
 0 -256 l 1,0,-1
768 256 m 1,16,-1
 768 768 l 1,17,-1
 1024 768 l 1,18,-1
 1024 1024 l 1,19,-1
 768 1024 l 1,20,-1
 768 1536 l 1,21,-1
 1280 1536 l 1,22,-1
 1280 1280 l 1,23,-1
 1024 1280 l 1,24,-1
 1024 1024 l 1,25,-1
 1280 1024 l 1,26,-1
 1280 256 l 1,27,-1
 768 256 l 1,16,-1
EndSplineSet
Validated: 5
EndChar

StartChar: uniEEB1
Encoding: 57905 57905 175
AltUni2: 00efb1.ffffffff.0 00eeb1.ffffffff.0 00e331.ffffffff.0
Width: 2048
Flags: W
LayerCount: 2
Fore
SplineSet
0 -256 m 1,0,-1
 0 1792 l 1,1,-1
 768 1792 l 1,2,-1
 768 1280 l 1,3,-1
 512 1280 l 1,4,-1
 512 1024 l 1,5,-1
 768 1024 l 1,6,-1
 768 256 l 1,7,-1
 256 256 l 1,8,-1
 256 0 l 1,9,-1
 1792 0 l 1,10,-1
 1792 256 l 1,11,-1
 1280 256 l 1,12,-1
 1280 1792 l 1,13,-1
 2048 1792 l 1,14,-1
 2048 -256 l 1,15,-1
 0 -256 l 1,0,-1
EndSplineSet
Validated: 1
EndChar

StartChar: uniEEB2
Encoding: 57906 57906 176
AltUni2: 00efb2.ffffffff.0 00eeb2.ffffffff.0 00e332.ffffffff.0
Width: 2048
Flags: W
LayerCount: 2
Fore
SplineSet
0 -256 m 1,0,-1
 0 1792 l 1,1,-1
 512 1792 l 1,2,-1
 512 1536 l 1,3,-1
 256 1536 l 1,4,-1
 256 1280 l 1,5,-1
 768 1280 l 1,6,-1
 768 1536 l 1,7,-1
 1280 1536 l 1,8,-1
 1280 1024 l 1,9,-1
 1024 1024 l 1,10,-1
 1024 768 l 1,11,-1
 512 768 l 1,12,-1
 512 512 l 1,13,-1
 256 512 l 1,14,-1
 256 0 l 1,15,-1
 1792 0 l 1,16,-1
 1792 256 l 1,17,-1
 768 256 l 1,18,-1
 768 512 l 1,19,-1
 1024 512 l 1,20,-1
 1024 768 l 1,21,-1
 1536 768 l 1,22,-1
 1536 1024 l 1,23,-1
 1792 1024 l 1,24,-1
 1792 1536 l 1,25,-1
 1536 1536 l 1,26,-1
 1536 1792 l 1,27,-1
 2048 1792 l 1,28,-1
 2048 -256 l 1,29,-1
 0 -256 l 1,0,-1
EndSplineSet
Validated: 5
EndChar

StartChar: uniEEB3
Encoding: 57907 57907 177
AltUni2: 00efb3.ffffffff.0 00eeb3.ffffffff.0 00e333.ffffffff.0
Width: 2048
Flags: W
LayerCount: 2
Fore
SplineSet
0 -256 m 1,0,-1
 0 1792 l 1,1,-1
 512 1792 l 1,2,-1
 512 1536 l 1,3,-1
 256 1536 l 1,4,-1
 256 1280 l 1,5,-1
 768 1280 l 1,6,-1
 768 1536 l 1,7,-1
 1280 1536 l 1,8,-1
 1280 1024 l 1,9,-1
 768 1024 l 1,10,-1
 768 768 l 1,11,-1
 1280 768 l 1,12,-1
 1280 256 l 1,13,-1
 768 256 l 1,14,-1
 768 512 l 1,15,-1
 256 512 l 1,16,-1
 256 256 l 1,17,-1
 512 256 l 1,18,-1
 512 0 l 1,19,-1
 1536 0 l 1,20,-1
 1536 256 l 1,21,-1
 1792 256 l 1,22,-1
 1792 768 l 1,23,-1
 1536 768 l 1,24,-1
 1536 1024 l 1,25,-1
 1792 1024 l 1,26,-1
 1792 1536 l 1,27,-1
 1536 1536 l 1,28,-1
 1536 1792 l 1,29,-1
 2048 1792 l 1,30,-1
 2048 -256 l 1,31,-1
 0 -256 l 1,0,-1
EndSplineSet
Validated: 1
EndChar

StartChar: uniEEB4
Encoding: 57908 57908 178
AltUni2: 00efb4.ffffffff.0 00eeb4.ffffffff.0 00e334.ffffffff.0
Width: 2048
Flags: W
LayerCount: 2
Fore
SplineSet
0 -256 m 1,0,-1
 0 1792 l 1,1,-1
 1280 1792 l 1,2,-1
 1280 1536 l 1,3,-1
 1024 1536 l 1,4,-1
 1024 1280 l 1,5,-1
 768 1280 l 1,6,-1
 768 1024 l 1,7,-1
 1280 1024 l 1,8,-1
 1280 768 l 1,9,-1
 768 768 l 1,10,-1
 768 1024 l 1,11,-1
 256 1024 l 1,12,-1
 256 512 l 1,13,-1
 1280 512 l 1,14,-1
 1280 0 l 1,15,-1
 1792 0 l 1,16,-1
 1792 512 l 1,17,-1
 2048 512 l 1,18,-1
 2048 -256 l 1,19,-1
 0 -256 l 1,0,-1
1792 768 m 1,20,-1
 1792 1792 l 1,21,-1
 2048 1792 l 1,22,-1
 2048 768 l 1,23,-1
 1792 768 l 1,20,-1
EndSplineSet
Validated: 5
EndChar

StartChar: uniEEB5
Encoding: 57909 57909 179
AltUni2: 00efb5.ffffffff.0 00eeb5.ffffffff.0 00e335.ffffffff.0
Width: 2048
Flags: W
LayerCount: 2
Fore
SplineSet
0 -256 m 1,0,-1
 0 1792 l 1,1,-1
 256 1792 l 1,2,-1
 256 1024 l 1,3,-1
 1280 1024 l 1,4,-1
 1280 256 l 1,5,-1
 768 256 l 1,6,-1
 768 512 l 1,7,-1
 256 512 l 1,8,-1
 256 256 l 1,9,-1
 512 256 l 1,10,-1
 512 0 l 1,11,-1
 1536 0 l 1,12,-1
 1536 256 l 1,13,-1
 1792 256 l 1,14,-1
 1792 1024 l 1,15,-1
 1536 1024 l 1,16,-1
 1536 1280 l 1,17,-1
 768 1280 l 1,18,-1
 768 1536 l 1,19,-1
 1792 1536 l 1,20,-1
 1792 1792 l 1,21,-1
 2048 1792 l 1,22,-1
 2048 -256 l 1,23,-1
 0 -256 l 1,0,-1
EndSplineSet
Validated: 1
EndChar

StartChar: uniEEB6
Encoding: 57910 57910 180
AltUni2: 00efb6.ffffffff.0 00eeb6.ffffffff.0 00e336.ffffffff.0
Width: 2048
Flags: W
LayerCount: 2
Fore
SplineSet
0 -256 m 1,0,-1
 0 1792 l 1,1,-1
 512 1792 l 1,2,-1
 512 1536 l 1,3,-1
 256 1536 l 1,4,-1
 256 256 l 1,5,-1
 512 256 l 1,6,-1
 512 0 l 1,7,-1
 1536 0 l 1,8,-1
 1536 256 l 1,9,-1
 1792 256 l 1,10,-1
 1792 768 l 1,11,-1
 1536 768 l 1,12,-1
 1536 1024 l 1,13,-1
 768 1024 l 1,14,-1
 768 1536 l 1,15,-1
 1280 1536 l 1,16,-1
 1280 1280 l 1,17,-1
 1792 1280 l 1,18,-1
 1792 1536 l 1,19,-1
 1536 1536 l 1,20,-1
 1536 1792 l 1,21,-1
 2048 1792 l 1,22,-1
 2048 -256 l 1,23,-1
 0 -256 l 1,0,-1
768 256 m 1,24,-1
 768 768 l 1,25,-1
 1280 768 l 1,26,-1
 1280 256 l 1,27,-1
 768 256 l 1,24,-1
EndSplineSet
Validated: 1
EndChar

StartChar: uniEEB7
Encoding: 57911 57911 181
AltUni2: 00efb7.ffffffff.0 00eeb7.ffffffff.0 00e337.ffffffff.0
Width: 2048
Flags: W
LayerCount: 2
Fore
SplineSet
0 -256 m 1,0,-1
 0 1792 l 1,1,-1
 256 1792 l 1,2,-1
 256 1280 l 1,3,-1
 768 1280 l 1,4,-1
 768 1536 l 1,5,-1
 1280 1536 l 1,6,-1
 1280 1280 l 1,7,-1
 1024 1280 l 1,8,-1
 1024 1024 l 1,9,-1
 768 1024 l 1,10,-1
 768 0 l 1,11,-1
 1280 0 l 1,12,-1
 1280 1024 l 1,13,-1
 1536 1024 l 1,14,-1
 1536 1280 l 1,15,-1
 1792 1280 l 1,16,-1
 1792 1792 l 1,17,-1
 2048 1792 l 1,18,-1
 2048 -256 l 1,19,-1
 0 -256 l 1,0,-1
EndSplineSet
Validated: 1
EndChar

StartChar: uniEEB8
Encoding: 57912 57912 182
AltUni2: 00efb8.ffffffff.0 00eeb8.ffffffff.0 00e338.ffffffff.0
Width: 2048
Flags: W
LayerCount: 2
Fore
SplineSet
0 -256 m 1,0,-1
 0 1792 l 1,1,-1
 512 1792 l 1,2,-1
 512 1536 l 1,3,-1
 256 1536 l 1,4,-1
 256 1024 l 1,5,-1
 512 1024 l 1,6,-1
 512 768 l 1,7,-1
 256 768 l 1,8,-1
 256 256 l 1,9,-1
 512 256 l 1,10,-1
 512 0 l 1,11,-1
 1536 0 l 1,12,-1
 1536 256 l 1,13,-1
 1792 256 l 1,14,-1
 1792 768 l 1,15,-1
 1536 768 l 1,16,-1
 1536 1024 l 1,17,-1
 1792 1024 l 1,18,-1
 1792 1536 l 1,19,-1
 1536 1536 l 1,20,-1
 1536 1792 l 1,21,-1
 2048 1792 l 1,22,-1
 2048 -256 l 1,23,-1
 0 -256 l 1,0,-1
768 1024 m 1,24,-1
 768 1536 l 1,25,-1
 1280 1536 l 1,26,-1
 1280 1024 l 1,27,-1
 768 1024 l 1,24,-1
768 256 m 1,28,-1
 768 768 l 1,29,-1
 1280 768 l 1,30,-1
 1280 256 l 1,31,-1
 768 256 l 1,28,-1
EndSplineSet
Validated: 1
EndChar

StartChar: uniEEB9
Encoding: 57913 57913 183
AltUni2: 00efb9.ffffffff.0 00eeb9.ffffffff.0 00e339.ffffffff.0
Width: 2048
Flags: W
LayerCount: 2
Fore
SplineSet
0 -256 m 1,0,-1
 0 1792 l 1,1,-1
 512 1792 l 1,2,-1
 512 1536 l 1,3,-1
 256 1536 l 1,4,-1
 256 1024 l 1,5,-1
 512 1024 l 1,6,-1
 512 768 l 1,7,-1
 1280 768 l 1,8,-1
 1280 256 l 1,9,-1
 768 256 l 1,10,-1
 768 512 l 1,11,-1
 256 512 l 1,12,-1
 256 256 l 1,13,-1
 512 256 l 1,14,-1
 512 0 l 1,15,-1
 1536 0 l 1,16,-1
 1536 256 l 1,17,-1
 1792 256 l 1,18,-1
 1792 1536 l 1,19,-1
 1536 1536 l 1,20,-1
 1536 1792 l 1,21,-1
 2048 1792 l 1,22,-1
 2048 -256 l 1,23,-1
 0 -256 l 1,0,-1
768 1024 m 1,24,-1
 768 1536 l 1,25,-1
 1280 1536 l 1,26,-1
 1280 1024 l 1,27,-1
 768 1024 l 1,24,-1
EndSplineSet
Validated: 1
EndChar

StartChar: uniEEBA
Encoding: 57914 57914 184
AltUni2: 00efba.ffffffff.0 00eeba.ffffffff.0 00e33a.ffffffff.0
Width: 2048
Flags: W
LayerCount: 2
Fore
SplineSet
0 -256 m 1,0,-1
 0 1792 l 1,1,-1
 2048 1792 l 1,2,-1
 2048 -256 l 1,3,-1
 0 -256 l 1,0,-1
768 256 m 1,4,-1
 1280 256 l 1,5,-1
 1280 512 l 1,6,-1
 768 512 l 1,7,-1
 768 256 l 1,4,-1
768 1024 m 1,8,-1
 1280 1024 l 1,9,-1
 1280 1280 l 1,10,-1
 768 1280 l 1,11,-1
 768 1024 l 1,8,-1
EndSplineSet
Validated: 1
EndChar

StartChar: uniEEBB
Encoding: 57915 57915 185
AltUni2: 00efbb.ffffffff.0 00eebb.ffffffff.0 00e33b.ffffffff.0
Width: 2048
Flags: W
LayerCount: 2
Fore
SplineSet
0 -256 m 1,0,-1
 0 1792 l 1,1,-1
 2048 1792 l 1,2,-1
 2048 -256 l 1,3,-1
 1024 -256 l 1,4,-1
 1024 0 l 1,5,-1
 1280 0 l 1,6,-1
 1280 512 l 1,7,-1
 768 512 l 1,8,-1
 768 0 l 1,9,-1
 512 0 l 1,10,-1
 512 -256 l 1,11,-1
 0 -256 l 1,0,-1
768 1024 m 1,12,-1
 1280 1024 l 1,13,-1
 1280 1280 l 1,14,-1
 768 1280 l 1,15,-1
 768 1024 l 1,12,-1
EndSplineSet
Validated: 1
EndChar

StartChar: uniEEBC
Encoding: 57916 57916 186
AltUni2: 00efbc.ffffffff.0 00eebc.ffffffff.0 00e33c.ffffffff.0
Width: 2048
Flags: W
LayerCount: 2
Fore
SplineSet
0 -256 m 1,0,-1
 0 1792 l 1,1,-1
 1024 1792 l 1,2,-1
 1024 1536 l 1,3,-1
 768 1536 l 1,4,-1
 768 1280 l 1,5,-1
 512 1280 l 1,6,-1
 512 1024 l 1,7,-1
 256 1024 l 1,8,-1
 256 768 l 1,9,-1
 512 768 l 1,10,-1
 512 512 l 1,11,-1
 768 512 l 1,12,-1
 768 256 l 1,13,-1
 1024 256 l 1,14,-1
 1024 0 l 1,15,-1
 1792 0 l 1,16,-1
 1792 256 l 1,17,-1
 1280 256 l 1,18,-1
 1280 512 l 1,19,-1
 1024 512 l 1,20,-1
 1024 768 l 1,21,-1
 768 768 l 1,22,-1
 768 1024 l 1,23,-1
 1024 1024 l 1,24,-1
 1024 1280 l 1,25,-1
 1280 1280 l 1,26,-1
 1280 1536 l 1,27,-1
 1792 1536 l 1,28,-1
 1792 1792 l 1,29,-1
 2048 1792 l 1,30,-1
 2048 -256 l 1,31,-1
 0 -256 l 1,0,-1
EndSplineSet
Validated: 1
EndChar

StartChar: uniEEBD
Encoding: 57917 57917 187
AltUni2: 00efbd.ffffffff.0 00eebd.ffffffff.0 00e33d.ffffffff.0
Width: 2048
Flags: W
LayerCount: 2
Fore
SplineSet
0 -256 m 1,0,-1
 0 1792 l 1,1,-1
 2048 1792 l 1,2,-1
 2048 -256 l 1,3,-1
 0 -256 l 1,0,-1
256 1024 m 1,4,-1
 1792 1024 l 1,5,-1
 1792 1280 l 1,6,-1
 256 1280 l 1,7,-1
 256 1024 l 1,4,-1
256 512 m 1,8,-1
 1792 512 l 1,9,-1
 1792 768 l 1,10,-1
 256 768 l 1,11,-1
 256 512 l 1,8,-1
EndSplineSet
Validated: 1
EndChar

StartChar: uniEEBF
Encoding: 57919 57919 189
AltUni2: 00efbf.ffffffff.0 00eebf.ffffffff.0 00e33f.ffffffff.0
Width: 2048
Flags: W
LayerCount: 2
Fore
SplineSet
0 -256 m 1,0,-1
 0 1792 l 1,1,-1
 512 1792 l 1,2,-1
 512 1536 l 1,3,-1
 256 1536 l 1,4,-1
 256 1280 l 1,5,-1
 768 1280 l 1,6,-1
 768 1536 l 1,7,-1
 1280 1536 l 1,8,-1
 1280 1024 l 1,9,-1
 1024 1024 l 1,10,-1
 1024 768 l 1,11,-1
 768 768 l 1,12,-1
 768 512 l 1,13,-1
 1280 512 l 1,14,-1
 1280 768 l 1,15,-1
 1536 768 l 1,16,-1
 1536 1024 l 1,17,-1
 1792 1024 l 1,18,-1
 1792 1536 l 1,19,-1
 1536 1536 l 1,20,-1
 1536 1792 l 1,21,-1
 2048 1792 l 1,22,-1
 2048 -256 l 1,23,-1
 0 -256 l 1,0,-1
768 0 m 1,24,-1
 1280 0 l 1,25,-1
 1280 256 l 1,26,-1
 768 256 l 1,27,-1
 768 0 l 1,24,-1
EndSplineSet
Validated: 1
EndChar

StartChar: uniEEC1
Encoding: 57953 57953 191
AltUni2: 00eec1.ffffffff.0 00e2c1.ffffffff.0
Width: 2048
Flags: W
LayerCount: 2
Fore
SplineSet
0 -256 m 1,0,-1
 0 1792 l 1,1,-1
 1024 1792 l 1,2,-1
 1024 1536 l 1,3,-1
 768 1536 l 1,4,-1
 768 1280 l 1,5,-1
 512 1280 l 1,6,-1
 512 1024 l 1,7,-1
 256 1024 l 1,8,-1
 256 512 l 1,9,-1
 768 512 l 1,10,-1
 768 256 l 1,11,-1
 512 256 l 1,12,-1
 512 0 l 1,13,-1
 1792 0 l 1,14,-1
 1792 256 l 1,15,-1
 1536 256 l 1,16,-1
 1536 512 l 1,17,-1
 2048 512 l 1,18,-1
 2048 -256 l 1,19,-1
 0 -256 l 1,0,-1
1792 1024 m 1,20,-1
 1792 1280 l 1,21,-1
 1536 1280 l 1,22,-1
 1536 1536 l 1,23,-1
 1280 1536 l 1,24,-1
 1280 1792 l 1,25,-1
 2048 1792 l 1,26,-1
 2048 1024 l 1,27,-1
 1792 1024 l 1,20,-1
EndSplineSet
Validated: 1
EndChar

StartChar: uniEEC9
Encoding: 57961 57961 198
AltUni2: 00eec9.ffffffff.0 00e2c9.ffffffff.0
Width: 2048
Flags: W
LayerCount: 2
Fore
SplineSet
1280 -256 m 1,0,-1
 1280 512 l 1,1,-1
 1024 512 l 1,2,-1
 1024 768 l 1,3,-1
 768 768 l 1,4,-1
 768 1024 l 1,5,-1
 0 1024 l 1,6,-1
 0 1792 l 1,7,-1
 2048 1792 l 1,8,-1
 2048 -256 l 1,9,-1
 1280 -256 l 1,0,-1
0 -256 m 1,10,-1
 0 512 l 1,11,-1
 512 512 l 1,12,-1
 512 256 l 1,13,-1
 768 256 l 1,14,-1
 768 -256 l 1,15,-1
 0 -256 l 1,10,-1
EndSplineSet
Validated: 1
EndChar

StartChar: uniEECC
Encoding: 57964 57964 201
AltUni2: 00eecc.ffffffff.0 00e2cc.ffffffff.0
Width: 2048
Flags: W
LayerCount: 2
Fore
SplineSet
512 256 m 1,0,-1
 512 1792 l 1,1,-1
 2048 1792 l 1,2,-1
 2048 256 l 1,3,-1
 512 256 l 1,0,-1
EndSplineSet
Validated: 1
EndChar

StartChar: uniEECD
Encoding: 57965 57965 202
AltUni2: 00eecd.ffffffff.0 00e2cd.ffffffff.0
Width: 2048
Flags: W
LayerCount: 2
Fore
SplineSet
1792 256 m 1,0,-1
 1792 512 l 1,1,-1
 1536 512 l 1,2,-1
 1536 768 l 1,3,-1
 1280 768 l 1,4,-1
 1280 1024 l 1,5,-1
 1024 1024 l 1,6,-1
 1024 1280 l 1,7,-1
 768 1280 l 1,8,-1
 768 1536 l 1,9,-1
 512 1536 l 1,10,-1
 512 1792 l 1,11,-1
 2048 1792 l 1,12,-1
 2048 256 l 1,13,-1
 1792 256 l 1,0,-1
0 -256 m 1,14,-1
 0 1280 l 1,15,-1
 256 1280 l 1,16,-1
 256 1024 l 1,17,-1
 512 1024 l 1,18,-1
 512 768 l 1,19,-1
 768 768 l 1,20,-1
 768 512 l 1,21,-1
 1024 512 l 1,22,-1
 1024 256 l 1,23,-1
 1280 256 l 1,24,-1
 1280 0 l 1,25,-1
 1536 0 l 1,26,-1
 1536 -256 l 1,27,-1
 0 -256 l 1,14,-1
EndSplineSet
Validated: 1
EndChar

StartChar: invbullet
Encoding: 9688 9688 206
AltUni2: 00eed1.ffffffff.0 00e2d1.ffffffff.0 00e271.ffffffff.0
Width: 2048
Flags: W
LayerCount: 2
Fore
SplineSet
0 -256 m 1,0,-1
 0 1792 l 1,1,-1
 2048 1792 l 1,2,-1
 2048 -256 l 1,3,-1
 0 -256 l 1,0,-1
512 0 m 1,4,-1
 1536 0 l 1,5,-1
 1536 256 l 1,6,-1
 1792 256 l 1,7,-1
 1792 1280 l 1,8,-1
 1536 1280 l 1,9,-1
 1536 1536 l 1,10,-1
 512 1536 l 1,11,-1
 512 1280 l 1,12,-1
 256 1280 l 1,13,-1
 256 256 l 1,14,-1
 512 256 l 1,15,-1
 512 0 l 1,4,-1
EndSplineSet
Validated: 1
EndChar

StartChar: uniEED3
Encoding: 57971 57971 208
AltUni2: 00eed3.ffffffff.0 00e2d3.ffffffff.0
Width: 2048
Flags: W
LayerCount: 2
Fore
SplineSet
0 -256 m 1,0,-1
 0 1792 l 1,1,-1
 512 1792 l 1,2,-1
 512 1536 l 1,3,-1
 256 1536 l 1,4,-1
 256 768 l 1,5,-1
 512 768 l 1,6,-1
 512 512 l 1,7,-1
 768 512 l 1,8,-1
 768 256 l 1,9,-1
 1024 256 l 1,10,-1
 1024 0 l 1,11,-1
 1280 0 l 1,12,-1
 1280 256 l 1,13,-1
 1536 256 l 1,14,-1
 1536 512 l 1,15,-1
 1792 512 l 1,16,-1
 1792 768 l 1,17,-1
 2048 768 l 1,18,-1
 2048 -256 l 1,19,-1
 0 -256 l 1,0,-1
1024 1536 m 1,20,-1
 1024 1792 l 1,21,-1
 1280 1792 l 1,22,-1
 1280 1536 l 1,23,-1
 1024 1536 l 1,20,-1
1792 1536 m 1,24,-1
 1792 1792 l 1,25,-1
 2048 1792 l 1,26,-1
 2048 1536 l 1,27,-1
 1792 1536 l 1,24,-1
EndSplineSet
Validated: 1
EndChar

StartChar: uniEED6
Encoding: 57974 57974 211
AltUni2: 00eed6.ffffffff.0 00e2d6.ffffffff.0
Width: 2048
Flags: W
LayerCount: 2
Fore
SplineSet
1792 256 m 1,0,-1
 1792 512 l 1,1,-1
 1536 512 l 1,2,-1
 1536 1024 l 1,3,-1
 1792 1024 l 1,4,-1
 1792 1280 l 1,5,-1
 2048 1280 l 1,6,-1
 2048 256 l 1,7,-1
 1792 256 l 1,0,-1
768 1280 m 1,8,-1
 768 1536 l 1,9,-1
 512 1536 l 1,10,-1
 512 1792 l 1,11,-1
 1536 1792 l 1,12,-1
 1536 1536 l 1,13,-1
 1280 1536 l 1,14,-1
 1280 1280 l 1,15,-1
 768 1280 l 1,8,-1
512 -256 m 1,16,-1
 512 0 l 1,17,-1
 768 0 l 1,18,-1
 768 256 l 1,19,-1
 1280 256 l 1,20,-1
 1280 0 l 1,21,-1
 1536 0 l 1,22,-1
 1536 -256 l 1,23,-1
 512 -256 l 1,16,-1
0 256 m 1,24,-1
 0 1280 l 1,25,-1
 256 1280 l 1,26,-1
 256 1024 l 1,27,-1
 512 1024 l 1,28,-1
 512 512 l 1,29,-1
 256 512 l 1,30,-1
 256 256 l 1,31,-1
 0 256 l 1,24,-1
EndSplineSet
Validated: 1
EndChar

StartChar: invcircle
Encoding: 9689 9689 212
AltUni2: 00eed7.ffffffff.0 00e2d7.ffffffff.0 00e277.ffffffff.0
Width: 2048
Flags: W
LayerCount: 2
Fore
SplineSet
0 -256 m 1,0,-1
 0 1792 l 1,1,-1
 2048 1792 l 1,2,-1
 2048 -256 l 1,3,-1
 0 -256 l 1,0,-1
512 0 m 1,4,-1
 1536 0 l 1,5,-1
 1536 256 l 1,6,-1
 1792 256 l 1,7,-1
 1792 1280 l 1,8,-1
 1536 1280 l 1,9,-1
 1536 1536 l 1,10,-1
 512 1536 l 1,11,-1
 512 1280 l 1,12,-1
 256 1280 l 1,13,-1
 256 256 l 1,14,-1
 512 256 l 1,15,-1
 512 0 l 1,4,-1
768 512 m 1,16,-1
 768 1024 l 1,17,-1
 1280 1024 l 1,18,-1
 1280 512 l 1,19,-1
 768 512 l 1,16,-1
EndSplineSet
Validated: 1
EndChar

StartChar: uniEED8
Encoding: 57976 57976 213
AltUni2: 00eed8.ffffffff.0 00e2d8.ffffffff.0
Width: 2048
Flags: W
LayerCount: 2
Fore
SplineSet
0 -256 m 1,0,-1
 0 1792 l 1,1,-1
 768 1792 l 1,2,-1
 768 1280 l 1,3,-1
 256 1280 l 1,4,-1
 256 768 l 1,5,-1
 768 768 l 1,6,-1
 768 256 l 1,7,-1
 512 256 l 1,8,-1
 512 0 l 1,9,-1
 1536 0 l 1,10,-1
 1536 256 l 1,11,-1
 1280 256 l 1,12,-1
 1280 768 l 1,13,-1
 1792 768 l 1,14,-1
 1792 1280 l 1,15,-1
 1280 1280 l 1,16,-1
 1280 768 l 1,17,-1
 768 768 l 1,18,-1
 768 1280 l 1,19,-1
 1280 1280 l 1,20,-1
 1280 1792 l 1,21,-1
 2048 1792 l 1,22,-1
 2048 -256 l 1,23,-1
 0 -256 l 1,0,-1
EndSplineSet
Validated: 5
EndChar

StartChar: uniEEDA
Encoding: 57978 57978 215
AltUni2: 00eeda.ffffffff.0 00e2da.ffffffff.0
Width: 2048
Flags: W
LayerCount: 2
Fore
SplineSet
0 -256 m 1,0,-1
 0 1792 l 1,1,-1
 1024 1792 l 1,2,-1
 1024 1536 l 1,3,-1
 768 1536 l 1,4,-1
 768 1280 l 1,5,-1
 512 1280 l 1,6,-1
 512 1024 l 1,7,-1
 256 1024 l 1,8,-1
 256 768 l 1,9,-1
 512 768 l 1,10,-1
 512 512 l 1,11,-1
 768 512 l 1,12,-1
 768 256 l 1,13,-1
 1024 256 l 1,14,-1
 1024 0 l 1,15,-1
 1280 0 l 1,16,-1
 1280 256 l 1,17,-1
 1536 256 l 1,18,-1
 1536 512 l 1,19,-1
 1792 512 l 1,20,-1
 1792 768 l 1,21,-1
 2048 768 l 1,22,-1
 2048 -256 l 1,23,-1
 0 -256 l 1,0,-1
1792 1024 m 1,24,-1
 1792 1280 l 1,25,-1
 1536 1280 l 1,26,-1
 1536 1536 l 1,27,-1
 1280 1536 l 1,28,-1
 1280 1792 l 1,29,-1
 2048 1792 l 1,30,-1
 2048 1024 l 1,31,-1
 1792 1024 l 1,24,-1
EndSplineSet
Validated: 1
EndChar

StartChar: uniEEDB
Encoding: 57979 57979 216
AltUni2: 00efdb.ffffffff.0 00eedb.ffffffff.0 00e3db.ffffffff.0 00e37b.ffffffff.0 00e2db.ffffffff.0
Width: 2048
Flags: W
LayerCount: 2
Fore
SplineSet
0 1024 m 1,0,-1
 0 1792 l 1,1,-1
 768 1792 l 1,2,-1
 768 1024 l 1,3,-1
 0 1024 l 1,0,-1
1280 -256 m 1,4,-1
 1280 512 l 1,5,-1
 2048 512 l 1,6,-1
 2048 -256 l 1,7,-1
 1280 -256 l 1,4,-1
0 -256 m 1,8,-1
 0 512 l 1,9,-1
 768 512 l 1,10,-1
 768 -256 l 1,11,-1
 0 -256 l 1,8,-1
1280 1024 m 1,12,-1
 1280 1792 l 1,13,-1
 2048 1792 l 1,14,-1
 2048 1024 l 1,15,-1
 1280 1024 l 1,12,-1
EndSplineSet
Validated: 1
EndChar

StartChar: uniEEDC
Encoding: 57980 57980 217
AltUni2: 00efdc.ffffffff.0 00eedc.ffffffff.0 00e3dc.ffffffff.0 00e37c.ffffffff.0 00e2dc.ffffffff.0
Width: 2048
Flags: W
LayerCount: 2
Fore
SplineSet
0 -256 m 1,0,-1
 0 256 l 1,1,-1
 512 256 l 1,2,-1
 512 768 l 1,3,-1
 1024 768 l 1,4,-1
 1024 1280 l 1,5,-1
 512 1280 l 1,6,-1
 512 768 l 1,7,-1
 0 768 l 1,8,-1
 0 1280 l 1,9,-1
 512 1280 l 1,10,-1
 512 1792 l 1,11,-1
 2048 1792 l 1,12,-1
 2048 -256 l 1,13,-1
 1024 -256 l 1,14,-1
 1024 256 l 1,15,-1
 512 256 l 1,16,-1
 512 -256 l 1,17,-1
 0 -256 l 1,0,-1
EndSplineSet
Validated: 5
EndChar

StartChar: uniEEDE
Encoding: 57982 57982 218
AltUni2: 00eede.ffffffff.0 00e2ff.ffffffff.0 00e2de.ffffffff.0
Width: 2048
Flags: W
LayerCount: 2
Fore
SplineSet
0 -256 m 1,0,-1
 0 1792 l 1,1,-1
 2048 1792 l 1,2,-1
 2048 1280 l 1,3,-1
 1536 1280 l 1,4,-1
 1536 1024 l 1,5,-1
 512 1024 l 1,6,-1
 512 768 l 1,7,-1
 256 768 l 1,8,-1
 256 512 l 1,9,-1
 512 512 l 1,10,-1
 512 0 l 1,11,-1
 1024 0 l 1,12,-1
 1024 768 l 1,13,-1
 1280 768 l 1,14,-1
 1280 0 l 1,15,-1
 1792 0 l 1,16,-1
 1792 1024 l 1,17,-1
 2048 1024 l 1,18,-1
 2048 -256 l 1,19,-1
 0 -256 l 1,0,-1
EndSplineSet
Validated: 1
EndChar

StartChar: uni25E3
Encoding: 9699 9699 219
AltUni2: 00eedf.ffffffff.0 00e2df.ffffffff.0 00e27f.ffffffff.0
Width: 2048
Flags: W
LayerCount: 2
Fore
SplineSet
0 -256 m 1,0,-1
 0 1536 l 1,1,-1
 256 1536 l 1,2,-1
 256 1280 l 1,3,-1
 512 1280 l 1,4,-1
 512 1024 l 1,5,-1
 768 1024 l 1,6,-1
 768 768 l 1,7,-1
 1024 768 l 1,8,-1
 1024 512 l 1,9,-1
 1280 512 l 1,10,-1
 1280 256 l 1,11,-1
 1536 256 l 1,12,-1
 1536 0 l 1,13,-1
 1792 0 l 1,14,-1
 1792 -256 l 1,15,-1
 0 -256 l 1,0,-1
EndSplineSet
Validated: 1
EndChar

StartChar: uni2587
Encoding: 9607 9607 222
AltUni2: 00efe3.ffffffff.0 00eee3.ffffffff.0 00e3e3.ffffffff.0 00e3a3.ffffffff.0 00e2e3.ffffffff.0 00e2a3.ffffffff.0
Width: 2048
Flags: W
LayerCount: 2
Fore
SplineSet
0 -256 m 1,0,-1
 0 1536 l 1,1,-1
 2048 1536 l 1,2,-1
 2048 -256 l 1,3,-1
 0 -256 l 1,0,-1
EndSplineSet
Validated: 1
EndChar

StartChar: uniEEE5
Encoding: 58021 58021 224
AltUni2: 00eff4.ffffffff.0 00efe5.ffffffff.0 00eef4.ffffffff.0 00eee5.ffffffff.0 00e3f4.ffffffff.0 00e3e5.ffffffff.0 00e3b4.ffffffff.0 00e3a5.ffffffff.0 00e2f4.ffffffff.0 00e2e5.ffffffff.0 00e2b4.ffffffff.0
Width: 2048
Flags: W
LayerCount: 2
Fore
SplineSet
512 -256 m 1,0,-1
 512 1792 l 1,1,-1
 2048 1792 l 1,2,-1
 2048 -256 l 1,3,-1
 512 -256 l 1,0,-1
EndSplineSet
Validated: 1
EndChar

StartChar: uniEEEB
Encoding: 58027 58027 229
AltUni2: 00efeb.ffffffff.0 00eeeb.ffffffff.0 00e3eb.ffffffff.0 00e3ab.ffffffff.0 00e2eb.ffffffff.0
Width: 2048
Flags: W
LayerCount: 2
Fore
SplineSet
0 -256 m 1,0,-1
 0 1792 l 1,1,-1
 768 1792 l 1,2,-1
 768 -256 l 1,3,-1
 0 -256 l 1,0,-1
1280 -256 m 1,4,-1
 1280 512 l 1,5,-1
 2048 512 l 1,6,-1
 2048 -256 l 1,7,-1
 1280 -256 l 1,4,-1
1280 1024 m 1,8,-1
 1280 1792 l 1,9,-1
 2048 1792 l 1,10,-1
 2048 1024 l 1,11,-1
 1280 1024 l 1,8,-1
EndSplineSet
Validated: 1
EndChar

StartChar: uni259B
Encoding: 9627 9627 230
AltUni2: 00efec.ffffffff.0 00eeec.ffffffff.0 00e3ec.ffffffff.0 00e3ac.ffffffff.0 00e2ec.ffffffff.0 00e2ac.ffffffff.0
Width: 2048
Flags: W
LayerCount: 2
Fore
SplineSet
0 -256 m 1,0,-1
 0 1792 l 1,1,-1
 2048 1792 l 1,2,-1
 2048 768 l 1,3,-1
 1024 768 l 1,4,-1
 1024 -256 l 1,5,-1
 0 -256 l 1,0,-1
EndSplineSet
Validated: 1
EndChar

StartChar: uniEEED
Encoding: 58029 58029 231
AltUni2: 00efed.ffffffff.0 00eeed.ffffffff.0 00e3ed.ffffffff.0 00e3ad.ffffffff.0 00e2ed.ffffffff.0
Width: 2048
Flags: W
LayerCount: 2
Fore
SplineSet
0 -256 m 1,0,-1
 0 1792 l 1,1,-1
 768 1792 l 1,2,-1
 768 512 l 1,3,-1
 2048 512 l 1,4,-1
 2048 -256 l 1,5,-1
 0 -256 l 1,0,-1
1280 1024 m 1,6,-1
 1280 1792 l 1,7,-1
 2048 1792 l 1,8,-1
 2048 1024 l 1,9,-1
 1280 1024 l 1,6,-1
EndSplineSet
Validated: 1
EndChar

StartChar: uniEEEF
Encoding: 58031 58031 233
AltUni2: 00efef.ffffffff.0 00eeef.ffffffff.0 00e3ef.ffffffff.0 00e3af.ffffffff.0 00e2ef.ffffffff.0
Width: 2048
Flags: W
LayerCount: 2
Fore
SplineSet
0 256 m 1,0,-1
 0 1792 l 1,1,-1
 2048 1792 l 1,2,-1
 2048 256 l 1,3,-1
 0 256 l 1,0,-1
EndSplineSet
Validated: 1
EndChar

StartChar: uniEEF5
Encoding: 58037 58037 238
AltUni2: 00eff5.ffffffff.0 00eef5.ffffffff.0 00e3f5.ffffffff.0 00e3b5.ffffffff.0 00e2f5.ffffffff.0
Width: 2048
Flags: W
LayerCount: 2
Fore
SplineSet
768 -256 m 1,0,-1
 768 1792 l 1,1,-1
 2048 1792 l 1,2,-1
 2048 -256 l 1,3,-1
 768 -256 l 1,0,-1
EndSplineSet
Validated: 1
EndChar

StartChar: uni2585
Encoding: 9605 9605 241
AltUni2: 00eff8.ffffffff.0 00eef8.ffffffff.0 00e3f8.ffffffff.0 00e3b8.ffffffff.0 00e2f8.ffffffff.0 00e2b8.ffffffff.0
Width: 2048
Flags: W
LayerCount: 2
Fore
SplineSet
0 -256 m 1,0,-1
 0 1024 l 1,1,-1
 2048 1024 l 1,2,-1
 2048 -256 l 1,3,-1
 0 -256 l 1,0,-1
EndSplineSet
Validated: 1
EndChar

StartChar: a
Encoding: 97 97 249
AltUni2: 00ef01.ffffffff.0 00e141.ffffffff.0
Width: 2048
Flags: W
LayerCount: 2
Fore
SplineSet
512 0 m 1,0,-1
 512 256 l 1,1,-1
 256 256 l 1,2,-1
 256 512 l 1,3,-1
 512 512 l 1,4,-1
 512 768 l 1,5,-1
 1280 768 l 1,6,-1
 1280 1024 l 1,7,-1
 512 1024 l 1,8,-1
 512 1280 l 1,9,-1
 1536 1280 l 1,10,-1
 1536 1024 l 1,11,-1
 1792 1024 l 1,12,-1
 1792 0 l 1,13,-1
 512 0 l 1,0,-1
768 256 m 1,14,-1
 1280 256 l 1,15,-1
 1280 512 l 1,16,-1
 768 512 l 1,17,-1
 768 256 l 1,14,-1
EndSplineSet
Validated: 1
EndChar

StartChar: b
Encoding: 98 98 250
AltUni2: 00ef02.ffffffff.0 00e142.ffffffff.0
Width: 2048
Flags: W
LayerCount: 2
Fore
SplineSet
768 256 m 1,0,-1
 1280 256 l 1,1,-1
 1280 768 l 1,2,-1
 768 768 l 1,3,-1
 768 256 l 1,0,-1
256 0 m 1,4,-1
 256 1536 l 1,5,-1
 768 1536 l 1,6,-1
 768 1024 l 1,7,-1
 1536 1024 l 1,8,-1
 1536 768 l 1,9,-1
 1792 768 l 1,10,-1
 1792 256 l 1,11,-1
 1536 256 l 1,12,-1
 1536 0 l 1,13,-1
 256 0 l 1,4,-1
EndSplineSet
Validated: 1
EndChar

StartChar: c
Encoding: 99 99 251
AltUni2: 00ef03.ffffffff.0 00e143.ffffffff.0
Width: 2048
Flags: W
LayerCount: 2
Fore
SplineSet
512 0 m 1,0,-1
 512 256 l 1,1,-1
 256 256 l 1,2,-1
 256 1024 l 1,3,-1
 512 1024 l 1,4,-1
 512 1280 l 1,5,-1
 1536 1280 l 1,6,-1
 1536 1024 l 1,7,-1
 768 1024 l 1,8,-1
 768 256 l 1,9,-1
 1536 256 l 1,10,-1
 1536 0 l 1,11,-1
 512 0 l 1,0,-1
EndSplineSet
Validated: 1
EndChar

StartChar: e
Encoding: 101 101 253
AltUni2: 00ef05.ffffffff.0 00e145.ffffffff.0
Width: 2048
Flags: W
LayerCount: 2
Fore
SplineSet
1280 1024 m 1,0,-1
 768 1024 l 1,1,-1
 768 768 l 1,2,-1
 1280 768 l 1,3,-1
 1280 1024 l 1,0,-1
1536 1280 m 1,4,-1
 1536 1024 l 1,5,-1
 1792 1024 l 1,6,-1
 1792 512 l 1,7,-1
 768 512 l 1,8,-1
 768 256 l 1,9,-1
 1536 256 l 1,10,-1
 1536 0 l 1,11,-1
 512 0 l 1,12,-1
 512 256 l 1,13,-1
 256 256 l 1,14,-1
 256 1024 l 1,15,-1
 512 1024 l 1,16,-1
 512 1280 l 1,17,-1
 1536 1280 l 1,4,-1
EndSplineSet
Validated: 1
EndChar

StartChar: g
Encoding: 103 103 255
AltUni2: 00ef07.ffffffff.0 00e147.ffffffff.0
Width: 2048
Flags: W
LayerCount: 2
Fore
SplineSet
1792 1536 m 1,0,-1
 1792 1792 l 1,1,-1
 2048 1792 l 1,2,-1
 2048 1536 l 1,3,-1
 1792 1536 l 1,0,-1
1280 1536 m 1,4,-1
 1280 1792 l 1,5,-1
 1536 1792 l 1,6,-1
 1536 1536 l 1,7,-1
 1280 1536 l 1,4,-1
768 1536 m 1,8,-1
 768 1792 l 1,9,-1
 1024 1792 l 1,10,-1
 1024 1536 l 1,11,-1
 768 1536 l 1,8,-1
256 1536 m 1,12,-1
 256 1792 l 1,13,-1
 512 1792 l 1,14,-1
 512 1536 l 1,15,-1
 256 1536 l 1,12,-1
1536 1280 m 1,16,-1
 1536 1536 l 1,17,-1
 1792 1536 l 1,18,-1
 1792 1280 l 1,19,-1
 1536 1280 l 1,16,-1
1024 1280 m 1,20,-1
 1024 1536 l 1,21,-1
 1280 1536 l 1,22,-1
 1280 1280 l 1,23,-1
 1024 1280 l 1,20,-1
512 1280 m 1,24,-1
 512 1536 l 1,25,-1
 768 1536 l 1,26,-1
 768 1280 l 1,27,-1
 512 1280 l 1,24,-1
0 1280 m 1,28,-1
 0 1536 l 1,29,-1
 256 1536 l 1,30,-1
 256 1280 l 1,31,-1
 0 1280 l 1,28,-1
1792 1025 m 1,32,-1
 1792 1280 l 1,33,-1
 2048 1280 l 1,34,-1
 2048 1024 l 1,35,-1
 1792 1025 l 1,32,-1
1280 1025 m 1,36,-1
 1280 1280 l 1,37,-1
 1536 1280 l 1,38,-1
 1536 1025 l 1,39,-1
 1280 1025 l 1,36,-1
768 1025 m 1,40,-1
 768 1280 l 1,41,-1
 1024 1280 l 1,42,-1
 1024 1025 l 1,43,-1
 768 1025 l 1,40,-1
256 1025 m 1,44,-1
 256 1280 l 1,45,-1
 512 1280 l 1,46,-1
 512 1025 l 1,47,-1
 256 1025 l 1,44,-1
1536 768 m 1,48,-1
 1536 1025 l 1,49,-1
 1792 1025 l 1,50,-1
 1792 768 l 1,51,-1
 1536 768 l 1,48,-1
1024 768 m 1,52,-1
 1024 1025 l 1,53,-1
 1280 1025 l 1,54,-1
 1280 768 l 1,55,-1
 1024 768 l 1,52,-1
512 768 m 1,56,-1
 512 1025 l 1,57,-1
 768 1025 l 1,58,-1
 768 768 l 1,59,-1
 512 768 l 1,56,-1
0 768 m 1,60,-1
 0 1025 l 1,61,-1
 256 1025 l 1,62,-1
 256 768 l 1,63,-1
 0 768 l 1,60,-1
1792 512 m 1,64,-1
 1792 768 l 1,65,-1
 2048 768 l 1,66,-1
 2048 512 l 1,67,-1
 1792 512 l 1,64,-1
1280 512 m 1,68,-1
 1280 768 l 1,69,-1
 1536 768 l 1,70,-1
 1536 512 l 1,71,-1
 1280 512 l 1,68,-1
768 512 m 1,72,-1
 768 768 l 1,73,-1
 1024 768 l 1,74,-1
 1024 512 l 1,75,-1
 768 512 l 1,72,-1
256 512 m 1,76,-1
 256 768 l 1,77,-1
 512 768 l 1,78,-1
 512 512 l 1,79,-1
 256 512 l 1,76,-1
1536 256 m 1,80,-1
 1536 512 l 1,81,-1
 1792 512 l 1,82,-1
 1792 256 l 1,83,-1
 1536 256 l 1,80,-1
1024 256 m 1,84,-1
 1024 512 l 1,85,-1
 1280 512 l 1,86,-1
 1280 256 l 1,87,-1
 1024 256 l 1,84,-1
512 256 m 1,88,-1
 512 512 l 1,89,-1
 768 512 l 1,90,-1
 768 256 l 1,91,-1
 512 256 l 1,88,-1
0 256 m 1,92,-1
 0 512 l 1,93,-1
 256 512 l 1,94,-1
 256 256 l 1,95,-1
 0 256 l 1,92,-1
1792 -4 m 1,96,-1
 1792 256 l 1,97,-1
 2048 256 l 1,98,-1
 2048 -4 l 1,99,-1
 1792 -4 l 1,96,-1
1280 -4 m 1,100,-1
 1280 256 l 1,101,-1
 1536 256 l 1,102,-1
 1536 -4 l 1,103,-1
 1280 -4 l 1,100,-1
768 -4 m 1,104,-1
 768 256 l 1,105,-1
 1024 256 l 1,106,-1
 1024 -4 l 1,107,-1
 768 -4 l 1,104,-1
256 0 m 1,108,-1
 256 256 l 1,109,-1
 512 256 l 1,110,-1
 512 -4 l 1,111,-1
 256 0 l 1,108,-1
1536 -256 m 1,112,-1
 1536 -4 l 1,113,-1
 1792 -4 l 1,114,-1
 1792 -256 l 1,115,-1
 1536 -256 l 1,112,-1
1024 -256 m 1,116,-1
 1024 -4 l 1,117,-1
 1280 -4 l 1,118,-1
 1280 -256 l 1,119,-1
 1024 -256 l 1,116,-1
512 -256 m 1,120,-1
 512 -4 l 1,121,-1
 768 -4 l 1,122,-1
 768 -256 l 1,123,-1
 512 -256 l 1,120,-1
0 -256 m 1,124,-1
 0 -4 l 1,125,-1
 256 -4 l 1,126,-1
 256 -256 l 1,127,-1
 0 -256 l 1,124,-1
EndSplineSet
EndChar

StartChar: h
Encoding: 104 104 256
AltUni2: 00ef08.ffffffff.0 00e148.ffffffff.0
Width: 2048
Flags: W
LayerCount: 2
Fore
SplineSet
512 1280 m 1,0,-1
 512 1536 l 1,1,-1
 1536 1536 l 1,2,-1
 1536 1280 l 1,3,-1
 512 1280 l 1,0,-1
768 1024 m 1,4,-1
 768 1280 l 1,5,-1
 1281 1280 l 1,6,-1
 1281 1024 l 1,7,-1
 768 1024 l 1,4,-1
512 768 m 1,8,-1
 512 1024 l 1,9,-1
 1536 1024 l 1,10,-1
 1536 768 l 1,11,-1
 512 768 l 1,8,-1
256 0 m 1,12,-1
 256 768 l 1,13,-1
 1792 768 l 5,14,-1
 1792 0 l 5,15,-1
 256 0 l 1,12,-1
512 -256 m 1,16,-1
 512 0 l 1,17,-1
 1536 0 l 1,18,-1
 1536 -256 l 1,19,-1
 512 -256 l 1,16,-1
EndSplineSet
EndChar

StartChar: i
Encoding: 105 105 257
AltUni2: 00ef09.ffffffff.0 00e149.ffffffff.0
Width: 2048
Flags: W
LayerCount: 2
Fore
SplineSet
512 1280 m 1,0,-1
 512 1536 l 5,1,-1
 1280 1536 l 5,2,-1
 1280 1280 l 1,3,-1
 512 1280 l 1,0,-1
768 1024 m 1,4,-1
 256 1024 l 1,5,-1
 256 1280 l 1,6,-1
 768 1280 l 1,7,-1
 768 1024 l 1,4,-1
1536 1024 m 1,8,-1
 1280 1024 l 1,9,-1
 1280 1280 l 1,10,-1
 1536 1280 l 1,11,-1
 1536 1024 l 1,8,-1
1536 1024 m 1,12,-1
 1792 1024 l 1,13,-1
 1792 768 l 1,14,-1
 1536 768 l 1,15,-1
 1536 1024 l 1,12,-1
256 768 m 1,16,-1
 256 1024 l 1,17,-1
 1024 1024 l 1,18,-1
 1024 768 l 1,19,-1
 256 768 l 1,16,-1
768 512 m 1,20,-1
 768 768 l 1,21,-1
 2048 768 l 1,22,-1
 2048 512 l 1,23,-1
 768 512 l 1,20,-1
512 256 m 1,24,-1
 256 256 l 1,25,-1
 256 768 l 1,26,-1
 512 768 l 1,27,-1
 512 256 l 1,24,-1
1792 0 m 1,28,-1
 1792 512 l 1,29,-1
 2048 512 l 1,30,-1
 2048 0 l 1,31,-1
 1792 0 l 1,28,-1
1024 0 m 1,32,-1
 1024 512 l 1,33,-1
 1280 512 l 1,34,-1
 1280 0 l 1,35,-1
 1024 0 l 1,32,-1
512 256 m 1,36,-1
 768 256 l 1,37,-1
 768 0 l 1,38,-1
 512 0 l 1,39,-1
 512 256 l 1,36,-1
768 -256 m 1,40,-1
 768 0 l 1,41,-1
 2048 0 l 1,42,-1
 2048 -256 l 1,43,-1
 768 -256 l 1,40,-1
EndSplineSet
EndChar

StartChar: j
Encoding: 106 106 258
AltUni2: 00ef0a.ffffffff.0 00e14a.ffffffff.0
Width: 2048
Flags: W
LayerCount: 2
Fore
SplineSet
1280 1536 m 1,0,-1
 1280 1792 l 5,1,-1
 1536 1792 l 5,2,-1
 1536 1536 l 1,3,-1
 1280 1536 l 1,0,-1
768 1536 m 1,4,-1
 768 1792 l 5,5,-1
 1024 1792 l 5,6,-1
 1024 1536 l 1,7,-1
 768 1536 l 1,4,-1
1536 1280 m 1,8,-1
 1536 1536 l 1,9,-1
 1792 1536 l 1,10,-1
 1792 1280 l 1,11,-1
 1536 1280 l 1,8,-1
1024 1280 m 1,12,-1
 1024 1536 l 1,13,-1
 1280 1536 l 1,14,-1
 1280 1280 l 1,15,-1
 1024 1280 l 1,12,-1
512 1280 m 1,16,-1
 512 1536 l 1,17,-1
 768 1536 l 1,18,-1
 768 1280 l 1,19,-1
 512 1280 l 1,16,-1
1280 1280 m 1,20,-1
 1536 1280 l 1,21,-1
 1536 768 l 1,22,-1
 1280 768 l 1,23,-1
 1280 1280 l 1,20,-1
1024 768 m 1,24,-1
 768 768 l 1,25,-1
 768 1280 l 1,26,-1
 1024 1280 l 1,27,-1
 1024 768 l 1,24,-1
1792 256 m 1,28,-1
 1792 768 l 1,29,-1
 2048 768 l 1,30,-1
 2048 256 l 1,31,-1
 1792 256 l 1,28,-1
512 256 m 1,32,-1
 256 256 l 1,33,-1
 256 768 l 1,34,-1
 512 768 l 1,35,-1
 512 256 l 1,32,-1
768 256 m 1,36,-1
 768 768 l 1,37,-1
 1536 768 l 1,38,-1
 1536 256 l 1,39,-1
 768 256 l 1,36,-1
512 256 m 1,40,-1
 1792 256 l 1,41,-1
 1792 0 l 1,42,-1
 512 0 l 1,43,-1
 512 256 l 1,40,-1
1536 0 m 1,44,-1
 2048 0 l 1,45,-1
 2048 -256 l 1,46,-1
 1536 -256 l 1,47,-1
 1536 0 l 1,44,-1
256 -256 m 1,48,-1
 256 0 l 1,49,-1
 768 0 l 1,50,-1
 768 -256 l 1,51,-1
 256 -256 l 1,48,-1
EndSplineSet
EndChar

StartChar: k
Encoding: 107 107 259
AltUni2: 00ef0b.ffffffff.0 00e14b.ffffffff.0
Width: 2048
Flags: W
LayerCount: 2
Fore
SplineSet
512 1536 m 1,0,-1
 512 1792 l 5,1,-1
 1536 1792 l 5,2,-1
 1536 1536 l 1,3,-1
 512 1536 l 1,0,-1
1792 1281 m 1,4,-1
 256 1281 l 1,5,-1
 256 1536 l 1,6,-1
 1792 1536 l 1,7,-1
 1792 1281 l 1,4,-1
0 512 m 1,8,-1
 0 1281 l 1,9,-1
 2048 1281 l 1,10,-1
 2048 512 l 1,11,-1
 0 512 l 1,8,-1
1536 256 m 1,12,-1
 0 256 l 1,13,-1
 0 512 l 1,14,-1
 1536 512 l 1,15,-1
 1536 256 l 1,12,-1
2048 256 m 1,16,-1
 1792 256 l 1,17,-1
 1792 512 l 1,18,-1
 2048 512 l 1,19,-1
 2048 256 l 1,16,-1
0 -256 m 1,20,-1
 0 256 l 1,21,-1
 2048 256 l 1,22,-1
 2048 -256 l 1,23,-1
 0 -256 l 1,20,-1
EndSplineSet
EndChar

StartChar: l
Encoding: 108 108 260
AltUni2: 00ef0c.ffffffff.0 00e14c.ffffffff.0
Width: 2048
Flags: W
LayerCount: 2
Fore
SplineSet
1536 0 m 1,0,-1
 1280 0 l 1,1,-1
 1280 256 l 1,2,-1
 1536 256 l 1,3,-1
 1536 0 l 1,0,-1
1792 1280 m 1,4,-1
 2048 1280 l 1,5,-1
 2048 -256 l 1,6,-1
 1792 -256 l 1,7,-1
 1792 1280 l 1,4,-1
1536 1536 m 1,8,-1
 1792 1536 l 1,9,-1
 1792 1024 l 1,10,-1
 1536 1024 l 1,11,-1
 1536 1536 l 1,8,-1
1280 1536 m 1,12,-1
 1536 1536 l 1,13,-1
 1536 1280 l 1,14,-1
 1280 1280 l 1,15,-1
 1280 1536 l 1,12,-1
512 1536 m 1,16,-1
 512 1792 l 5,17,-1
 1536 1792 l 5,18,-1
 1536 1536 l 1,19,-1
 512 1536 l 1,16,-1
512 1280 m 1,20,-1
 512 1536 l 1,21,-1
 768 1536 l 1,22,-1
 768 1280 l 1,23,-1
 512 1280 l 1,20,-1
256 1024 m 1,24,-1
 256 1536 l 1,25,-1
 512 1536 l 1,26,-1
 512 1024 l 1,27,-1
 256 1024 l 1,24,-1
0 -256 m 1,28,-1
 0 1280 l 1,29,-1
 256 1280 l 1,30,-1
 256 -256 l 1,31,-1
 0 -256 l 1,28,-1
EndSplineSet
EndChar

StartChar: m
Encoding: 109 109 261
AltUni2: 00ef0d.ffffffff.0 00e14d.ffffffff.0
Width: 2048
Flags: W
LayerCount: 2
Fore
SplineSet
1792 1536 m 1,0,-1
 1792 1792 l 5,1,-1
 2048 1792 l 5,2,-1
 2048 1536 l 1,3,-1
 1792 1536 l 1,0,-1
1536 1280 m 1,4,-1
 1536 1536 l 1,5,-1
 1792 1536 l 1,6,-1
 1792 1280 l 1,7,-1
 1536 1280 l 1,4,-1
1280 1024 m 1,8,-1
 1280 1280 l 1,9,-1
 1536 1280 l 1,10,-1
 1536 1024 l 1,11,-1
 1280 1024 l 1,8,-1
256 1536 m 1,12,-1
 0 1536 l 1,13,-1
 0 1792 l 5,14,-1
 256 1792 l 5,15,-1
 256 1536 l 1,12,-1
512 1280 m 1,16,-1
 256 1280 l 1,17,-1
 256 1536 l 1,18,-1
 512 1536 l 1,19,-1
 512 1280 l 1,16,-1
768 1024 m 1,20,-1
 512 1024 l 1,21,-1
 512 1280 l 1,22,-1
 768 1280 l 1,23,-1
 768 1024 l 1,20,-1
1280 256 m 1,24,-1
 1280 512 l 1,25,-1
 1536 512 l 1,26,-1
 1536 256 l 1,27,-1
 1280 256 l 1,24,-1
512 256 m 1,28,-1
 512 512 l 1,29,-1
 768 512 l 1,30,-1
 768 256 l 1,31,-1
 512 256 l 1,28,-1
1536 0 m 1,32,-1
 1536 256 l 1,33,-1
 1792 256 l 1,34,-1
 1792 0 l 1,35,-1
 1536 0 l 1,32,-1
256 0 m 1,36,-1
 256 256 l 1,37,-1
 512 256 l 1,38,-1
 512 0 l 1,39,-1
 256 0 l 1,36,-1
1792 0 m 1,40,-1
 2048 0 l 1,41,-1
 2048 -256 l 1,42,-1
 1792 -256 l 1,43,-1
 1792 0 l 1,40,-1
0 0 m 1,44,-1
 256 0 l 1,45,-1
 256 -256 l 1,46,-1
 0 -256 l 1,47,-1
 0 0 l 1,44,-1
EndSplineSet
EndChar

StartChar: n
Encoding: 110 110 262
AltUni2: 00ef0e.ffffffff.0 00e14e.ffffffff.0
Width: 2048
Flags: W
LayerCount: 2
Fore
SplineSet
1536 1280 m 1,0,-1
 1792 1280 l 1,1,-1
 1792 256 l 1,2,-1
 1536 256 l 1,3,-1
 1536 1280 l 1,0,-1
516 1280 m 1,4,-1
 516 1536 l 5,5,-1
 1536 1536 l 5,6,-1
 1536 1280 l 1,7,-1
 516 1280 l 1,4,-1
256 256 m 1,8,-1
 256 1280 l 1,9,-1
 516 1280 l 1,10,-1
 516 256 l 1,11,-1
 256 256 l 1,8,-1
516 0 m 1,12,-1
 516 256 l 1,13,-1
 1536 256 l 1,14,-1
 1536 0 l 1,15,-1
 516 0 l 1,12,-1
EndSplineSet
EndChar

StartChar: o
Encoding: 111 111 263
AltUni2: 00ef0f.ffffffff.0 00e14f.ffffffff.0
Width: 2048
Flags: W
LayerCount: 2
Fore
SplineSet
1024 1536 m 1,0,-1
 1024 1792 l 1,1,-1
 1536 1792 l 1,2,-1
 1536 1536 l 1,3,-1
 1024 1536 l 1,0,-1
256 1536 m 1,4,-1
 256 1792 l 1,5,-1
 512 1792 l 1,6,-1
 512 1536 l 1,7,-1
 256 1536 l 1,4,-1
768 1280 m 1,8,-1
 768 1536 l 1,9,-1
 1792 1536 l 1,10,-1
 1792 1280 l 1,11,-1
 768 1280 l 1,8,-1
1536 1026 m 1,12,-1
 1536 1280 l 1,13,-1
 1792 1280 l 1,14,-1
 1792 1026 l 1,15,-1
 1536 1026 l 1,12,-1
1024 1026 m 1,16,-1
 1024 1280 l 1,17,-1
 1280 1280 l 1,18,-1
 1280 1026 l 1,19,-1
 1024 1026 l 1,16,-1
512 1026 m 1,20,-1
 512 1280 l 1,21,-1
 768 1280 l 1,22,-1
 768 1026 l 1,23,-1
 512 1026 l 1,20,-1
512 768 m 1,24,-1
 512 1026 l 1,25,-1
 1792 1026 l 1,26,-1
 1792 768 l 1,27,-1
 512 768 l 1,24,-1
0 768 m 1,28,-1
 0 1536 l 1,29,-1
 256 1536 l 1,30,-1
 256 768 l 1,31,-1
 0 768 l 1,28,-1
1280 512 m 1,32,-1
 1280 768 l 1,33,-1
 1536 768 l 1,34,-1
 1536 512 l 1,35,-1
 1280 512 l 1,32,-1
768 512 m 1,36,-1
 768 768 l 1,37,-1
 1024 768 l 1,38,-1
 1024 512 l 1,39,-1
 768 512 l 1,36,-1
256 512 m 1,40,-1
 256 768 l 1,41,-1
 512 768 l 1,42,-1
 512 512 l 1,43,-1
 256 512 l 1,40,-1
768 256 m 1,44,-1
 768 512 l 1,45,-1
 1792 512 l 1,46,-1
 1792 256 l 1,47,-1
 768 256 l 1,44,-1
1792 0 m 1,48,-1
 1792 256 l 1,49,-1
 2048 256 l 5,50,-1
 2048 0 l 5,51,-1
 1792 0 l 1,48,-1
1280 0 m 1,52,-1
 1280 256 l 1,53,-1
 1536 256 l 1,54,-1
 1536 0 l 1,55,-1
 1280 0 l 1,52,-1
512 0 m 1,56,-1
 512 256 l 1,57,-1
 768 256 l 1,58,-1
 768 0 l 1,59,-1
 512 0 l 1,56,-1
768 -256 m 1,60,-1
 768 0 l 1,61,-1
 1280 0 l 1,62,-1
 1280 -256 l 1,63,-1
 768 -256 l 1,60,-1
256 0 m 1,64,-1
 512 0 l 1,65,-1
 512 -256 l 1,66,-1
 256 -256 l 1,67,-1
 256 0 l 1,64,-1
EndSplineSet
EndChar

StartChar: p
Encoding: 112 112 264
AltUni2: 00ef10.ffffffff.0 00e150.ffffffff.0
Width: 2048
Flags: W
LayerCount: 2
Fore
SplineSet
512 1536 m 1,0,-1
 512 1792 l 5,1,-1
 1280 1792 l 5,2,-1
 1280 1536 l 1,3,-1
 512 1536 l 1,0,-1
1280 1280 m 1,4,-1
 1280 1536 l 1,5,-1
 1537 1536 l 1,6,-1
 1537 1280 l 1,7,-1
 1280 1280 l 1,4,-1
768 1280 m 1,8,-1
 768 1536 l 1,9,-1
 1024 1536 l 1,10,-1
 1024 1280 l 1,11,-1
 768 1280 l 1,8,-1
256 1280 m 1,12,-1
 256 1536 l 1,13,-1
 512 1536 l 1,14,-1
 512 1280 l 1,15,-1
 256 1280 l 1,12,-1
256 1024 m 1,16,-1
 256 1280 l 1,17,-1
 1537 1280 l 1,18,-1
 1537 1024 l 1,19,-1
 256 1024 l 1,16,-1
512 768 m 1,20,-1
 512 1024 l 1,21,-1
 1280 1024 l 1,22,-1
 1280 768 l 1,23,-1
 512 768 l 1,20,-1
1024 512 m 1,24,-1
 1024 768 l 1,25,-1
 1280 768 l 1,26,-1
 1280 512 l 1,27,-1
 1024 512 l 1,24,-1
1537 256 m 1,28,-1
 1280 256 l 1,29,-1
 1280 768 l 1,30,-1
 1537 768 l 1,31,-1
 1537 256 l 1,28,-1
512 512 m 1,32,-1
 512 768 l 1,33,-1
 768 768 l 1,34,-1
 768 512 l 1,35,-1
 512 512 l 1,32,-1
256 256 m 1,36,-1
 256 512 l 1,37,-1
 512 512 l 1,38,-1
 512 256 l 1,39,-1
 256 256 l 1,36,-1
1280 256 m 1,40,-1
 1792 256 l 1,41,-1
 1792 0 l 1,42,-1
 1280 0 l 1,43,-1
 1280 256 l 1,40,-1
256 256 m 1,44,-1
 768 256 l 1,45,-1
 768 0 l 1,46,-1
 256 0 l 1,47,-1
 256 256 l 1,44,-1
EndSplineSet
EndChar

StartChar: q
Encoding: 113 113 265
AltUni2: 00ef11.ffffffff.0 00e151.ffffffff.0
Width: 2048
Flags: W
LayerCount: 2
Fore
SplineSet
1024 1280 m 1,0,-1
 1024 1535 l 1,1,-1
 1280 1535 l 1,2,-1
 1280 1280 l 1,3,-1
 1024 1280 l 1,0,-1
768 1024 m 1,4,-1
 768 1280 l 1,5,-1
 1536 1280 l 1,6,-1
 1536 1024 l 1,7,-1
 768 1024 l 1,4,-1
1536 1024 m 1,8,-1
 1792 1024 l 1,9,-1
 1792 768 l 1,10,-1
 1536 768 l 1,11,-1
 1536 1024 l 1,8,-1
1024 1024 m 1,12,-1
 1280 1024 l 1,13,-1
 1280 768 l 1,14,-1
 1024 768 l 1,15,-1
 1024 1024 l 1,12,-1
512 1024 m 1,16,-1
 768 1024 l 1,17,-1
 768 768 l 1,18,-1
 512 768 l 1,19,-1
 512 1024 l 1,16,-1
256 768 m 1,20,-1
 2048 768 l 1,21,-1
 2048 512 l 1,22,-1
 256 512 l 1,23,-1
 256 768 l 1,20,-1
1792 0 m 1,24,-1
 1792 512 l 1,25,-1
 2048 512 l 1,26,-1
 2048 0 l 1,27,-1
 1792 0 l 1,24,-1
1280 256 m 1,28,-1
 1280 512 l 1,29,-1
 1536 512 l 1,30,-1
 1536 256 l 1,31,-1
 1280 256 l 1,28,-1
768 512 m 1,32,-1
 1024 512 l 1,33,-1
 1024 256 l 1,34,-1
 768 256 l 1,35,-1
 768 512 l 1,32,-1
512 0 m 1,36,-1
 256 0 l 1,37,-1
 256 512 l 1,38,-1
 512 512 l 1,39,-1
 512 0 l 1,36,-1
1536 -256 m 5,40,-1
 1536 0 l 1,41,-1
 1792 0 l 1,42,-1
 1792 -256 l 5,43,-1
 1536 -256 l 5,40,-1
512 -256 m 5,44,-1
 512 0 l 1,45,-1
 768 0 l 1,46,-1
 768 -256 l 5,47,-1
 512 -256 l 5,44,-1
EndSplineSet
EndChar

StartChar: r
Encoding: 114 114 266
AltUni2: 00ef12.ffffffff.0 00e152.ffffffff.0
Width: 2048
Flags: W
LayerCount: 2
Fore
SplineSet
256 0 m 1,0,-1
 256 1280 l 1,1,-1
 1536 1280 l 1,2,-1
 1536 1024 l 1,3,-1
 1792 1024 l 1,4,-1
 1792 768 l 1,5,-1
 1280 768 l 1,6,-1
 1280 1024 l 1,7,-1
 768 1024 l 1,8,-1
 768 0 l 1,9,-1
 256 0 l 1,0,-1
EndSplineSet
Validated: 1
EndChar

StartChar: s
Encoding: 115 115 267
AltUni2: 00ef13.ffffffff.0 00e153.ffffffff.0
Width: 2048
Flags: W
LayerCount: 2
Fore
SplineSet
1792 1280 m 1,0,-1
 1792 1024 l 1,1,-1
 768 1024 l 1,2,-1
 768 768 l 1,3,-1
 1536 768 l 1,4,-1
 1536 512 l 1,5,-1
 1792 512 l 1,6,-1
 1792 256 l 1,7,-1
 1536 256 l 1,8,-1
 1536 0 l 1,9,-1
 256 0 l 1,10,-1
 256 256 l 1,11,-1
 1280 256 l 1,12,-1
 1280 512 l 1,13,-1
 512 512 l 1,14,-1
 512 768 l 1,15,-1
 256 768 l 1,16,-1
 256 1024 l 1,17,-1
 512 1024 l 1,18,-1
 512 1280 l 1,19,-1
 1792 1280 l 1,0,-1
EndSplineSet
Validated: 1
EndChar

StartChar: t
Encoding: 116 116 268
AltUni2: 00ef14.ffffffff.0 00e154.ffffffff.0
Width: 2048
Flags: W
LayerCount: 2
Fore
SplineSet
1280 1536 m 1,0,-1
 1280 1280 l 1,1,-1
 1792 1280 l 1,2,-1
 1792 1024 l 1,3,-1
 1280 1024 l 1,4,-1
 1280 256 l 1,5,-1
 1792 256 l 1,6,-1
 1792 0 l 1,7,-1
 1024 0 l 1,8,-1
 1024 256 l 1,9,-1
 768 256 l 1,10,-1
 768 1024 l 1,11,-1
 256 1024 l 1,12,-1
 256 1280 l 1,13,-1
 768 1280 l 1,14,-1
 768 1536 l 1,15,-1
 1280 1536 l 1,0,-1
EndSplineSet
Validated: 1
EndChar

StartChar: v
Encoding: 118 118 270
AltUni2: 00ef16.ffffffff.0 00e156.ffffffff.0
Width: 2048
Flags: W
LayerCount: 2
Fore
SplineSet
768 0 m 1,0,-1
 768 256 l 1,1,-1
 512 256 l 1,2,-1
 512 512 l 1,3,-1
 256 512 l 1,4,-1
 256 1280 l 1,5,-1
 768 1280 l 1,6,-1
 768 512 l 1,7,-1
 1280 512 l 1,8,-1
 1280 1280 l 1,9,-1
 1792 1280 l 1,10,-1
 1792 512 l 1,11,-1
 1536 512 l 1,12,-1
 1536 256 l 1,13,-1
 1280 256 l 1,14,-1
 1280 0 l 1,15,-1
 768 0 l 1,0,-1
EndSplineSet
Validated: 1
EndChar

StartChar: w
Encoding: 119 119 271
AltUni2: 00ef17.ffffffff.0 00e157.ffffffff.0
Width: 2048
Flags: W
LayerCount: 2
Fore
SplineSet
512 0 m 1,0,-1
 512 512 l 1,1,-1
 256 512 l 1,2,-1
 256 1280 l 1,3,-1
 768 1280 l 1,4,-1
 768 768 l 1,5,-1
 1024 768 l 1,6,-1
 1024 1024 l 1,7,-1
 1280 1024 l 1,8,-1
 1280 768 l 1,9,-1
 1536 768 l 1,10,-1
 1536 1280 l 1,11,-1
 2048 1280 l 1,12,-1
 2048 512 l 1,13,-1
 1792 512 l 1,14,-1
 1792 0 l 1,15,-1
 1280 0 l 1,16,-1
 1280 256 l 1,17,-1
 1024 256 l 1,18,-1
 1024 0 l 1,19,-1
 512 0 l 1,0,-1
EndSplineSet
Validated: 1
EndChar

StartChar: x
Encoding: 120 120 272
AltUni2: 00ef18.ffffffff.0 00e158.ffffffff.0
Width: 2048
Flags: W
LayerCount: 2
Fore
SplineSet
256 0 m 1,0,-1
 256 256 l 1,1,-1
 512 256 l 1,2,-1
 512 512 l 1,3,-1
 768 512 l 1,4,-1
 768 768 l 1,5,-1
 512 768 l 1,6,-1
 512 1024 l 1,7,-1
 256 1024 l 1,8,-1
 256 1280 l 1,9,-1
 768 1280 l 1,10,-1
 768 1024 l 1,11,-1
 1280 1024 l 1,12,-1
 1280 1280 l 1,13,-1
 1792 1280 l 1,14,-1
 1792 1024 l 1,15,-1
 1536 1024 l 1,16,-1
 1536 768 l 1,17,-1
 1280 768 l 1,18,-1
 1280 512 l 1,19,-1
 1536 512 l 1,20,-1
 1536 256 l 1,21,-1
 1792 256 l 1,22,-1
 1792 0 l 1,23,-1
 1280 0 l 1,24,-1
 1280 256 l 1,25,-1
 768 256 l 1,26,-1
 768 0 l 1,27,-1
 256 0 l 1,0,-1
EndSplineSet
Validated: 1
EndChar

StartChar: y
Encoding: 121 121 273
AltUni2: 00ef19.ffffffff.0 00e159.ffffffff.0
Width: 2048
Flags: W
LayerCount: 2
Fore
SplineSet
1792 1280 m 1,0,-1
 1792 256 l 1,1,-1
 1536 256 l 1,2,-1
 1536 0 l 1,3,-1
 1280 0 l 1,4,-1
 1280 -256 l 1,5,-1
 256 -256 l 1,6,-1
 256 0 l 1,7,-1
 1024 0 l 1,8,-1
 1024 256 l 1,9,-1
 512 256 l 1,10,-1
 512 512 l 1,11,-1
 256 512 l 1,12,-1
 256 1280 l 1,13,-1
 768 1280 l 1,14,-1
 768 512 l 1,15,-1
 1280 512 l 1,16,-1
 1280 1280 l 1,17,-1
 1792 1280 l 1,0,-1
EndSplineSet
Validated: 1
EndChar

StartChar: z
Encoding: 122 122 274
AltUni2: 00ef1a.ffffffff.0 00e15a.ffffffff.0
Width: 2048
Flags: W
LayerCount: 2
Fore
SplineSet
256 0 m 1,0,-1
 256 256 l 1,1,-1
 512 256 l 1,2,-1
 512 512 l 1,3,-1
 768 512 l 1,4,-1
 768 768 l 1,5,-1
 1024 768 l 1,6,-1
 1024 1024 l 1,7,-1
 256 1024 l 1,8,-1
 256 1280 l 1,9,-1
 1792 1280 l 1,10,-1
 1792 1024 l 1,11,-1
 1536 1024 l 1,12,-1
 1536 768 l 1,13,-1
 1280 768 l 1,14,-1
 1280 512 l 1,15,-1
 1024 512 l 1,16,-1
 1024 256 l 1,17,-1
 1792 256 l 1,18,-1
 1792 0 l 1,19,-1
 256 0 l 1,0,-1
EndSplineSet
Validated: 1
EndChar

StartChar: uniE17F
Encoding: 57727 57727 275
AltUni2: 00ef5f.ffffffff.0 00e1df.ffffffff.0
Width: 2048
Flags: W
LayerCount: 2
Fore
SplineSet
1280 -256 m 1,0,-1
 1280 0 l 1,1,-1
 1024 0 l 1,2,-1
 1024 256 l 1,3,-1
 768 256 l 1,4,-1
 768 512 l 1,5,-1
 512 512 l 1,6,-1
 512 768 l 1,7,-1
 256 768 l 1,8,-1
 256 1024 l 1,9,-1
 0 1024 l 1,10,-1
 0 1536 l 1,11,-1
 256 1536 l 1,12,-1
 256 1280 l 1,13,-1
 512 1280 l 1,14,-1
 512 1024 l 1,15,-1
 768 1024 l 1,16,-1
 768 768 l 1,17,-1
 1024 768 l 1,18,-1
 1024 512 l 1,19,-1
 1280 512 l 1,20,-1
 1280 256 l 1,21,-1
 1536 256 l 1,22,-1
 1536 0 l 1,23,-1
 1792 0 l 1,24,-1
 1792 -256 l 1,25,-1
 1280 -256 l 1,0,-1
1792 256 m 1,26,-1
 1792 512 l 1,27,-1
 1536 512 l 1,28,-1
 1536 768 l 1,29,-1
 1280 768 l 1,30,-1
 1280 1024 l 1,31,-1
 1024 1024 l 1,32,-1
 1024 1280 l 1,33,-1
 768 1280 l 1,34,-1
 768 1536 l 1,35,-1
 512 1536 l 1,36,-1
 512 1792 l 1,37,-1
 1024 1792 l 1,38,-1
 1024 1536 l 1,39,-1
 1280 1536 l 1,40,-1
 1280 1280 l 1,41,-1
 1536 1280 l 1,42,-1
 1536 1024 l 1,43,-1
 1792 1024 l 1,44,-1
 1792 768 l 1,45,-1
 2048 768 l 1,46,-1
 2048 256 l 1,47,-1
 1792 256 l 1,26,-1
1792 1280 m 1,48,-1
 1792 1536 l 1,49,-1
 1536 1536 l 1,50,-1
 1536 1792 l 1,51,-1
 2048 1792 l 1,52,-1
 2048 1280 l 1,53,-1
 1792 1280 l 1,48,-1
256 -256 m 1,54,-1
 256 0 l 1,55,-1
 0 0 l 1,56,-1
 0 512 l 1,57,-1
 256 512 l 1,58,-1
 256 256 l 1,59,-1
 512 256 l 1,60,-1
 512 0 l 1,61,-1
 768 0 l 1,62,-1
 768 -256 l 1,63,-1
 256 -256 l 1,54,-1
EndSplineSet
Validated: 1
EndChar

StartChar: uni2713
Encoding: 10003 10003 277
AltUni2: 00ef7a.ffffffff.0 00e1fa.ffffffff.0 00e1ba.ffffffff.0
Width: 2048
Flags: W
LayerCount: 2
Fore
SplineSet
256 0 m 1,0,-1
 256 1024 l 1,1,-1
 768 1024 l 1,2,-1
 768 768 l 1,3,-1
 1024 768 l 1,4,-1
 1024 1024 l 1,5,-1
 1280 1024 l 1,6,-1
 1280 1280 l 1,7,-1
 1536 1280 l 1,8,-1
 1536 1536 l 1,9,-1
 1792 1536 l 1,10,-1
 1792 1792 l 1,11,-1
 2048 1792 l 1,12,-1
 2048 1280 l 1,13,-1
 1792 1280 l 1,14,-1
 1792 1024 l 1,15,-1
 1536 1024 l 1,16,-1
 1536 768 l 1,17,-1
 1280 768 l 1,18,-1
 1280 512 l 1,19,-1
 1024 512 l 1,20,-1
 1024 256 l 1,21,-1
 768 256 l 1,22,-1
 768 0 l 1,23,-1
 256 0 l 1,0,-1
EndSplineSet
Validated: 1
EndChar

StartChar: uniEF81
Encoding: 58177 58177 278
AltUni2: 00ef81.ffffffff.0
Width: 2048
Flags: W
LayerCount: 2
Fore
SplineSet
0 -256 m 1,0,-1
 0 1792 l 1,1,-1
 2048 1792 l 1,2,-1
 2048 -256 l 1,3,-1
 0 -256 l 1,0,-1
512 0 m 1,4,-1
 1792 0 l 1,5,-1
 1792 1024 l 1,6,-1
 1536 1024 l 1,7,-1
 1536 1280 l 1,8,-1
 512 1280 l 1,9,-1
 512 1024 l 1,10,-1
 1280 1024 l 1,11,-1
 1280 768 l 1,12,-1
 512 768 l 1,13,-1
 512 512 l 1,14,-1
 256 512 l 1,15,-1
 256 256 l 1,16,-1
 512 256 l 1,17,-1
 512 0 l 1,4,-1
768 256 m 1,18,-1
 768 512 l 1,19,-1
 1280 512 l 1,20,-1
 1280 256 l 1,21,-1
 768 256 l 1,18,-1
EndSplineSet
Validated: 1
EndChar

StartChar: uniEF82
Encoding: 58178 58178 279
AltUni2: 00ef82.ffffffff.0
Width: 2048
Flags: W
LayerCount: 2
Fore
SplineSet
768 256 m 1,0,-1
 768 768 l 1,1,-1
 1280 768 l 1,2,-1
 1280 256 l 1,3,-1
 768 256 l 1,0,-1
256 0 m 1,4,-1
 1536 0 l 1,5,-1
 1536 256 l 1,6,-1
 1792 256 l 1,7,-1
 1792 768 l 1,8,-1
 1536 768 l 1,9,-1
 1536 1024 l 1,10,-1
 768 1024 l 1,11,-1
 768 1536 l 1,12,-1
 256 1536 l 1,13,-1
 256 0 l 1,4,-1
0 -256 m 1,14,-1
 0 1792 l 1,15,-1
 2048 1792 l 1,16,-1
 2048 -256 l 1,17,-1
 0 -256 l 1,14,-1
EndSplineSet
Validated: 1
EndChar

StartChar: uniEF83
Encoding: 58179 58179 280
AltUni2: 00ef83.ffffffff.0
Width: 2048
Flags: W
LayerCount: 2
Fore
SplineSet
0 -256 m 1,0,-1
 0 1792 l 1,1,-1
 2048 1792 l 1,2,-1
 2048 -256 l 1,3,-1
 0 -256 l 1,0,-1
512 0 m 1,4,-1
 1536 0 l 1,5,-1
 1536 256 l 1,6,-1
 768 256 l 1,7,-1
 768 1024 l 1,8,-1
 1536 1024 l 1,9,-1
 1536 1280 l 1,10,-1
 512 1280 l 1,11,-1
 512 1024 l 1,12,-1
 256 1024 l 1,13,-1
 256 256 l 1,14,-1
 512 256 l 1,15,-1
 512 0 l 1,4,-1
EndSplineSet
Validated: 1
EndChar

StartChar: uniEF85
Encoding: 58181 58181 282
AltUni2: 00ef85.ffffffff.0
Width: 2048
Flags: W
LayerCount: 2
Fore
SplineSet
768 768 m 1,0,-1
 768 1024 l 1,1,-1
 1280 1024 l 1,2,-1
 1280 768 l 1,3,-1
 768 768 l 1,0,-1
2048 1792 m 1,4,-1
 2048 -256 l 1,5,-1
 0 -256 l 1,6,-1
 0 1792 l 1,7,-1
 2048 1792 l 1,4,-1
1536 1280 m 1,8,-1
 512 1280 l 1,9,-1
 512 1024 l 1,10,-1
 256 1024 l 1,11,-1
 256 256 l 1,12,-1
 512 256 l 1,13,-1
 512 0 l 1,14,-1
 1536 0 l 1,15,-1
 1536 256 l 1,16,-1
 768 256 l 1,17,-1
 768 512 l 1,18,-1
 1792 512 l 1,19,-1
 1792 1024 l 1,20,-1
 1536 1024 l 1,21,-1
 1536 1280 l 1,8,-1
EndSplineSet
Validated: 1
EndChar

StartChar: uniEF86
Encoding: 58182 58182 283
AltUni2: 00ef86.ffffffff.0
Width: 2048
Flags: W
LayerCount: 2
Fore
SplineSet
768 0 m 1,0,-1
 1280 0 l 1,1,-1
 1280 768 l 1,2,-1
 1792 768 l 1,3,-1
 1792 1024 l 1,4,-1
 1280 1024 l 1,5,-1
 1280 1280 l 1,6,-1
 1792 1280 l 1,7,-1
 1792 1536 l 1,8,-1
 1024 1536 l 1,9,-1
 1024 1280 l 1,10,-1
 768 1280 l 1,11,-1
 768 1024 l 1,12,-1
 512 1024 l 1,13,-1
 512 768 l 1,14,-1
 768 768 l 1,15,-1
 768 0 l 1,0,-1
0 -256 m 1,16,-1
 0 1792 l 1,17,-1
 2048 1792 l 1,18,-1
 2048 -256 l 1,19,-1
 0 -256 l 1,16,-1
EndSplineSet
Validated: 1
EndChar

StartChar: uniEF87
Encoding: 58183 58183 284
AltUni2: 00ef87.ffffffff.0
Width: 2048
Flags: W
LayerCount: 2
Fore
SplineSet
0 -256 m 1,0,-1
 0 1792 l 1,1,-1
 2048 1792 l 1,2,-1
 2048 -256 l 1,3,-1
 1536 -256 l 1,4,-1
 1536 0 l 1,5,-1
 1792 0 l 1,6,-1
 1792 1280 l 1,7,-1
 512 1280 l 1,8,-1
 512 1024 l 1,9,-1
 256 1024 l 1,10,-1
 256 512 l 1,11,-1
 512 512 l 1,12,-1
 512 256 l 1,13,-1
 1280 256 l 1,14,-1
 1280 0 l 1,15,-1
 256 0 l 1,16,-1
 256 -256 l 1,17,-1
 0 -256 l 1,0,-1
768 512 m 1,18,-1
 768 1024 l 1,19,-1
 1280 1024 l 1,20,-1
 1280 512 l 1,21,-1
 768 512 l 1,18,-1
EndSplineSet
Validated: 1
EndChar

StartChar: uniEF88
Encoding: 58184 58184 285
AltUni2: 00ef88.ffffffff.0
Width: 2048
Flags: W
LayerCount: 2
Fore
SplineSet
256 0 m 1,0,-1
 768 0 l 1,1,-1
 768 768 l 1,2,-1
 1280 768 l 1,3,-1
 1280 0 l 1,4,-1
 1792 0 l 1,5,-1
 1792 768 l 1,6,-1
 1536 768 l 1,7,-1
 1536 1024 l 1,8,-1
 768 1024 l 1,9,-1
 768 1536 l 1,10,-1
 256 1536 l 1,11,-1
 256 0 l 1,0,-1
0 -256 m 1,12,-1
 0 1792 l 1,13,-1
 2048 1792 l 1,14,-1
 2048 -256 l 1,15,-1
 0 -256 l 1,12,-1
EndSplineSet
Validated: 1
EndChar

StartChar: uniEF89
Encoding: 58185 58185 286
AltUni2: 00ef89.ffffffff.0
Width: 2048
Flags: W
LayerCount: 2
Fore
SplineSet
512 0 m 1,0,-1
 1536 0 l 1,1,-1
 1536 256 l 1,2,-1
 1280 256 l 1,3,-1
 1280 1024 l 1,4,-1
 512 1024 l 1,5,-1
 512 768 l 1,6,-1
 768 768 l 1,7,-1
 768 256 l 1,8,-1
 512 256 l 1,9,-1
 512 0 l 1,0,-1
0 -256 m 1,10,-1
 0 1792 l 1,11,-1
 2048 1792 l 1,12,-1
 2048 -256 l 1,13,-1
 0 -256 l 1,10,-1
768 1280 m 1,14,-1
 1280 1280 l 1,15,-1
 1280 1536 l 1,16,-1
 768 1536 l 1,17,-1
 768 1280 l 1,14,-1
EndSplineSet
Validated: 1
EndChar

StartChar: uniEF8A
Encoding: 58186 58186 287
AltUni2: 00ef8a.ffffffff.0
Width: 2048
Flags: W
LayerCount: 2
Fore
SplineSet
1280 1280 m 1,0,-1
 1792 1280 l 1,1,-1
 1792 1536 l 1,2,-1
 1280 1536 l 1,3,-1
 1280 1280 l 1,0,-1
0 -256 m 1,4,-1
 0 1792 l 1,5,-1
 2048 1792 l 1,6,-1
 2048 -256 l 1,7,-1
 1536 -256 l 1,8,-1
 1536 0 l 1,9,-1
 1792 0 l 1,10,-1
 1792 1024 l 1,11,-1
 1280 1024 l 1,12,-1
 1280 0 l 1,13,-1
 512 0 l 1,14,-1
 512 -256 l 1,15,-1
 0 -256 l 1,4,-1
EndSplineSet
Validated: 1
EndChar

StartChar: uniEF8B
Encoding: 58187 58187 288
AltUni2: 00ef8b.ffffffff.0
Width: 2048
Flags: W
LayerCount: 2
Fore
SplineSet
256 0 m 1,0,-1
 768 0 l 1,1,-1
 768 512 l 1,2,-1
 1024 512 l 1,3,-1
 1024 256 l 1,4,-1
 1280 256 l 1,5,-1
 1280 0 l 1,6,-1
 1792 0 l 1,7,-1
 1792 256 l 1,8,-1
 1536 256 l 1,9,-1
 1536 512 l 1,10,-1
 1280 512 l 1,11,-1
 1280 768 l 1,12,-1
 1536 768 l 1,13,-1
 1536 1024 l 1,14,-1
 1024 1024 l 1,15,-1
 1024 768 l 1,16,-1
 768 768 l 1,17,-1
 768 1536 l 1,18,-1
 256 1536 l 1,19,-1
 256 0 l 1,0,-1
0 -256 m 1,20,-1
 0 1792 l 1,21,-1
 2048 1792 l 1,22,-1
 2048 -256 l 1,23,-1
 0 -256 l 1,20,-1
EndSplineSet
Validated: 1
EndChar

StartChar: uniEF8C
Encoding: 58188 58188 289
AltUni2: 00ef8c.ffffffff.0
Width: 2048
Flags: W
LayerCount: 2
Fore
SplineSet
2048 1792 m 1,0,-1
 2048 -256 l 1,1,-1
 0 -256 l 1,2,-1
 0 1792 l 1,3,-1
 2048 1792 l 1,0,-1
1280 1536 m 1,4,-1
 512 1536 l 1,5,-1
 512 1280 l 1,6,-1
 768 1280 l 1,7,-1
 768 256 l 1,8,-1
 512 256 l 1,9,-1
 512 0 l 1,10,-1
 1536 0 l 1,11,-1
 1536 256 l 1,12,-1
 1280 256 l 1,13,-1
 1280 1536 l 1,4,-1
EndSplineSet
Validated: 1
EndChar

StartChar: uniEF8D
Encoding: 58189 58189 290
AltUni2: 00ef8d.ffffffff.0
Width: 2048
Flags: W
LayerCount: 2
Fore
SplineSet
0 -256 m 1,0,-1
 0 1792 l 1,1,-1
 2048 1792 l 1,2,-1
 2048 1024 l 1,3,-1
 1792 1024 l 1,4,-1
 1792 1280 l 1,5,-1
 1280 1280 l 1,6,-1
 1280 1024 l 1,7,-1
 768 1024 l 1,8,-1
 768 1280 l 1,9,-1
 256 1280 l 1,10,-1
 256 0 l 1,11,-1
 768 0 l 1,12,-1
 768 512 l 1,13,-1
 1024 512 l 1,14,-1
 1024 256 l 1,15,-1
 1280 256 l 1,16,-1
 1280 512 l 1,17,-1
 1536 512 l 1,18,-1
 1536 0 l 1,19,-1
 2048 0 l 1,20,-1
 2048 -256 l 1,21,-1
 0 -256 l 1,0,-1
EndSplineSet
Validated: 1
EndChar

StartChar: uniEF8E
Encoding: 58190 58190 291
AltUni2: 00ef8e.ffffffff.0
Width: 2048
Flags: W
LayerCount: 2
Fore
SplineSet
256 0 m 1,0,-1
 768 0 l 1,1,-1
 768 1024 l 1,2,-1
 1280 1024 l 1,3,-1
 1280 0 l 1,4,-1
 1792 0 l 1,5,-1
 1792 1024 l 1,6,-1
 1536 1024 l 1,7,-1
 1536 1280 l 1,8,-1
 256 1280 l 1,9,-1
 256 0 l 1,0,-1
0 -256 m 1,10,-1
 0 1792 l 1,11,-1
 2048 1792 l 1,12,-1
 2048 -256 l 1,13,-1
 0 -256 l 1,10,-1
EndSplineSet
Validated: 1
EndChar

StartChar: uniEF8F
Encoding: 58191 58191 292
AltUni2: 00ef8f.ffffffff.0
Width: 2048
Flags: W
LayerCount: 2
Fore
SplineSet
0 -256 m 1,0,-1
 0 1792 l 1,1,-1
 2048 1792 l 1,2,-1
 2048 -256 l 1,3,-1
 0 -256 l 1,0,-1
512 0 m 1,4,-1
 1536 0 l 1,5,-1
 1536 256 l 1,6,-1
 1792 256 l 1,7,-1
 1792 1024 l 1,8,-1
 1536 1024 l 1,9,-1
 1536 1280 l 1,10,-1
 512 1280 l 1,11,-1
 512 1024 l 1,12,-1
 256 1024 l 1,13,-1
 256 256 l 1,14,-1
 512 256 l 1,15,-1
 512 0 l 1,4,-1
768 256 m 1,16,-1
 768 1024 l 1,17,-1
 1280 1024 l 1,18,-1
 1280 256 l 1,19,-1
 768 256 l 1,16,-1
EndSplineSet
Validated: 1
EndChar

StartChar: uniEF90
Encoding: 58192 58192 293
AltUni2: 00ef90.ffffffff.0
Width: 2048
Flags: W
LayerCount: 2
Fore
SplineSet
0 -256 m 1,0,-1
 0 1792 l 1,1,-1
 2048 1792 l 1,2,-1
 2048 -256 l 1,3,-1
 768 -256 l 1,4,-1
 768 256 l 1,5,-1
 1536 256 l 1,6,-1
 1536 512 l 1,7,-1
 1792 512 l 1,8,-1
 1792 1024 l 1,9,-1
 1536 1024 l 1,10,-1
 1536 1280 l 1,11,-1
 256 1280 l 1,12,-1
 256 -256 l 1,13,-1
 0 -256 l 1,0,-1
768 512 m 1,14,-1
 768 1024 l 1,15,-1
 1280 1024 l 1,16,-1
 1280 512 l 1,17,-1
 768 512 l 1,14,-1
EndSplineSet
Validated: 1
EndChar

StartChar: uniEF92
Encoding: 58194 58194 295
AltUni2: 00ef92.ffffffff.0
Width: 2048
Flags: W
LayerCount: 2
Fore
SplineSet
256 0 m 1,0,-1
 768 0 l 1,1,-1
 768 1024 l 1,2,-1
 1280 1024 l 1,3,-1
 1280 768 l 1,4,-1
 1792 768 l 1,5,-1
 1792 1024 l 1,6,-1
 1536 1024 l 1,7,-1
 1536 1280 l 1,8,-1
 256 1280 l 1,9,-1
 256 0 l 1,0,-1
0 -256 m 1,10,-1
 0 1792 l 1,11,-1
 2048 1792 l 1,12,-1
 2048 -256 l 1,13,-1
 0 -256 l 1,10,-1
EndSplineSet
Validated: 1
EndChar

StartChar: uniEF93
Encoding: 58195 58195 296
AltUni2: 00ef93.ffffffff.0
Width: 2048
Flags: W
LayerCount: 2
Fore
SplineSet
1792 1280 m 1,0,-1
 512 1280 l 1,1,-1
 512 1024 l 1,2,-1
 256 1024 l 1,3,-1
 256 768 l 1,4,-1
 512 768 l 1,5,-1
 512 512 l 1,6,-1
 1280 512 l 1,7,-1
 1280 256 l 1,8,-1
 256 256 l 1,9,-1
 256 0 l 1,10,-1
 1536 0 l 1,11,-1
 1536 256 l 1,12,-1
 1792 256 l 1,13,-1
 1792 512 l 1,14,-1
 1536 512 l 1,15,-1
 1536 768 l 1,16,-1
 768 768 l 1,17,-1
 768 1024 l 1,18,-1
 1792 1024 l 1,19,-1
 1792 1280 l 1,0,-1
2048 1792 m 1,20,-1
 2048 -256 l 1,21,-1
 0 -256 l 1,22,-1
 0 1792 l 1,23,-1
 2048 1792 l 1,20,-1
EndSplineSet
Validated: 1
EndChar

StartChar: uniEF94
Encoding: 58196 58196 297
AltUni2: 00ef94.ffffffff.0
Width: 2048
Flags: W
LayerCount: 2
Fore
SplineSet
2048 1792 m 1,0,-1
 2048 -256 l 1,1,-1
 0 -256 l 1,2,-1
 0 1792 l 1,3,-1
 2048 1792 l 1,0,-1
1280 1536 m 1,4,-1
 768 1536 l 1,5,-1
 768 1280 l 1,6,-1
 256 1280 l 1,7,-1
 256 1024 l 1,8,-1
 768 1024 l 1,9,-1
 768 256 l 1,10,-1
 1024 256 l 1,11,-1
 1024 0 l 1,12,-1
 1792 0 l 1,13,-1
 1792 256 l 1,14,-1
 1280 256 l 1,15,-1
 1280 1024 l 1,16,-1
 1792 1024 l 1,17,-1
 1792 1280 l 1,18,-1
 1280 1280 l 1,19,-1
 1280 1536 l 1,4,-1
EndSplineSet
Validated: 1
EndChar

StartChar: uniEF95
Encoding: 58197 58197 298
AltUni2: 00ef95.ffffffff.0
Width: 2048
Flags: W
LayerCount: 2
Fore
SplineSet
0 -256 m 1,0,-1
 0 1792 l 1,1,-1
 2048 1792 l 1,2,-1
 2048 -256 l 1,3,-1
 0 -256 l 1,0,-1
512 0 m 1,4,-1
 1792 0 l 1,5,-1
 1792 1280 l 1,6,-1
 1280 1280 l 1,7,-1
 1280 256 l 1,8,-1
 768 256 l 1,9,-1
 768 1280 l 1,10,-1
 256 1280 l 1,11,-1
 256 256 l 1,12,-1
 512 256 l 1,13,-1
 512 0 l 1,4,-1
EndSplineSet
Validated: 1
EndChar

StartChar: uniEF96
Encoding: 58198 58198 299
AltUni2: 00ef96.ffffffff.0
Width: 2048
Flags: W
LayerCount: 2
Fore
SplineSet
0 -256 m 1,0,-1
 0 1792 l 1,1,-1
 2048 1792 l 1,2,-1
 2048 -256 l 1,3,-1
 0 -256 l 1,0,-1
768 0 m 1,4,-1
 1280 0 l 1,5,-1
 1280 256 l 1,6,-1
 1536 256 l 1,7,-1
 1536 512 l 1,8,-1
 1792 512 l 1,9,-1
 1792 1280 l 1,10,-1
 1280 1280 l 1,11,-1
 1280 512 l 1,12,-1
 768 512 l 1,13,-1
 768 1280 l 1,14,-1
 256 1280 l 1,15,-1
 256 512 l 1,16,-1
 512 512 l 1,17,-1
 512 256 l 1,18,-1
 768 256 l 1,19,-1
 768 0 l 1,4,-1
EndSplineSet
Validated: 1
EndChar

StartChar: uniEF97
Encoding: 58199 58199 300
AltUni2: 00ef97.ffffffff.0
Width: 2048
Flags: W
LayerCount: 2
Fore
SplineSet
0 -256 m 1,0,-1
 0 1792 l 1,1,-1
 2048 1792 l 1,2,-1
 2048 1280 l 1,3,-1
 1536 1280 l 1,4,-1
 1536 768 l 1,5,-1
 1280 768 l 1,6,-1
 1280 1024 l 1,7,-1
 1024 1024 l 1,8,-1
 1024 768 l 1,9,-1
 768 768 l 1,10,-1
 768 1280 l 1,11,-1
 256 1280 l 1,12,-1
 256 512 l 1,13,-1
 512 512 l 1,14,-1
 512 0 l 1,15,-1
 1024 0 l 1,16,-1
 1024 256 l 1,17,-1
 1280 256 l 1,18,-1
 1280 0 l 1,19,-1
 1792 0 l 1,20,-1
 1792 512 l 1,21,-1
 2048 512 l 1,22,-1
 2048 -256 l 1,23,-1
 0 -256 l 1,0,-1
EndSplineSet
Validated: 1
EndChar

StartChar: uniEF98
Encoding: 58200 58200 301
AltUni2: 00ef98.ffffffff.0
Width: 2048
Flags: W
LayerCount: 2
Fore
SplineSet
0 -256 m 1,0,-1
 0 1792 l 1,1,-1
 2048 1792 l 1,2,-1
 2048 -256 l 1,3,-1
 0 -256 l 1,0,-1
256 0 m 1,4,-1
 768 0 l 1,5,-1
 768 256 l 1,6,-1
 1280 256 l 1,7,-1
 1280 0 l 1,8,-1
 1792 0 l 1,9,-1
 1792 256 l 1,10,-1
 1536 256 l 1,11,-1
 1536 512 l 1,12,-1
 1280 512 l 1,13,-1
 1280 768 l 1,14,-1
 1536 768 l 1,15,-1
 1536 1024 l 1,16,-1
 1792 1024 l 1,17,-1
 1792 1280 l 1,18,-1
 1280 1280 l 1,19,-1
 1280 1024 l 1,20,-1
 768 1024 l 1,21,-1
 768 1280 l 1,22,-1
 256 1280 l 1,23,-1
 256 1024 l 1,24,-1
 512 1024 l 1,25,-1
 512 768 l 1,26,-1
 768 768 l 1,27,-1
 768 512 l 1,28,-1
 512 512 l 1,29,-1
 512 256 l 1,30,-1
 256 256 l 1,31,-1
 256 0 l 1,4,-1
EndSplineSet
Validated: 1
EndChar

StartChar: uniEF99
Encoding: 58201 58201 302
AltUni2: 00ef99.ffffffff.0
Width: 2048
Flags: W
LayerCount: 2
Fore
SplineSet
2048 1792 m 1,0,-1
 2048 -256 l 1,1,-1
 1280 -256 l 1,2,-1
 1280 0 l 1,3,-1
 1536 0 l 1,4,-1
 1536 256 l 1,5,-1
 1792 256 l 1,6,-1
 1792 1280 l 1,7,-1
 1280 1280 l 1,8,-1
 1280 512 l 1,9,-1
 768 512 l 1,10,-1
 768 1280 l 1,11,-1
 256 1280 l 1,12,-1
 256 512 l 1,13,-1
 512 512 l 1,14,-1
 512 256 l 1,15,-1
 1024 256 l 1,16,-1
 1024 0 l 1,17,-1
 256 0 l 1,18,-1
 256 -256 l 1,19,-1
 0 -256 l 1,20,-1
 0 1792 l 1,21,-1
 2048 1792 l 1,0,-1
EndSplineSet
Validated: 1
EndChar

StartChar: uniEF9A
Encoding: 58202 58202 303
AltUni2: 00ef9a.ffffffff.0
Width: 2048
Flags: W
LayerCount: 2
Fore
SplineSet
256 0 m 1,0,-1
 1792 0 l 1,1,-1
 1792 256 l 1,2,-1
 1024 256 l 1,3,-1
 1024 512 l 1,4,-1
 1280 512 l 1,5,-1
 1280 768 l 1,6,-1
 1536 768 l 1,7,-1
 1536 1024 l 1,8,-1
 1792 1024 l 1,9,-1
 1792 1280 l 1,10,-1
 256 1280 l 1,11,-1
 256 1024 l 1,12,-1
 1024 1024 l 1,13,-1
 1024 768 l 1,14,-1
 768 768 l 1,15,-1
 768 512 l 1,16,-1
 512 512 l 1,17,-1
 512 256 l 1,18,-1
 256 256 l 1,19,-1
 256 0 l 1,0,-1
0 -256 m 1,20,-1
 0 1792 l 1,21,-1
 2048 1792 l 1,22,-1
 2048 -256 l 1,23,-1
 0 -256 l 1,20,-1
EndSplineSet
Validated: 1
EndChar

StartChar: uniEFDF
Encoding: 58239 58239 304
AltUni2: 00efdf.ffffffff.0 00e3df.ffffffff.0
Width: 2048
Flags: W
LayerCount: 2
Fore
SplineSet
768 -256 m 1,0,-1
 768 0 l 1,1,-1
 512 0 l 1,2,-1
 512 256 l 1,3,-1
 256 256 l 1,4,-1
 256 512 l 1,5,-1
 0 512 l 1,6,-1
 0 1024 l 1,7,-1
 256 1024 l 1,8,-1
 256 768 l 1,9,-1
 512 768 l 1,10,-1
 512 512 l 1,11,-1
 768 512 l 1,12,-1
 768 256 l 1,13,-1
 1024 256 l 1,14,-1
 1024 0 l 1,15,-1
 1280 0 l 1,16,-1
 1280 -256 l 1,17,-1
 768 -256 l 1,0,-1
1792 -256 m 1,18,-1
 1792 0 l 1,19,-1
 1536 0 l 1,20,-1
 1536 256 l 1,21,-1
 1280 256 l 1,22,-1
 1280 512 l 1,23,-1
 1024 512 l 1,24,-1
 1024 768 l 1,25,-1
 768 768 l 1,26,-1
 768 1024 l 1,27,-1
 512 1024 l 1,28,-1
 512 1280 l 1,29,-1
 256 1280 l 1,30,-1
 256 1536 l 1,31,-1
 0 1536 l 1,32,-1
 0 1792 l 1,33,-1
 512 1792 l 1,34,-1
 512 1536 l 1,35,-1
 768 1536 l 1,36,-1
 768 1280 l 1,37,-1
 1024 1280 l 1,38,-1
 1024 1024 l 1,39,-1
 1280 1024 l 1,40,-1
 1280 768 l 1,41,-1
 1536 768 l 1,42,-1
 1536 512 l 1,43,-1
 1792 512 l 1,44,-1
 1792 256 l 1,45,-1
 2048 256 l 1,46,-1
 2048 -256 l 1,47,-1
 1792 -256 l 1,18,-1
1792 768 m 1,48,-1
 1792 1024 l 1,49,-1
 1536 1024 l 1,50,-1
 1536 1280 l 1,51,-1
 1280 1280 l 1,52,-1
 1280 1536 l 1,53,-1
 1024 1536 l 1,54,-1
 1024 1792 l 1,55,-1
 1536 1792 l 1,56,-1
 1536 1536 l 1,57,-1
 1792 1536 l 1,58,-1
 1792 1280 l 1,59,-1
 2048 1280 l 1,60,-1
 2048 768 l 1,61,-1
 1792 768 l 1,48,-1
0 -256 m 1,62,-1
 0 0 l 1,63,-1
 256 0 l 1,64,-1
 256 -256 l 1,65,-1
 0 -256 l 1,62,-1
EndSplineSet
Validated: 1
EndChar

StartChar: uniEFFA
Encoding: 58298 58298 306
AltUni2: 00effa.ffffffff.0 00e3fa.ffffffff.0
Width: 2048
Flags: W
LayerCount: 2
Fore
SplineSet
0 -256 m 1,0,-1
 0 1792 l 1,1,-1
 1792 1792 l 1,2,-1
 1792 1536 l 1,3,-1
 1536 1536 l 1,4,-1
 1536 1280 l 1,5,-1
 1280 1280 l 1,6,-1
 1280 1024 l 1,7,-1
 1024 1024 l 1,8,-1
 1024 768 l 1,9,-1
 768 768 l 1,10,-1
 768 1024 l 1,11,-1
 256 1024 l 1,12,-1
 256 0 l 1,13,-1
 768 0 l 1,14,-1
 768 256 l 1,15,-1
 1024 256 l 1,16,-1
 1024 512 l 1,17,-1
 1280 512 l 1,18,-1
 1280 768 l 1,19,-1
 1536 768 l 1,20,-1
 1536 1024 l 1,21,-1
 1792 1024 l 1,22,-1
 1792 1280 l 1,23,-1
 2048 1280 l 1,24,-1
 2048 -256 l 1,25,-1
 0 -256 l 1,0,-1
EndSplineSet
Validated: 1
EndChar

StartChar: asciicircum
Encoding: 94 94 308
Width: 2048
Flags: W
LayerCount: 2
Fore
SplineSet
256 512 m 1,0,-1
 256 1024 l 1,1,-1
 512 1024 l 1,2,-1
 512 1280 l 1,3,-1
 768 1280 l 1,4,-1
 768 1536 l 1,5,-1
 1024 1536 l 1,6,-1
 1024 1792 l 1,7,-1
 1280 1792 l 1,8,-1
 1280 1536 l 1,9,-1
 1536 1536 l 1,10,-1
 1536 1280 l 1,11,-1
 1792 1280 l 1,12,-1
 1792 1024 l 1,13,-1
 2048 1024 l 1,14,-1
 2048 512 l 1,15,-1
 1792 512 l 1,16,-1
 1792 768 l 1,17,-1
 1536 768 l 1,18,-1
 1536 1024 l 1,19,-1
 1280 1024 l 1,20,-1
 1280 1280 l 1,21,-1
 1024 1280 l 1,22,-1
 1024 1024 l 1,23,-1
 768 1024 l 1,24,-1
 768 768 l 1,25,-1
 512 768 l 1,26,-1
 512 512 l 1,27,-1
 256 512 l 1,0,-1
EndSplineSet
Validated: 1
EndChar

StartChar: grave
Encoding: 96 96 309
Width: 2048
Flags: WO
LayerCount: 2
Fore
SplineSet
0 -256 m 1,0,-1
 0 1792 l 5,1,-1
 2048 1792 l 1,2,-1
 2048 -256 l 1,3,-1
 0 -256 l 1,0,-1
EndSplineSet
EndChar

StartChar: braceleft
Encoding: 123 123 310
Width: 2048
Flags: W
LayerCount: 2
Fore
SplineSet
1024 0 m 1,0,-1
 1024 256 l 1,1,-1
 768 256 l 1,2,-1
 768 768 l 1,3,-1
 512 768 l 1,4,-1
 512 1024 l 1,5,-1
 768 1024 l 1,6,-1
 768 1536 l 1,7,-1
 1024 1536 l 1,8,-1
 1024 1792 l 1,9,-1
 1536 1792 l 1,10,-1
 1536 1536 l 1,11,-1
 1280 1536 l 1,12,-1
 1280 1024 l 1,13,-1
 1024 1024 l 1,14,-1
 1024 768 l 1,15,-1
 1280 768 l 1,16,-1
 1280 256 l 1,17,-1
 1536 256 l 1,18,-1
 1536 0 l 1,19,-1
 1024 0 l 1,0,-1
EndSplineSet
Validated: 1
EndChar

StartChar: asciitilde
Encoding: 126 126 312
Width: 2048
Flags: W
LayerCount: 2
Fore
SplineSet
256 512 m 1,0,-1
 256 768 l 1,1,-1
 512 768 l 1,2,-1
 512 1024 l 1,3,-1
 1280 1024 l 1,4,-1
 1280 768 l 1,5,-1
 1792 768 l 1,6,-1
 1792 1024 l 1,7,-1
 2048 1024 l 1,8,-1
 2048 768 l 1,9,-1
 1792 768 l 1,10,-1
 1792 512 l 1,11,-1
 1024 512 l 1,12,-1
 1024 768 l 1,13,-1
 512 768 l 1,14,-1
 512 512 l 1,15,-1
 256 512 l 1,0,-1
EndSplineSet
Validated: 5
EndChar

StartChar: uniF8FF
Encoding: 63743 63743 313
Width: 2048
Flags: W
LayerCount: 2
Fore
SplineSet
0 1787 m 1,0,-1
 1028 -256 l 1,1,-1
 0 -256 l 1,2,-1
 0 1787 l 1,0,-1
2048 -256 m 1,3,-1
 1024 -256 l 1,4,-1
 2048 1787 l 1,5,-1
 2048 -256 l 1,3,-1
1026 1443 m 1,6,-1
 512 1785 l 1,7,-1
 512 1098 l 1,8,-1
 1026 1443 l 1,6,-1
1112 999 m 0,9,10
 1112 1036 1112 1036 1086 1061 c 0,11,12
 1060 1087 1060 1087 1024 1087 c 256,13,14
 988 1087 988 1087 962 1061 c 0,15,16
 937 1036 937 1036 937 999 c 0,17,18
 937 963 937 963 962 938 c 0,19,20
 988 912 988 912 1024 912 c 256,21,22
 1060 912 1060 912 1086 938 c 0,23,24
 1112 963 1112 963 1112 999 c 0,9,10
1086 563 m 0,26,27
 1060 537 1060 537 1024 537 c 256,28,29
 988 537 988 537 962 563 c 0,30,31
 937 588 937 588 937 624 c 0,32,33
 937 661 937 661 962 686 c 0,34,35
 988 712 988 712 1024 712 c 256,36,37
 1060 712 1060 712 1086 686 c 0,38,39
 1112 661 1112 661 1112 624 c 0,40,25
 1112 588 1112 588 1086 563 c 0,26,27
1112 253 m 0,41,42
 1112 289 1112 289 1086 314 c 0,43,44
 1060 340 1060 340 1024 340 c 256,45,46
 988 340 988 340 962 314 c 0,47,48
 937 289 937 289 937 253 c 0,49,50
 937 216 937 216 962 191 c 0,51,52
 988 165 988 165 1024 165 c 256,53,54
 1060 165 1060 165 1086 191 c 0,55,56
 1112 216 1112 216 1112 253 c 0,41,42
1022 1443 m 1,57,-1
 1536 1785 l 1,58,-1
 1536 1098 l 1,59,-1
 1022 1443 l 1,57,-1
EndSplineSet
Validated: 5
EndChar
